G75*
%MOIN*%
%OFA0B0*%
%FSLAX25Y25*%
%IPPOS*%
%LPD*%
%AMOC8*
5,1,8,0,0,1.08239X$1,22.5*
%
%ADD10C,0.00000*%
%ADD11C,0.01260*%
%ADD12C,0.06300*%
%ADD13OC8,0.06300*%
%ADD14OC8,0.06800*%
%ADD15C,0.07400*%
%ADD16C,0.06600*%
%ADD17C,0.20000*%
%ADD18OC8,0.05200*%
%ADD19C,0.01040*%
%ADD20R,0.04800X0.08800*%
%ADD21R,0.14173X0.08661*%
%ADD22R,0.04200X0.08500*%
%ADD23R,0.37402X0.39370*%
%ADD24C,0.05600*%
%ADD25OC8,0.06000*%
%ADD26C,0.01600*%
%ADD27C,0.03562*%
%ADD28C,0.03200*%
D10*
X0173228Y0070866D02*
X0173228Y0244094D01*
X0385827Y0244094D01*
X0385827Y0070866D01*
X0173228Y0070866D01*
D11*
X0295305Y0164072D02*
X0294675Y0163442D01*
X0294683Y0165530D01*
X0296163Y0167000D01*
X0298251Y0166992D01*
X0299721Y0165512D01*
X0299713Y0163424D01*
X0298233Y0161954D01*
X0296145Y0161962D01*
X0294675Y0163442D01*
X0295622Y0163830D01*
X0295626Y0165135D01*
X0296551Y0166053D01*
X0297856Y0166049D01*
X0298774Y0165124D01*
X0298770Y0163819D01*
X0297845Y0162901D01*
X0296540Y0162905D01*
X0295622Y0163830D01*
X0296568Y0164218D01*
X0296570Y0164740D01*
X0296939Y0165107D01*
X0297461Y0165105D01*
X0297828Y0164736D01*
X0297826Y0164214D01*
X0297457Y0163847D01*
X0296935Y0163849D01*
X0296568Y0164218D01*
D12*
X0307132Y0174342D03*
X0309567Y0201780D03*
X0334567Y0151024D03*
X0349488Y0129921D03*
X0303268Y0106535D03*
X0279173Y0107992D03*
X0249764Y0157874D03*
X0228819Y0180197D03*
X0201732Y0180197D03*
X0215236Y0116378D03*
D13*
X0215236Y0126378D03*
X0239764Y0157874D03*
X0238819Y0180197D03*
X0211732Y0180197D03*
X0279173Y0117992D03*
X0303268Y0116535D03*
X0324567Y0151024D03*
X0339488Y0129921D03*
X0309567Y0215780D03*
D14*
X0262756Y0138307D03*
X0262756Y0128307D03*
X0262756Y0118307D03*
X0262756Y0108307D03*
X0232756Y0108307D03*
X0232756Y0118307D03*
X0232756Y0128307D03*
X0232756Y0138307D03*
D15*
X0185000Y0130000D03*
X0185000Y0120000D03*
X0185000Y0110000D03*
X0185000Y0100000D03*
X0185000Y0090000D03*
X0185000Y0080000D03*
X0185000Y0150000D03*
X0185000Y0160000D03*
X0185000Y0170000D03*
X0185000Y0180000D03*
X0185000Y0190000D03*
X0185000Y0200000D03*
X0375000Y0195000D03*
X0375000Y0205000D03*
X0375000Y0215000D03*
X0375000Y0225000D03*
X0375000Y0235000D03*
X0375000Y0185000D03*
X0375000Y0175000D03*
X0375000Y0165000D03*
X0375000Y0150000D03*
X0375000Y0140000D03*
X0375000Y0130000D03*
X0375000Y0120000D03*
X0375000Y0110000D03*
X0375000Y0100000D03*
X0375000Y0090000D03*
X0375000Y0080000D03*
D16*
X0279843Y0087677D03*
X0268937Y0087677D03*
X0258031Y0087677D03*
X0247126Y0087677D03*
X0236220Y0087677D03*
X0241673Y0076496D03*
X0252579Y0076496D03*
X0263484Y0076496D03*
X0274390Y0076496D03*
D17*
X0307224Y0082087D03*
X0208839Y0082087D03*
D18*
X0205591Y0103701D03*
X0225591Y0103701D03*
X0224252Y0137165D03*
X0224567Y0155512D03*
X0204567Y0155512D03*
X0204252Y0137165D03*
X0221417Y0199803D03*
X0220709Y0209606D03*
X0240709Y0209606D03*
X0241417Y0199803D03*
X0282835Y0148819D03*
X0296220Y0148110D03*
X0305748Y0148031D03*
X0314921Y0143110D03*
X0305748Y0128031D03*
X0296220Y0128110D03*
X0282835Y0128819D03*
X0314921Y0123110D03*
X0324803Y0126142D03*
X0324803Y0106142D03*
X0346299Y0147638D03*
X0343661Y0159685D03*
X0349291Y0172677D03*
X0354291Y0180177D03*
X0359291Y0172677D03*
X0363661Y0159685D03*
X0366299Y0147638D03*
X0337126Y0172717D03*
X0332126Y0180217D03*
X0327126Y0172717D03*
X0340748Y0190000D03*
X0349843Y0190000D03*
X0360000Y0190000D03*
X0360000Y0210000D03*
X0349843Y0210000D03*
X0340748Y0210000D03*
D19*
X0225808Y0145916D02*
X0226328Y0145396D01*
X0225105Y0144182D01*
X0223384Y0144188D01*
X0222170Y0145411D01*
X0222176Y0147132D01*
X0223399Y0148346D01*
X0225120Y0148340D01*
X0226334Y0147117D01*
X0226328Y0145396D01*
X0225550Y0145722D01*
X0224785Y0144963D01*
X0223710Y0144966D01*
X0222951Y0145731D01*
X0222954Y0146806D01*
X0223719Y0147565D01*
X0224794Y0147562D01*
X0225553Y0146797D01*
X0225550Y0145722D01*
X0224771Y0146048D01*
X0224465Y0145744D01*
X0224036Y0145745D01*
X0223732Y0146051D01*
X0223733Y0146480D01*
X0224039Y0146784D01*
X0224468Y0146783D01*
X0224772Y0146477D01*
X0224771Y0146048D01*
X0205808Y0145986D02*
X0206328Y0145466D01*
X0205105Y0144252D01*
X0203384Y0144258D01*
X0202170Y0145481D01*
X0202176Y0147202D01*
X0203399Y0148416D01*
X0205120Y0148410D01*
X0206334Y0147187D01*
X0206328Y0145466D01*
X0205550Y0145792D01*
X0204785Y0145033D01*
X0203710Y0145036D01*
X0202951Y0145801D01*
X0202954Y0146876D01*
X0203719Y0147635D01*
X0204794Y0147632D01*
X0205553Y0146867D01*
X0205550Y0145792D01*
X0204771Y0146118D01*
X0204465Y0145814D01*
X0204036Y0145815D01*
X0203732Y0146121D01*
X0203733Y0146550D01*
X0204039Y0146854D01*
X0204468Y0146853D01*
X0204772Y0146547D01*
X0204771Y0146118D01*
D20*
X0202992Y0203076D03*
X0193892Y0203076D03*
X0212092Y0203076D03*
X0335782Y0108263D03*
X0344882Y0108263D03*
X0353982Y0108263D03*
D21*
X0344882Y0083862D03*
X0202992Y0227476D03*
D22*
X0256693Y0170940D03*
X0266693Y0170940D03*
X0276693Y0170940D03*
D23*
X0266693Y0208740D03*
D24*
X0235315Y0227121D02*
X0235315Y0232721D01*
X0225315Y0232721D02*
X0225315Y0227121D01*
D25*
X0196850Y0142047D03*
X0196850Y0102047D03*
D26*
X0197165Y0102047D01*
X0200787Y0098425D01*
X0210630Y0098425D01*
X0214567Y0102362D01*
X0224252Y0102362D01*
X0225591Y0103701D01*
X0224409Y0104882D01*
X0224409Y0110236D01*
X0222441Y0112205D01*
X0216535Y0112205D01*
X0215236Y0113504D01*
X0215236Y0116378D01*
X0225079Y0120276D01*
X0232756Y0118307D01*
X0240157Y0116142D02*
X0240157Y0143701D01*
X0244882Y0148425D01*
X0244882Y0162205D01*
X0242126Y0163386D01*
X0236220Y0163386D01*
X0232283Y0159449D01*
X0232283Y0157480D01*
X0230315Y0155512D01*
X0224567Y0155512D01*
X0206850Y0173228D01*
X0204724Y0173228D01*
X0201732Y0176220D01*
X0201732Y0180197D01*
X0214449Y0192913D01*
X0216535Y0192913D01*
X0219165Y0190223D02*
X0246011Y0190223D01*
X0246011Y0191821D02*
X0220155Y0191821D01*
X0220298Y0192165D02*
X0220298Y0193662D01*
X0219725Y0195045D01*
X0219547Y0195222D01*
X0223315Y0195222D01*
X0225998Y0197906D01*
X0225998Y0201701D01*
X0224290Y0203409D01*
X0224290Y0206709D01*
X0225290Y0207709D01*
X0225290Y0210866D01*
X0236836Y0199320D01*
X0236836Y0197906D01*
X0239520Y0195222D01*
X0243315Y0195222D01*
X0243483Y0195390D01*
X0246011Y0194588D01*
X0246011Y0188235D01*
X0247172Y0187074D01*
X0263112Y0187074D01*
X0263112Y0176511D01*
X0262612Y0176011D01*
X0262612Y0165870D01*
X0263772Y0164709D01*
X0269614Y0164709D01*
X0270774Y0165870D01*
X0270774Y0176011D01*
X0270274Y0176511D01*
X0270274Y0187074D01*
X0286214Y0187074D01*
X0287375Y0188235D01*
X0287375Y0212198D01*
X0305892Y0212198D01*
X0307442Y0210648D01*
X0311692Y0210648D01*
X0314698Y0213654D01*
X0314698Y0217905D01*
X0311775Y0220828D01*
X0313477Y0220828D01*
X0315317Y0218989D01*
X0315317Y0202271D01*
X0314517Y0201471D01*
X0314517Y0201779D01*
X0309567Y0201779D01*
X0309567Y0196830D01*
X0309875Y0196830D01*
X0309540Y0196494D01*
X0306374Y0196494D01*
X0305058Y0195949D01*
X0304051Y0194942D01*
X0303506Y0193626D01*
X0303506Y0192201D01*
X0303551Y0192091D01*
X0303551Y0178017D01*
X0302782Y0177248D01*
X0302001Y0175363D01*
X0302001Y0173321D01*
X0302782Y0171435D01*
X0304226Y0169992D01*
X0306112Y0169211D01*
X0308153Y0169211D01*
X0310039Y0169992D01*
X0311482Y0171435D01*
X0312263Y0173321D01*
X0312263Y0175363D01*
X0311482Y0177248D01*
X0310713Y0178017D01*
X0310713Y0189332D01*
X0311736Y0189332D01*
X0313052Y0189877D01*
X0320926Y0197751D01*
X0321934Y0198759D01*
X0322479Y0200075D01*
X0322479Y0221185D01*
X0321934Y0222501D01*
X0320926Y0223508D01*
X0317997Y0226438D01*
X0316989Y0227445D01*
X0315673Y0227991D01*
X0294920Y0227991D01*
X0294920Y0227996D01*
X0294990Y0228350D01*
X0294920Y0228701D01*
X0294920Y0229059D01*
X0294781Y0229393D01*
X0294710Y0229747D01*
X0294511Y0230044D01*
X0294374Y0230375D01*
X0294119Y0230631D01*
X0293918Y0230931D01*
X0293620Y0231129D01*
X0293367Y0231382D01*
X0293033Y0231521D01*
X0287715Y0235066D01*
X0287462Y0235319D01*
X0287128Y0235458D01*
X0286827Y0235658D01*
X0286476Y0235728D01*
X0286145Y0235865D01*
X0285784Y0235865D01*
X0285429Y0235935D01*
X0285078Y0235865D01*
X0241641Y0235865D01*
X0239802Y0237704D01*
X0239802Y0238901D01*
X0239256Y0240217D01*
X0238249Y0241225D01*
X0236933Y0241770D01*
X0221162Y0241770D01*
X0221141Y0241778D01*
X0220451Y0241770D01*
X0219760Y0241770D01*
X0219739Y0241761D01*
X0219716Y0241761D01*
X0219082Y0241489D01*
X0218444Y0241225D01*
X0218428Y0241209D01*
X0218407Y0241200D01*
X0217924Y0240705D01*
X0217437Y0240217D01*
X0217428Y0240197D01*
X0217412Y0240180D01*
X0217156Y0239539D01*
X0216891Y0238901D01*
X0216891Y0238879D01*
X0213219Y0229697D01*
X0212954Y0229059D01*
X0212954Y0229036D01*
X0212946Y0229015D01*
X0212954Y0228325D01*
X0212954Y0221956D01*
X0209056Y0218058D01*
X0208511Y0216741D01*
X0208511Y0209096D01*
X0207711Y0208296D01*
X0207711Y0197855D01*
X0208872Y0196694D01*
X0215313Y0196694D01*
X0216473Y0197855D01*
X0216473Y0207363D01*
X0217128Y0206709D01*
X0217128Y0201992D01*
X0216836Y0201701D01*
X0216836Y0197906D01*
X0218620Y0196122D01*
X0217284Y0196676D01*
X0215787Y0196676D01*
X0214404Y0196103D01*
X0213996Y0195694D01*
X0213896Y0195694D01*
X0212873Y0195271D01*
X0202878Y0185276D01*
X0202753Y0185328D01*
X0200712Y0185328D01*
X0200586Y0185276D01*
X0200383Y0185479D01*
X0197894Y0197476D01*
X0198273Y0197855D01*
X0198273Y0208296D01*
X0197113Y0209457D01*
X0190672Y0209457D01*
X0189511Y0208296D01*
X0189511Y0203523D01*
X0188218Y0204816D01*
X0186130Y0205681D01*
X0183870Y0205681D01*
X0181782Y0204816D01*
X0180184Y0203218D01*
X0179319Y0201130D01*
X0179319Y0198870D01*
X0180184Y0196782D01*
X0181782Y0195184D01*
X0182226Y0195000D01*
X0181782Y0194816D01*
X0180184Y0193218D01*
X0179319Y0191130D01*
X0179319Y0188870D01*
X0180184Y0186782D01*
X0181782Y0185184D01*
X0182226Y0185000D01*
X0181782Y0184816D01*
X0180184Y0183218D01*
X0179319Y0181130D01*
X0179319Y0178870D01*
X0180184Y0176782D01*
X0181782Y0175184D01*
X0182226Y0175000D01*
X0181782Y0174816D01*
X0180184Y0173218D01*
X0179319Y0171130D01*
X0179319Y0168870D01*
X0180184Y0166782D01*
X0181782Y0165184D01*
X0182486Y0164892D01*
X0182117Y0164704D01*
X0181417Y0164195D01*
X0180805Y0163583D01*
X0180296Y0162883D01*
X0179903Y0162111D01*
X0179635Y0161288D01*
X0179500Y0160433D01*
X0179500Y0160200D01*
X0184800Y0160200D01*
X0184800Y0159800D01*
X0179500Y0159800D01*
X0179500Y0159567D01*
X0179635Y0158712D01*
X0179903Y0157889D01*
X0180296Y0157117D01*
X0180805Y0156417D01*
X0181417Y0155805D01*
X0182117Y0155296D01*
X0182486Y0155108D01*
X0181782Y0154816D01*
X0180184Y0153218D01*
X0179319Y0151130D01*
X0179319Y0148870D01*
X0180184Y0146782D01*
X0181782Y0145184D01*
X0183870Y0144319D01*
X0186130Y0144319D01*
X0188218Y0145184D01*
X0189816Y0146782D01*
X0190681Y0148870D01*
X0190681Y0151130D01*
X0189816Y0153218D01*
X0188218Y0154816D01*
X0187514Y0155108D01*
X0187883Y0155296D01*
X0188583Y0155805D01*
X0189195Y0156417D01*
X0189704Y0157117D01*
X0190097Y0157889D01*
X0190365Y0158712D01*
X0190500Y0159567D01*
X0190500Y0159800D01*
X0185200Y0159800D01*
X0185200Y0160200D01*
X0190500Y0160200D01*
X0190500Y0160433D01*
X0190365Y0161288D01*
X0190097Y0162111D01*
X0189704Y0162883D01*
X0189195Y0163583D01*
X0188583Y0164195D01*
X0187883Y0164704D01*
X0187514Y0164892D01*
X0188218Y0165184D01*
X0189816Y0166782D01*
X0190681Y0168870D01*
X0190681Y0171130D01*
X0189816Y0173218D01*
X0189479Y0173556D01*
X0189678Y0173638D01*
X0198394Y0176279D01*
X0198826Y0175847D01*
X0198951Y0175795D01*
X0198951Y0175667D01*
X0199375Y0174645D01*
X0202367Y0171653D01*
X0203149Y0170871D01*
X0204171Y0170447D01*
X0205698Y0170447D01*
X0219986Y0156160D01*
X0219986Y0153614D01*
X0222669Y0150931D01*
X0226464Y0150931D01*
X0228264Y0152731D01*
X0230868Y0152731D01*
X0231890Y0153154D01*
X0232673Y0153936D01*
X0234633Y0155896D01*
X0234633Y0155749D01*
X0237638Y0152743D01*
X0237705Y0152743D01*
X0237738Y0152521D01*
X0232647Y0143688D01*
X0231308Y0143688D01*
X0229002Y0145994D01*
X0228917Y0146145D01*
X0228833Y0146211D01*
X0228840Y0148146D01*
X0226165Y0150839D01*
X0222370Y0150852D01*
X0219677Y0148178D01*
X0219664Y0144383D01*
X0222318Y0141710D01*
X0219671Y0139063D01*
X0219671Y0135268D01*
X0222354Y0132584D01*
X0224546Y0132584D01*
X0227375Y0129755D01*
X0227375Y0129465D01*
X0226444Y0129159D01*
X0219712Y0129159D01*
X0217362Y0131509D01*
X0213411Y0131509D01*
X0213411Y0154097D01*
X0212988Y0155119D01*
X0212205Y0155901D01*
X0210237Y0157870D01*
X0209215Y0158293D01*
X0208264Y0158293D01*
X0206464Y0160093D01*
X0202669Y0160093D01*
X0199986Y0157409D01*
X0199986Y0153614D01*
X0202669Y0150931D01*
X0206464Y0150931D01*
X0207849Y0152315D01*
X0207849Y0148956D01*
X0206090Y0150728D01*
X0204267Y0150734D01*
X0202445Y0150740D01*
X0199858Y0148172D01*
X0199852Y0146350D01*
X0204252Y0146334D01*
X0204237Y0141934D01*
X0206059Y0141928D01*
X0207849Y0143705D01*
X0207849Y0139791D01*
X0206074Y0141565D01*
X0204252Y0141565D01*
X0204252Y0137165D01*
X0204252Y0132765D01*
X0206074Y0132765D01*
X0207849Y0134540D01*
X0207849Y0133042D01*
X0205541Y0130734D01*
X0190681Y0130734D01*
X0190681Y0131130D01*
X0189816Y0133218D01*
X0189789Y0133245D01*
X0189789Y0134675D01*
X0193484Y0138370D01*
X0194787Y0137066D01*
X0198914Y0137066D01*
X0199852Y0138004D01*
X0199852Y0137165D01*
X0199852Y0135343D01*
X0202429Y0132765D01*
X0204252Y0132765D01*
X0204252Y0137165D01*
X0204252Y0137165D01*
X0199852Y0137165D01*
X0204252Y0137165D01*
X0204252Y0137165D01*
X0204252Y0135197D01*
X0204252Y0146334D01*
X0204252Y0146334D01*
X0204237Y0141934D01*
X0202414Y0141941D01*
X0201831Y0142527D01*
X0201831Y0140967D01*
X0202429Y0141565D01*
X0204252Y0141565D01*
X0204252Y0137165D01*
X0204252Y0137165D01*
X0204252Y0137472D02*
X0204252Y0137472D01*
X0204252Y0139070D02*
X0204252Y0139070D01*
X0204252Y0140669D02*
X0204252Y0140669D01*
X0204238Y0142268D02*
X0204238Y0142268D01*
X0204243Y0143866D02*
X0204243Y0143866D01*
X0204249Y0145465D02*
X0204249Y0145465D01*
X0204252Y0146334D02*
X0199852Y0146349D01*
X0199851Y0146091D01*
X0198914Y0147028D01*
X0194787Y0147028D01*
X0192525Y0144766D01*
X0191653Y0144405D01*
X0185433Y0138184D01*
X0184650Y0137402D01*
X0184227Y0136380D01*
X0184227Y0135681D01*
X0183870Y0135681D01*
X0181782Y0134816D01*
X0180184Y0133218D01*
X0179319Y0131130D01*
X0179319Y0128870D01*
X0180184Y0126782D01*
X0181782Y0125184D01*
X0182226Y0125000D01*
X0181782Y0124816D01*
X0180184Y0123218D01*
X0179319Y0121130D01*
X0179319Y0118870D01*
X0180184Y0116782D01*
X0181782Y0115184D01*
X0182226Y0115000D01*
X0181782Y0114816D01*
X0180184Y0113218D01*
X0179319Y0111130D01*
X0179319Y0108870D01*
X0180184Y0106782D01*
X0181782Y0105184D01*
X0182226Y0105000D01*
X0181782Y0104816D01*
X0180184Y0103218D01*
X0179319Y0101130D01*
X0179319Y0098870D01*
X0180184Y0096782D01*
X0181782Y0095184D01*
X0182226Y0095000D01*
X0181782Y0094816D01*
X0180184Y0093218D01*
X0179319Y0091130D01*
X0179319Y0088870D01*
X0180184Y0086782D01*
X0181782Y0085184D01*
X0182226Y0085000D01*
X0181782Y0084816D01*
X0180184Y0083218D01*
X0179319Y0081130D01*
X0179319Y0078870D01*
X0180184Y0076782D01*
X0181782Y0075184D01*
X0183870Y0074319D01*
X0186130Y0074319D01*
X0188218Y0075184D01*
X0189816Y0076782D01*
X0190681Y0078870D01*
X0190681Y0081130D01*
X0189816Y0083218D01*
X0188218Y0084816D01*
X0187774Y0085000D01*
X0188218Y0085184D01*
X0189816Y0086782D01*
X0190681Y0088870D01*
X0190681Y0091130D01*
X0189816Y0093218D01*
X0188218Y0094816D01*
X0187774Y0095000D01*
X0188218Y0095184D01*
X0189816Y0096782D01*
X0190681Y0098870D01*
X0190681Y0101130D01*
X0189816Y0103218D01*
X0188218Y0104816D01*
X0187774Y0105000D01*
X0188218Y0105184D01*
X0189816Y0106782D01*
X0190681Y0108870D01*
X0190681Y0111130D01*
X0189816Y0113218D01*
X0188218Y0114816D01*
X0187774Y0115000D01*
X0188218Y0115184D01*
X0189816Y0116782D01*
X0190681Y0118870D01*
X0190681Y0121130D01*
X0189816Y0123218D01*
X0188218Y0124816D01*
X0187774Y0125000D01*
X0188189Y0125172D01*
X0207246Y0125172D01*
X0208268Y0125595D01*
X0209051Y0126377D01*
X0210105Y0127432D01*
X0210105Y0125180D01*
X0203233Y0118308D01*
X0202809Y0117285D01*
X0202809Y0107398D01*
X0201009Y0105598D01*
X0201009Y0104932D01*
X0198914Y0107028D01*
X0194787Y0107028D01*
X0191869Y0104110D01*
X0191869Y0099984D01*
X0194787Y0097066D01*
X0198213Y0097066D01*
X0198430Y0096850D01*
X0199212Y0096067D01*
X0200234Y0095644D01*
X0211183Y0095644D01*
X0212205Y0096067D01*
X0215719Y0099581D01*
X0223232Y0099581D01*
X0223693Y0099120D01*
X0227488Y0099120D01*
X0227534Y0099165D01*
X0227534Y0093029D01*
X0227957Y0092007D01*
X0231027Y0088938D01*
X0230939Y0088728D01*
X0230939Y0086627D01*
X0231743Y0084686D01*
X0233229Y0083200D01*
X0235170Y0082396D01*
X0237271Y0082396D01*
X0239212Y0083200D01*
X0240698Y0084686D01*
X0241502Y0086627D01*
X0241502Y0088728D01*
X0240698Y0090669D01*
X0239212Y0092154D01*
X0237271Y0092958D01*
X0235170Y0092958D01*
X0234960Y0092871D01*
X0233096Y0094735D01*
X0233096Y0099242D01*
X0235114Y0101259D01*
X0235537Y0102281D01*
X0235537Y0103478D01*
X0238137Y0106078D01*
X0238137Y0110188D01*
X0241733Y0113784D01*
X0242515Y0114566D01*
X0242939Y0115589D01*
X0242939Y0142549D01*
X0247240Y0146850D01*
X0247663Y0147872D01*
X0247663Y0153190D01*
X0248743Y0152743D01*
X0250784Y0152743D01*
X0251438Y0153014D01*
X0255844Y0149541D01*
X0253548Y0147245D01*
X0253124Y0146222D01*
X0253124Y0114604D01*
X0253548Y0113582D01*
X0254330Y0112800D01*
X0257375Y0109755D01*
X0257375Y0106078D01*
X0260527Y0102926D01*
X0264985Y0102926D01*
X0267585Y0105526D01*
X0274641Y0105526D01*
X0274799Y0105143D01*
X0269132Y0105143D01*
X0268110Y0104720D01*
X0267327Y0103938D01*
X0258691Y0095301D01*
X0253384Y0095301D01*
X0252362Y0094877D01*
X0251579Y0094095D01*
X0249779Y0092295D01*
X0248176Y0092958D01*
X0246075Y0092958D01*
X0244134Y0092154D01*
X0242649Y0090669D01*
X0241845Y0088728D01*
X0241845Y0086627D01*
X0242649Y0084686D01*
X0244134Y0083200D01*
X0244353Y0083109D01*
X0242934Y0081690D01*
X0242724Y0081777D01*
X0240623Y0081777D01*
X0238682Y0080973D01*
X0237196Y0079488D01*
X0236392Y0077547D01*
X0236392Y0075446D01*
X0237196Y0073505D01*
X0237853Y0072847D01*
X0216543Y0072847D01*
X0218426Y0074730D01*
X0220003Y0077462D01*
X0220820Y0080509D01*
X0220820Y0083664D01*
X0220003Y0086711D01*
X0218426Y0089443D01*
X0216195Y0091674D01*
X0213463Y0093251D01*
X0210416Y0094068D01*
X0207261Y0094068D01*
X0204214Y0093251D01*
X0201482Y0091674D01*
X0199251Y0089443D01*
X0197674Y0086711D01*
X0196857Y0083664D01*
X0196857Y0080509D01*
X0197674Y0077462D01*
X0199251Y0074730D01*
X0201134Y0072847D01*
X0175209Y0072847D01*
X0175209Y0242113D01*
X0383846Y0242113D01*
X0383846Y0072847D01*
X0314929Y0072847D01*
X0316812Y0074730D01*
X0318389Y0077462D01*
X0319205Y0080509D01*
X0319205Y0083664D01*
X0318389Y0086711D01*
X0316812Y0089443D01*
X0314581Y0091674D01*
X0314523Y0091707D01*
X0315777Y0091707D01*
X0318508Y0088976D01*
X0319291Y0088193D01*
X0320313Y0087770D01*
X0335814Y0087770D01*
X0335814Y0078711D01*
X0336975Y0077550D01*
X0352789Y0077550D01*
X0353950Y0078711D01*
X0353950Y0087770D01*
X0358821Y0087770D01*
X0359843Y0088193D01*
X0364562Y0092913D01*
X0364986Y0093935D01*
X0364986Y0143057D01*
X0368010Y0143057D01*
X0369500Y0141567D01*
X0369319Y0141130D01*
X0369319Y0138870D01*
X0370184Y0136782D01*
X0371782Y0135184D01*
X0372226Y0135000D01*
X0371782Y0134816D01*
X0370184Y0133218D01*
X0369319Y0131130D01*
X0369319Y0128870D01*
X0370184Y0126782D01*
X0371782Y0125184D01*
X0372226Y0125000D01*
X0371782Y0124816D01*
X0370184Y0123218D01*
X0369319Y0121130D01*
X0369319Y0118870D01*
X0370184Y0116782D01*
X0371782Y0115184D01*
X0372226Y0115000D01*
X0371782Y0114816D01*
X0370184Y0113218D01*
X0369319Y0111130D01*
X0369319Y0108870D01*
X0370184Y0106782D01*
X0371782Y0105184D01*
X0372226Y0105000D01*
X0371782Y0104816D01*
X0370184Y0103218D01*
X0369319Y0101130D01*
X0369319Y0098870D01*
X0370184Y0096782D01*
X0371782Y0095184D01*
X0372226Y0095000D01*
X0371782Y0094816D01*
X0370184Y0093218D01*
X0369319Y0091130D01*
X0369319Y0088870D01*
X0370184Y0086782D01*
X0371782Y0085184D01*
X0372226Y0085000D01*
X0371782Y0084816D01*
X0370184Y0083218D01*
X0369319Y0081130D01*
X0369319Y0078870D01*
X0370184Y0076782D01*
X0371782Y0075184D01*
X0373870Y0074319D01*
X0376130Y0074319D01*
X0378218Y0075184D01*
X0379816Y0076782D01*
X0380681Y0078870D01*
X0380681Y0081130D01*
X0379816Y0083218D01*
X0378218Y0084816D01*
X0377774Y0085000D01*
X0378218Y0085184D01*
X0379816Y0086782D01*
X0380681Y0088870D01*
X0380681Y0091130D01*
X0379816Y0093218D01*
X0378218Y0094816D01*
X0377774Y0095000D01*
X0378218Y0095184D01*
X0379816Y0096782D01*
X0380681Y0098870D01*
X0380681Y0101130D01*
X0379816Y0103218D01*
X0378218Y0104816D01*
X0377774Y0105000D01*
X0378218Y0105184D01*
X0379816Y0106782D01*
X0380681Y0108870D01*
X0380681Y0111130D01*
X0379816Y0113218D01*
X0378218Y0114816D01*
X0377774Y0115000D01*
X0378218Y0115184D01*
X0379816Y0116782D01*
X0380681Y0118870D01*
X0380681Y0121130D01*
X0379816Y0123218D01*
X0378218Y0124816D01*
X0377774Y0125000D01*
X0378218Y0125184D01*
X0379816Y0126782D01*
X0380681Y0128870D01*
X0380681Y0131130D01*
X0379816Y0133218D01*
X0378218Y0134816D01*
X0377774Y0135000D01*
X0378218Y0135184D01*
X0379816Y0136782D01*
X0380681Y0138870D01*
X0380681Y0141130D01*
X0379816Y0143218D01*
X0378218Y0144816D01*
X0377774Y0145000D01*
X0378218Y0145184D01*
X0379816Y0146782D01*
X0380681Y0148870D01*
X0380681Y0151130D01*
X0379816Y0153218D01*
X0378218Y0154816D01*
X0376130Y0155681D01*
X0373870Y0155681D01*
X0371782Y0154816D01*
X0370184Y0153218D01*
X0369319Y0151130D01*
X0369319Y0151097D01*
X0368197Y0152219D01*
X0364986Y0152219D01*
X0364986Y0154097D01*
X0364569Y0155104D01*
X0365559Y0155104D01*
X0368243Y0157787D01*
X0368243Y0161583D01*
X0366954Y0162871D01*
X0366954Y0166171D01*
X0371375Y0170591D01*
X0371782Y0170184D01*
X0372226Y0170000D01*
X0371782Y0169816D01*
X0370184Y0168218D01*
X0369319Y0166130D01*
X0369319Y0163870D01*
X0370184Y0161782D01*
X0371782Y0160184D01*
X0373870Y0159319D01*
X0376130Y0159319D01*
X0378218Y0160184D01*
X0379816Y0161782D01*
X0380681Y0163870D01*
X0380681Y0166130D01*
X0379816Y0168218D01*
X0378218Y0169816D01*
X0377774Y0170000D01*
X0378218Y0170184D01*
X0379816Y0171782D01*
X0380681Y0173870D01*
X0380681Y0176130D01*
X0379816Y0178218D01*
X0378218Y0179816D01*
X0377774Y0180000D01*
X0378218Y0180184D01*
X0379816Y0181782D01*
X0380681Y0183870D01*
X0380681Y0186130D01*
X0379816Y0188218D01*
X0378218Y0189816D01*
X0377774Y0190000D01*
X0378218Y0190184D01*
X0379816Y0191782D01*
X0380681Y0193870D01*
X0380681Y0196130D01*
X0379816Y0198218D01*
X0378218Y0199816D01*
X0377774Y0200000D01*
X0378218Y0200184D01*
X0379816Y0201782D01*
X0380681Y0203870D01*
X0380681Y0206130D01*
X0379816Y0208218D01*
X0378218Y0209816D01*
X0377774Y0210000D01*
X0378218Y0210184D01*
X0379816Y0211782D01*
X0380681Y0213870D01*
X0380681Y0216130D01*
X0379816Y0218218D01*
X0378218Y0219816D01*
X0377774Y0220000D01*
X0378218Y0220184D01*
X0379816Y0221782D01*
X0380681Y0223870D01*
X0380681Y0226130D01*
X0379816Y0228218D01*
X0378218Y0229816D01*
X0377774Y0230000D01*
X0378218Y0230184D01*
X0379816Y0231782D01*
X0380681Y0233870D01*
X0380681Y0236130D01*
X0379816Y0238218D01*
X0378218Y0239816D01*
X0376130Y0240681D01*
X0373870Y0240681D01*
X0371782Y0239816D01*
X0370184Y0238218D01*
X0369319Y0236130D01*
X0369319Y0233870D01*
X0370184Y0231782D01*
X0371782Y0230184D01*
X0372226Y0230000D01*
X0371782Y0229816D01*
X0370184Y0228218D01*
X0369319Y0226130D01*
X0369319Y0223870D01*
X0370184Y0221782D01*
X0371782Y0220184D01*
X0372226Y0220000D01*
X0371782Y0219816D01*
X0370184Y0218218D01*
X0369319Y0216130D01*
X0369319Y0213870D01*
X0370184Y0211782D01*
X0371782Y0210184D01*
X0372226Y0210000D01*
X0371782Y0209816D01*
X0370184Y0208218D01*
X0369319Y0206130D01*
X0369319Y0204614D01*
X0364581Y0209352D01*
X0364581Y0211898D01*
X0361898Y0214581D01*
X0358102Y0214581D01*
X0355419Y0211898D01*
X0355419Y0208514D01*
X0354424Y0209509D01*
X0354424Y0211898D01*
X0351740Y0214581D01*
X0347945Y0214581D01*
X0345295Y0211931D01*
X0342646Y0214581D01*
X0338850Y0214581D01*
X0336167Y0211898D01*
X0336167Y0208102D01*
X0337967Y0206302D01*
X0337967Y0204550D01*
X0337834Y0204550D01*
X0336452Y0203977D01*
X0335393Y0202919D01*
X0334820Y0201536D01*
X0334820Y0200039D01*
X0335393Y0198656D01*
X0336452Y0197598D01*
X0337098Y0197330D01*
X0335039Y0195271D01*
X0334256Y0194489D01*
X0333833Y0193467D01*
X0333833Y0186133D01*
X0332590Y0184798D01*
X0330228Y0184798D01*
X0327545Y0182114D01*
X0327545Y0178319D01*
X0328566Y0177298D01*
X0325228Y0177298D01*
X0322545Y0174614D01*
X0322545Y0170819D01*
X0325228Y0168135D01*
X0327774Y0168135D01*
X0330162Y0165747D01*
X0330944Y0164965D01*
X0331966Y0164542D01*
X0341368Y0164542D01*
X0341704Y0164206D01*
X0339080Y0161583D01*
X0339080Y0161076D01*
X0335124Y0156155D01*
X0333546Y0156155D01*
X0331660Y0155374D01*
X0330217Y0153930D01*
X0329517Y0152240D01*
X0329517Y0153074D01*
X0326617Y0155974D01*
X0324567Y0155974D01*
X0324567Y0151024D01*
X0324567Y0151024D01*
X0324567Y0155974D01*
X0322517Y0155974D01*
X0319617Y0153074D01*
X0319617Y0151024D01*
X0324567Y0151024D01*
X0324567Y0151024D01*
X0308819Y0151102D01*
X0305748Y0148031D01*
X0305748Y0143631D01*
X0305748Y0148031D01*
X0305748Y0148031D01*
X0301348Y0148031D01*
X0301348Y0146209D01*
X0303925Y0143631D01*
X0305748Y0143631D01*
X0307571Y0143631D01*
X0310148Y0146209D01*
X0310148Y0148031D01*
X0305748Y0148031D01*
X0305748Y0148032D01*
X0305748Y0152431D01*
X0303925Y0152431D01*
X0301348Y0149854D01*
X0301348Y0148032D01*
X0305748Y0148032D01*
X0305748Y0148032D01*
X0305748Y0152431D01*
X0307571Y0152431D01*
X0310148Y0149854D01*
X0310148Y0148032D01*
X0305748Y0148032D01*
X0305748Y0148031D01*
X0308031Y0148031D01*
X0314921Y0143110D01*
X0310521Y0143110D01*
X0310521Y0141288D01*
X0313099Y0138710D01*
X0314921Y0138710D01*
X0314921Y0143110D01*
X0314921Y0143110D01*
X0314921Y0143110D01*
X0310521Y0143110D01*
X0310521Y0144933D01*
X0313099Y0147510D01*
X0314921Y0147510D01*
X0314921Y0143110D01*
X0314921Y0138710D01*
X0316744Y0138710D01*
X0319321Y0141288D01*
X0319321Y0143110D01*
X0314921Y0143110D01*
X0317677Y0143110D01*
X0324803Y0126142D01*
X0324803Y0130542D01*
X0322981Y0130542D01*
X0320403Y0127964D01*
X0320403Y0126142D01*
X0324803Y0126142D01*
X0324803Y0126142D01*
X0324803Y0126142D01*
X0324803Y0130542D01*
X0326626Y0130542D01*
X0329203Y0127964D01*
X0329203Y0126142D01*
X0324803Y0126142D01*
X0330866Y0129921D01*
X0339488Y0129921D01*
X0334538Y0129921D01*
X0334538Y0127871D01*
X0335744Y0126665D01*
X0335039Y0126373D01*
X0333070Y0124405D01*
X0332288Y0123623D01*
X0331865Y0122600D01*
X0331865Y0113947D01*
X0331401Y0113484D01*
X0331401Y0105143D01*
X0329384Y0105143D01*
X0329384Y0108039D01*
X0326701Y0110723D01*
X0322906Y0110723D01*
X0320222Y0108039D01*
X0320222Y0105143D01*
X0315532Y0105143D01*
X0315123Y0105552D01*
X0313740Y0106124D01*
X0312244Y0106124D01*
X0310861Y0105552D01*
X0309803Y0104493D01*
X0309230Y0103111D01*
X0309230Y0101614D01*
X0309399Y0101206D01*
X0301970Y0101206D01*
X0302187Y0101429D01*
X0302247Y0101404D01*
X0304288Y0101404D01*
X0306174Y0102185D01*
X0307618Y0103629D01*
X0308399Y0105515D01*
X0308399Y0107556D01*
X0307618Y0109442D01*
X0306174Y0110885D01*
X0304921Y0111404D01*
X0305393Y0111404D01*
X0308399Y0114410D01*
X0308399Y0118661D01*
X0306538Y0120522D01*
X0307356Y0123450D01*
X0307646Y0123450D01*
X0310329Y0126134D01*
X0310329Y0129929D01*
X0307646Y0132613D01*
X0305100Y0132613D01*
X0301497Y0136216D01*
X0300474Y0136639D01*
X0281854Y0136639D01*
X0281665Y0136689D01*
X0281306Y0136639D01*
X0280943Y0136639D01*
X0280763Y0136565D01*
X0280569Y0136538D01*
X0280256Y0136355D01*
X0279921Y0136216D01*
X0279783Y0136078D01*
X0271254Y0131088D01*
X0267585Y0131088D01*
X0265366Y0133307D01*
X0268137Y0136078D01*
X0268137Y0138951D01*
X0285986Y0138951D01*
X0287008Y0139375D01*
X0287791Y0140157D01*
X0291728Y0144094D01*
X0292151Y0145116D01*
X0292151Y0145957D01*
X0294398Y0143710D01*
X0296220Y0143710D01*
X0296220Y0148110D01*
X0296221Y0148110D01*
X0296221Y0148110D01*
X0300620Y0148110D01*
X0300620Y0146288D01*
X0298043Y0143710D01*
X0296221Y0143710D01*
X0296221Y0148110D01*
X0300620Y0148110D01*
X0300620Y0149933D01*
X0298043Y0152510D01*
X0296221Y0152510D01*
X0296221Y0148110D01*
X0296220Y0148110D02*
X0295165Y0149165D01*
X0297198Y0164477D01*
X0297198Y0164477D01*
X0293686Y0160989D01*
X0295131Y0159534D01*
X0299231Y0159520D01*
X0300686Y0160965D01*
X0302141Y0162409D01*
X0302155Y0166510D01*
X0300711Y0167965D01*
X0297198Y0164477D01*
X0293710Y0167989D01*
X0292256Y0166545D01*
X0292241Y0162444D01*
X0293686Y0160989D01*
X0297198Y0164477D01*
X0297198Y0164477D01*
X0293710Y0167989D01*
X0295165Y0169434D01*
X0299266Y0169420D01*
X0300711Y0167965D01*
X0297198Y0164477D01*
X0297198Y0164477D01*
X0297198Y0164477D01*
X0300686Y0160965D01*
X0297198Y0164477D01*
X0297030Y0164647D02*
X0297030Y0164647D01*
X0297369Y0164647D02*
X0297369Y0164647D01*
X0298617Y0163048D02*
X0298617Y0163048D01*
X0300205Y0161450D02*
X0300205Y0161450D01*
X0301175Y0161450D02*
X0339080Y0161450D01*
X0338096Y0159851D02*
X0299565Y0159851D01*
X0302143Y0163048D02*
X0340546Y0163048D01*
X0342480Y0160866D02*
X0334567Y0151024D01*
X0338583Y0147008D01*
X0338583Y0143701D01*
X0335104Y0142268D02*
X0319321Y0142268D01*
X0319321Y0143110D02*
X0319321Y0144933D01*
X0316744Y0147510D01*
X0314921Y0147510D01*
X0314921Y0143110D01*
X0314921Y0143110D01*
X0314921Y0143110D01*
X0319321Y0143110D01*
X0319321Y0143866D02*
X0334820Y0143866D01*
X0334820Y0144449D02*
X0334820Y0142952D01*
X0335393Y0141570D01*
X0336452Y0140511D01*
X0337834Y0139939D01*
X0339331Y0139939D01*
X0340714Y0140511D01*
X0341772Y0141570D01*
X0342345Y0142952D01*
X0342345Y0144449D01*
X0341875Y0145583D01*
X0343518Y0143940D01*
X0343518Y0132892D01*
X0341539Y0134871D01*
X0339488Y0134871D01*
X0337438Y0134871D01*
X0334538Y0131972D01*
X0334538Y0129921D01*
X0339488Y0129921D01*
X0339488Y0129921D01*
X0339488Y0134871D01*
X0339488Y0129921D01*
X0339488Y0129921D01*
X0339488Y0131078D02*
X0339488Y0131078D01*
X0339488Y0132676D02*
X0339488Y0132676D01*
X0339488Y0134275D02*
X0339488Y0134275D01*
X0342135Y0134275D02*
X0343518Y0134275D01*
X0343518Y0135873D02*
X0301839Y0135873D01*
X0303438Y0134275D02*
X0336842Y0134275D01*
X0335243Y0132676D02*
X0305036Y0132676D01*
X0309180Y0131078D02*
X0334538Y0131078D01*
X0334538Y0129479D02*
X0327688Y0129479D01*
X0329203Y0127881D02*
X0334538Y0127881D01*
X0334948Y0126282D02*
X0329203Y0126282D01*
X0329203Y0126142D02*
X0324803Y0126142D01*
X0320403Y0126142D01*
X0320403Y0124319D01*
X0322981Y0121742D01*
X0324803Y0121742D01*
X0324803Y0126142D01*
X0324803Y0126142D01*
X0324803Y0126142D01*
X0324803Y0121742D01*
X0326626Y0121742D01*
X0329203Y0124319D01*
X0329203Y0126142D01*
X0329203Y0124684D02*
X0333349Y0124684D01*
X0333070Y0124405D02*
X0333070Y0124405D01*
X0332065Y0123085D02*
X0327969Y0123085D01*
X0324803Y0123085D02*
X0324803Y0123085D01*
X0324803Y0124684D02*
X0324803Y0124684D01*
X0324803Y0126282D02*
X0324803Y0126282D01*
X0324803Y0127881D02*
X0324803Y0127881D01*
X0324803Y0129479D02*
X0324803Y0129479D01*
X0321918Y0129479D02*
X0310329Y0129479D01*
X0310329Y0127881D02*
X0320403Y0127881D01*
X0320403Y0126282D02*
X0318228Y0126282D01*
X0319502Y0125008D02*
X0319502Y0123841D01*
X0319646Y0123841D01*
X0321029Y0123268D01*
X0322087Y0122210D01*
X0322660Y0120827D01*
X0322660Y0119330D01*
X0322087Y0117948D01*
X0321029Y0116889D01*
X0319646Y0116317D01*
X0318149Y0116317D01*
X0316767Y0116889D01*
X0315708Y0117948D01*
X0315467Y0118529D01*
X0313024Y0118529D01*
X0310340Y0121213D01*
X0310340Y0125008D01*
X0313024Y0127691D01*
X0316819Y0127691D01*
X0319502Y0125008D01*
X0319502Y0124684D02*
X0320403Y0124684D01*
X0321212Y0123085D02*
X0321637Y0123085D01*
X0322387Y0121487D02*
X0331865Y0121487D01*
X0331865Y0119888D02*
X0322660Y0119888D01*
X0322229Y0118290D02*
X0331865Y0118290D01*
X0331865Y0116691D02*
X0320551Y0116691D01*
X0318898Y0120079D02*
X0317953Y0120079D01*
X0314921Y0123110D01*
X0311664Y0119888D02*
X0307171Y0119888D01*
X0306807Y0121487D02*
X0310340Y0121487D01*
X0310340Y0123085D02*
X0307254Y0123085D01*
X0308879Y0124684D02*
X0310340Y0124684D01*
X0310329Y0126282D02*
X0311615Y0126282D01*
X0305748Y0128031D02*
X0299921Y0133858D01*
X0281496Y0133858D01*
X0272008Y0128307D01*
X0262756Y0128307D01*
X0265997Y0132676D02*
X0273969Y0132676D01*
X0276701Y0134275D02*
X0266334Y0134275D01*
X0267932Y0135873D02*
X0279433Y0135873D01*
X0286274Y0139070D02*
X0312738Y0139070D01*
X0314921Y0139070D02*
X0314921Y0139070D01*
X0314921Y0140669D02*
X0314921Y0140669D01*
X0314921Y0142268D02*
X0314921Y0142268D01*
X0314921Y0143866D02*
X0314921Y0143866D01*
X0314921Y0145465D02*
X0314921Y0145465D01*
X0314921Y0147063D02*
X0314921Y0147063D01*
X0312652Y0147063D02*
X0310148Y0147063D01*
X0310148Y0148662D02*
X0319929Y0148662D01*
X0319617Y0148973D02*
X0319617Y0151024D01*
X0324567Y0151024D01*
X0324567Y0151023D02*
X0324567Y0146074D01*
X0326617Y0146074D01*
X0329517Y0148973D01*
X0329517Y0149807D01*
X0330217Y0148117D01*
X0331660Y0146674D01*
X0333546Y0145893D01*
X0335454Y0145893D01*
X0335393Y0145832D01*
X0334820Y0144449D01*
X0335241Y0145465D02*
X0318789Y0145465D01*
X0317191Y0147063D02*
X0321527Y0147063D01*
X0322517Y0146074D02*
X0319617Y0148973D01*
X0319617Y0150260D02*
X0309742Y0150260D01*
X0308143Y0151859D02*
X0319617Y0151859D01*
X0320000Y0153457D02*
X0289452Y0153457D01*
X0290945Y0151964D02*
X0287008Y0155901D01*
X0285986Y0156324D01*
X0260994Y0156324D01*
X0259474Y0157845D01*
X0259474Y0164709D01*
X0259614Y0164709D01*
X0260774Y0165870D01*
X0260774Y0176011D01*
X0259614Y0177171D01*
X0259487Y0177171D01*
X0259487Y0177878D01*
X0258941Y0179194D01*
X0257934Y0180201D01*
X0254903Y0183233D01*
X0253586Y0183778D01*
X0242494Y0183778D01*
X0240944Y0185328D01*
X0236694Y0185328D01*
X0233688Y0182322D01*
X0233688Y0181850D01*
X0233169Y0183103D01*
X0231725Y0184547D01*
X0229840Y0185328D01*
X0227798Y0185328D01*
X0225912Y0184547D01*
X0225144Y0183778D01*
X0215408Y0183778D01*
X0213858Y0185328D01*
X0210796Y0185328D01*
X0214962Y0189493D01*
X0215787Y0189151D01*
X0217284Y0189151D01*
X0218667Y0189724D01*
X0219725Y0190782D01*
X0220298Y0192165D01*
X0220298Y0193420D02*
X0246011Y0193420D01*
X0244654Y0195018D02*
X0219736Y0195018D01*
X0218125Y0196617D02*
X0217425Y0196617D01*
X0216836Y0198215D02*
X0216473Y0198215D01*
X0216473Y0199814D02*
X0216836Y0199814D01*
X0216836Y0201412D02*
X0216473Y0201412D01*
X0216473Y0203011D02*
X0217128Y0203011D01*
X0217128Y0204609D02*
X0216473Y0204609D01*
X0216473Y0206208D02*
X0217128Y0206208D01*
X0224290Y0206208D02*
X0229948Y0206208D01*
X0228350Y0207806D02*
X0225290Y0207806D01*
X0225290Y0209405D02*
X0226751Y0209405D01*
X0224290Y0204609D02*
X0231547Y0204609D01*
X0233145Y0203011D02*
X0224688Y0203011D01*
X0225998Y0201412D02*
X0234744Y0201412D01*
X0236342Y0199814D02*
X0225998Y0199814D01*
X0225998Y0198215D02*
X0236836Y0198215D01*
X0238125Y0196617D02*
X0224710Y0196617D01*
X0215645Y0196617D02*
X0198072Y0196617D01*
X0199152Y0197570D02*
X0199487Y0197235D01*
X0199897Y0196998D01*
X0200355Y0196876D01*
X0202592Y0196876D01*
X0202592Y0202676D01*
X0198792Y0202676D01*
X0198792Y0198439D01*
X0198915Y0197981D01*
X0199152Y0197570D01*
X0198852Y0198215D02*
X0198273Y0198215D01*
X0198273Y0199814D02*
X0198792Y0199814D01*
X0198792Y0201412D02*
X0198273Y0201412D01*
X0198273Y0203011D02*
X0202592Y0203011D01*
X0202592Y0202676D02*
X0202592Y0203476D01*
X0202592Y0209276D01*
X0200355Y0209276D01*
X0199897Y0209153D01*
X0199487Y0208916D01*
X0199152Y0208581D01*
X0198915Y0208170D01*
X0198792Y0207713D01*
X0198792Y0203476D01*
X0202592Y0203476D01*
X0203392Y0203476D01*
X0203392Y0209276D01*
X0205629Y0209276D01*
X0206087Y0209153D01*
X0206497Y0208916D01*
X0206832Y0208581D01*
X0207069Y0208170D01*
X0207192Y0207713D01*
X0207192Y0203476D01*
X0203392Y0203476D01*
X0203392Y0202676D01*
X0207192Y0202676D01*
X0207192Y0198439D01*
X0207069Y0197981D01*
X0206832Y0197570D01*
X0206497Y0197235D01*
X0206087Y0196998D01*
X0205629Y0196876D01*
X0203392Y0196876D01*
X0203392Y0202676D01*
X0202592Y0202676D01*
X0202992Y0203076D02*
X0202992Y0194646D01*
X0204724Y0192913D01*
X0207825Y0190223D02*
X0199399Y0190223D01*
X0199067Y0191821D02*
X0209424Y0191821D01*
X0211022Y0193420D02*
X0198736Y0193420D01*
X0198404Y0195018D02*
X0212621Y0195018D01*
X0207711Y0198215D02*
X0207132Y0198215D01*
X0207192Y0199814D02*
X0207711Y0199814D01*
X0207711Y0201412D02*
X0207192Y0201412D01*
X0207711Y0203011D02*
X0203392Y0203011D01*
X0203392Y0204609D02*
X0202592Y0204609D01*
X0202592Y0206208D02*
X0203392Y0206208D01*
X0203392Y0207806D02*
X0202592Y0207806D01*
X0198817Y0207806D02*
X0198273Y0207806D01*
X0198273Y0206208D02*
X0198792Y0206208D01*
X0198792Y0204609D02*
X0198273Y0204609D01*
X0193892Y0203076D02*
X0197829Y0184100D01*
X0201732Y0180197D01*
X0188740Y0176260D01*
X0185000Y0180000D01*
X0179775Y0182230D02*
X0175209Y0182230D01*
X0175209Y0180632D02*
X0179319Y0180632D01*
X0179319Y0179033D02*
X0175209Y0179033D01*
X0175209Y0177435D02*
X0179913Y0177435D01*
X0181129Y0175836D02*
X0175209Y0175836D01*
X0175209Y0174238D02*
X0181203Y0174238D01*
X0179944Y0172639D02*
X0175209Y0172639D01*
X0175209Y0171041D02*
X0179319Y0171041D01*
X0179319Y0169442D02*
X0175209Y0169442D01*
X0175209Y0167844D02*
X0179744Y0167844D01*
X0180721Y0166245D02*
X0175209Y0166245D01*
X0175209Y0164647D02*
X0182038Y0164647D01*
X0180416Y0163048D02*
X0175209Y0163048D01*
X0175209Y0161450D02*
X0179688Y0161450D01*
X0179785Y0158253D02*
X0175209Y0158253D01*
X0175209Y0159851D02*
X0184800Y0159851D01*
X0185000Y0160000D02*
X0190586Y0160000D01*
X0199370Y0160000D01*
X0204724Y0165354D01*
X0208302Y0167844D02*
X0190256Y0167844D01*
X0190681Y0169442D02*
X0206703Y0169442D01*
X0202979Y0171041D02*
X0190681Y0171041D01*
X0190056Y0172639D02*
X0201380Y0172639D01*
X0199782Y0174238D02*
X0191657Y0174238D01*
X0196932Y0175836D02*
X0198851Y0175836D01*
X0200435Y0185427D02*
X0203030Y0185427D01*
X0204628Y0187026D02*
X0200062Y0187026D01*
X0199731Y0188624D02*
X0206227Y0188624D01*
X0210896Y0185427D02*
X0263112Y0185427D01*
X0263112Y0183829D02*
X0242443Y0183829D01*
X0246011Y0188624D02*
X0214093Y0188624D01*
X0212494Y0187026D02*
X0263112Y0187026D01*
X0263112Y0182230D02*
X0255905Y0182230D01*
X0257504Y0180632D02*
X0263112Y0180632D01*
X0263112Y0179033D02*
X0259008Y0179033D01*
X0259487Y0177435D02*
X0263112Y0177435D01*
X0262612Y0175836D02*
X0260774Y0175836D01*
X0260774Y0174238D02*
X0262612Y0174238D01*
X0262612Y0172639D02*
X0260774Y0172639D01*
X0260774Y0171041D02*
X0262612Y0171041D01*
X0262612Y0169442D02*
X0260774Y0169442D01*
X0260774Y0167844D02*
X0262612Y0167844D01*
X0262612Y0166245D02*
X0260774Y0166245D01*
X0259474Y0164647D02*
X0292249Y0164647D01*
X0292255Y0166245D02*
X0280537Y0166245D01*
X0280593Y0166453D02*
X0280593Y0170690D01*
X0276943Y0170690D01*
X0276943Y0164890D01*
X0279030Y0164890D01*
X0279488Y0165013D01*
X0279898Y0165250D01*
X0280233Y0165585D01*
X0280470Y0165995D01*
X0280593Y0166453D01*
X0280593Y0167844D02*
X0293564Y0167844D01*
X0293855Y0167844D02*
X0293855Y0167844D01*
X0295442Y0166245D02*
X0295443Y0166245D01*
X0295759Y0163048D02*
X0295760Y0163048D01*
X0294150Y0161450D02*
X0294150Y0161450D01*
X0293229Y0161450D02*
X0259474Y0161450D01*
X0259474Y0163048D02*
X0292243Y0163048D01*
X0294816Y0159851D02*
X0259474Y0159851D01*
X0259474Y0158253D02*
X0336811Y0158253D01*
X0335525Y0156654D02*
X0260665Y0156654D01*
X0259843Y0153543D02*
X0285433Y0153543D01*
X0289370Y0149606D01*
X0289370Y0145669D01*
X0285433Y0141732D01*
X0266181Y0141732D01*
X0262756Y0138307D01*
X0268137Y0137472D02*
X0343518Y0137472D01*
X0343518Y0139070D02*
X0317104Y0139070D01*
X0318703Y0140669D02*
X0336294Y0140669D01*
X0340871Y0140669D02*
X0343518Y0140669D01*
X0343518Y0142268D02*
X0342061Y0142268D01*
X0342345Y0143866D02*
X0343518Y0143866D01*
X0341994Y0145465D02*
X0341924Y0145465D01*
X0346299Y0147638D02*
X0346299Y0133110D01*
X0349488Y0129921D01*
X0349488Y0127047D01*
X0346457Y0124016D01*
X0336614Y0124016D01*
X0334646Y0122047D01*
X0334646Y0109883D01*
X0335782Y0108263D01*
X0331401Y0108699D02*
X0328725Y0108699D01*
X0329384Y0107100D02*
X0331401Y0107100D01*
X0331401Y0105502D02*
X0329384Y0105502D01*
X0326772Y0102362D02*
X0340551Y0102362D01*
X0342520Y0104331D01*
X0344882Y0108263D01*
X0351620Y0105557D02*
X0344488Y0098425D01*
X0324803Y0098425D01*
X0320866Y0102362D01*
X0312992Y0102362D01*
X0309230Y0102305D02*
X0306293Y0102305D01*
X0307731Y0103903D02*
X0309558Y0103903D01*
X0308393Y0105502D02*
X0310811Y0105502D01*
X0308399Y0107100D02*
X0320222Y0107100D01*
X0320222Y0105502D02*
X0315173Y0105502D01*
X0320882Y0108699D02*
X0307925Y0108699D01*
X0306762Y0110297D02*
X0322480Y0110297D01*
X0327126Y0110297D02*
X0331401Y0110297D01*
X0331401Y0111896D02*
X0305885Y0111896D01*
X0307483Y0113494D02*
X0331412Y0113494D01*
X0331865Y0115093D02*
X0308399Y0115093D01*
X0308399Y0116691D02*
X0317244Y0116691D01*
X0315566Y0118290D02*
X0308399Y0118290D01*
X0303780Y0120984D02*
X0305748Y0128031D01*
X0303780Y0120984D02*
X0303268Y0116535D01*
X0303268Y0106535D02*
X0299331Y0102480D01*
X0299213Y0102362D01*
X0269685Y0102362D01*
X0259843Y0092520D01*
X0253937Y0092520D01*
X0251969Y0090551D01*
X0251969Y0084646D01*
X0250000Y0082677D01*
X0247854Y0082677D01*
X0241673Y0076496D01*
X0236715Y0078327D02*
X0230577Y0078327D01*
X0230355Y0077790D02*
X0230928Y0079173D01*
X0230928Y0080670D01*
X0230355Y0082052D01*
X0229296Y0083111D01*
X0227914Y0083683D01*
X0226417Y0083683D01*
X0225034Y0083111D01*
X0223976Y0082052D01*
X0223403Y0080670D01*
X0223403Y0079173D01*
X0223976Y0077790D01*
X0225034Y0076732D01*
X0226417Y0076159D01*
X0227914Y0076159D01*
X0229296Y0076732D01*
X0230355Y0077790D01*
X0229289Y0076729D02*
X0236392Y0076729D01*
X0236523Y0075130D02*
X0218657Y0075130D01*
X0219580Y0076729D02*
X0225042Y0076729D01*
X0223754Y0078327D02*
X0220235Y0078327D01*
X0220663Y0079926D02*
X0223403Y0079926D01*
X0223757Y0081524D02*
X0220820Y0081524D01*
X0220820Y0083123D02*
X0225063Y0083123D01*
X0229268Y0083123D02*
X0233416Y0083123D01*
X0231729Y0084721D02*
X0220536Y0084721D01*
X0220108Y0086320D02*
X0231067Y0086320D01*
X0230939Y0087918D02*
X0219306Y0087918D01*
X0218352Y0089517D02*
X0230448Y0089517D01*
X0228849Y0091115D02*
X0216754Y0091115D01*
X0214394Y0092714D02*
X0227665Y0092714D01*
X0227534Y0094312D02*
X0188722Y0094312D01*
X0188945Y0095911D02*
X0199591Y0095911D01*
X0203283Y0092714D02*
X0190025Y0092714D01*
X0190681Y0091115D02*
X0200923Y0091115D01*
X0199325Y0089517D02*
X0190681Y0089517D01*
X0190287Y0087918D02*
X0198371Y0087918D01*
X0197569Y0086320D02*
X0189354Y0086320D01*
X0188313Y0084721D02*
X0197141Y0084721D01*
X0196857Y0083123D02*
X0189856Y0083123D01*
X0190518Y0081524D02*
X0196857Y0081524D01*
X0197014Y0079926D02*
X0190681Y0079926D01*
X0190456Y0078327D02*
X0197442Y0078327D01*
X0198097Y0076729D02*
X0189763Y0076729D01*
X0188088Y0075130D02*
X0199020Y0075130D01*
X0200450Y0073532D02*
X0175209Y0073532D01*
X0175209Y0075130D02*
X0181912Y0075130D01*
X0180237Y0076729D02*
X0175209Y0076729D01*
X0175209Y0078327D02*
X0179544Y0078327D01*
X0179319Y0079926D02*
X0175209Y0079926D01*
X0175209Y0081524D02*
X0179482Y0081524D01*
X0180144Y0083123D02*
X0175209Y0083123D01*
X0175209Y0084721D02*
X0181687Y0084721D01*
X0180646Y0086320D02*
X0175209Y0086320D01*
X0175209Y0087918D02*
X0179713Y0087918D01*
X0179319Y0089517D02*
X0175209Y0089517D01*
X0175209Y0091115D02*
X0179319Y0091115D01*
X0179975Y0092714D02*
X0175209Y0092714D01*
X0175209Y0094312D02*
X0181278Y0094312D01*
X0181055Y0095911D02*
X0175209Y0095911D01*
X0175209Y0097509D02*
X0179883Y0097509D01*
X0179319Y0099108D02*
X0175209Y0099108D01*
X0175209Y0100706D02*
X0179319Y0100706D01*
X0179805Y0102305D02*
X0175209Y0102305D01*
X0175209Y0103903D02*
X0180869Y0103903D01*
X0181464Y0105502D02*
X0175209Y0105502D01*
X0175209Y0107100D02*
X0180052Y0107100D01*
X0179390Y0108699D02*
X0175209Y0108699D01*
X0175209Y0110297D02*
X0179319Y0110297D01*
X0179636Y0111896D02*
X0175209Y0111896D01*
X0175209Y0113494D02*
X0180460Y0113494D01*
X0182002Y0115093D02*
X0175209Y0115093D01*
X0175209Y0116691D02*
X0180274Y0116691D01*
X0179559Y0118290D02*
X0175209Y0118290D01*
X0175209Y0119888D02*
X0179319Y0119888D01*
X0179467Y0121487D02*
X0175209Y0121487D01*
X0175209Y0123085D02*
X0180129Y0123085D01*
X0181650Y0124684D02*
X0175209Y0124684D01*
X0175209Y0126282D02*
X0180683Y0126282D01*
X0179729Y0127881D02*
X0175209Y0127881D01*
X0175209Y0129479D02*
X0179319Y0129479D01*
X0179319Y0131078D02*
X0175209Y0131078D01*
X0175209Y0132676D02*
X0179959Y0132676D01*
X0181241Y0134275D02*
X0175209Y0134275D01*
X0175209Y0135873D02*
X0184227Y0135873D01*
X0184720Y0137472D02*
X0175209Y0137472D01*
X0175209Y0139070D02*
X0186319Y0139070D01*
X0187917Y0140669D02*
X0175209Y0140669D01*
X0175209Y0142268D02*
X0189516Y0142268D01*
X0191114Y0143866D02*
X0175209Y0143866D01*
X0175209Y0145465D02*
X0181501Y0145465D01*
X0180067Y0147063D02*
X0175209Y0147063D01*
X0175209Y0148662D02*
X0179405Y0148662D01*
X0179319Y0150260D02*
X0175209Y0150260D01*
X0175209Y0151859D02*
X0179621Y0151859D01*
X0180423Y0153457D02*
X0175209Y0153457D01*
X0175209Y0155056D02*
X0182360Y0155056D01*
X0180633Y0156654D02*
X0175209Y0156654D01*
X0185200Y0159851D02*
X0202428Y0159851D01*
X0200829Y0158253D02*
X0190215Y0158253D01*
X0190586Y0160000D02*
X0204252Y0146334D01*
X0204252Y0146334D01*
X0204267Y0150734D01*
X0204252Y0146334D01*
X0204252Y0146334D01*
X0204254Y0147063D02*
X0204255Y0147063D01*
X0204260Y0148662D02*
X0204260Y0148662D01*
X0204266Y0150260D02*
X0204266Y0150260D01*
X0206554Y0150260D02*
X0207849Y0150260D01*
X0207849Y0151859D02*
X0207392Y0151859D01*
X0210630Y0153543D02*
X0208661Y0155512D01*
X0204567Y0155512D01*
X0201742Y0151859D02*
X0190379Y0151859D01*
X0190681Y0150260D02*
X0201961Y0150260D01*
X0200351Y0148662D02*
X0190595Y0148662D01*
X0189933Y0147063D02*
X0199855Y0147063D01*
X0201831Y0142268D02*
X0202089Y0142268D01*
X0206401Y0142268D02*
X0207849Y0142268D01*
X0207849Y0140669D02*
X0206971Y0140669D01*
X0204252Y0135873D02*
X0204252Y0135873D01*
X0204252Y0134275D02*
X0204252Y0134275D01*
X0207584Y0134275D02*
X0207849Y0134275D01*
X0207484Y0132676D02*
X0190041Y0132676D01*
X0189789Y0134275D02*
X0200920Y0134275D01*
X0199852Y0135873D02*
X0190988Y0135873D01*
X0192586Y0137472D02*
X0194381Y0137472D01*
X0193228Y0142047D02*
X0187008Y0135827D01*
X0187008Y0132008D01*
X0185000Y0130000D01*
X0187047Y0127953D01*
X0206693Y0127953D01*
X0210630Y0131890D01*
X0210630Y0153543D01*
X0213411Y0153457D02*
X0220143Y0153457D01*
X0219986Y0155056D02*
X0213014Y0155056D01*
X0211452Y0156654D02*
X0219492Y0156654D01*
X0217893Y0158253D02*
X0209312Y0158253D01*
X0206706Y0159851D02*
X0216295Y0159851D01*
X0214696Y0161450D02*
X0190312Y0161450D01*
X0189584Y0163048D02*
X0213098Y0163048D01*
X0211499Y0164647D02*
X0187962Y0164647D01*
X0189279Y0166245D02*
X0209900Y0166245D01*
X0199986Y0156654D02*
X0189367Y0156654D01*
X0187640Y0155056D02*
X0199986Y0155056D01*
X0200143Y0153457D02*
X0189577Y0153457D01*
X0188499Y0145465D02*
X0193223Y0145465D01*
X0193228Y0142047D02*
X0196850Y0142047D01*
X0199319Y0137472D02*
X0199852Y0137472D01*
X0205885Y0131078D02*
X0190681Y0131078D01*
X0188350Y0124684D02*
X0209609Y0124684D01*
X0210105Y0126282D02*
X0208956Y0126282D01*
X0208011Y0123085D02*
X0189871Y0123085D01*
X0190533Y0121487D02*
X0206412Y0121487D01*
X0204814Y0119888D02*
X0190681Y0119888D01*
X0190441Y0118290D02*
X0203225Y0118290D01*
X0202809Y0116691D02*
X0189726Y0116691D01*
X0187998Y0115093D02*
X0202809Y0115093D01*
X0202809Y0113494D02*
X0189540Y0113494D01*
X0190364Y0111896D02*
X0202809Y0111896D01*
X0202809Y0110297D02*
X0190681Y0110297D01*
X0190610Y0108699D02*
X0202809Y0108699D01*
X0202511Y0107100D02*
X0189948Y0107100D01*
X0188536Y0105502D02*
X0193261Y0105502D01*
X0191869Y0103903D02*
X0189131Y0103903D01*
X0190195Y0102305D02*
X0191869Y0102305D01*
X0191869Y0100706D02*
X0190681Y0100706D01*
X0190681Y0099108D02*
X0192746Y0099108D01*
X0194344Y0097509D02*
X0190117Y0097509D01*
X0200440Y0105502D02*
X0201009Y0105502D01*
X0205591Y0103701D02*
X0205591Y0116732D01*
X0215236Y0126378D01*
X0226890Y0126378D01*
X0232756Y0128307D01*
X0224252Y0136811D01*
X0224252Y0137165D01*
X0221277Y0140669D02*
X0213411Y0140669D01*
X0213411Y0139070D02*
X0219678Y0139070D01*
X0219671Y0137472D02*
X0213411Y0137472D01*
X0213411Y0135873D02*
X0219671Y0135873D01*
X0220664Y0134275D02*
X0213411Y0134275D01*
X0213411Y0132676D02*
X0222262Y0132676D01*
X0226052Y0131078D02*
X0217793Y0131078D01*
X0219391Y0129479D02*
X0227375Y0129479D01*
X0232756Y0138307D02*
X0226767Y0144296D01*
X0224252Y0146264D01*
X0221765Y0142268D02*
X0213411Y0142268D01*
X0213411Y0143866D02*
X0220177Y0143866D01*
X0219668Y0145465D02*
X0213411Y0145465D01*
X0213411Y0147063D02*
X0219674Y0147063D01*
X0220165Y0148662D02*
X0213411Y0148662D01*
X0213411Y0150260D02*
X0221774Y0150260D01*
X0221742Y0151859D02*
X0213411Y0151859D01*
X0226740Y0150260D02*
X0236435Y0150260D01*
X0235514Y0148662D02*
X0228327Y0148662D01*
X0228836Y0147063D02*
X0234593Y0147063D01*
X0233671Y0145465D02*
X0229532Y0145465D01*
X0231130Y0143866D02*
X0232750Y0143866D01*
X0232756Y0138307D02*
X0240630Y0151969D01*
X0239764Y0157874D01*
X0236924Y0153457D02*
X0232193Y0153457D01*
X0233792Y0155056D02*
X0235326Y0155056D01*
X0237357Y0151859D02*
X0227392Y0151859D01*
X0242939Y0142268D02*
X0253124Y0142268D01*
X0253124Y0143866D02*
X0244256Y0143866D01*
X0245854Y0145465D02*
X0253124Y0145465D01*
X0253473Y0147063D02*
X0247328Y0147063D01*
X0247663Y0148662D02*
X0254965Y0148662D01*
X0254932Y0150260D02*
X0247663Y0150260D01*
X0247663Y0151859D02*
X0252903Y0151859D01*
X0256693Y0156693D02*
X0259843Y0153543D01*
X0256693Y0156693D02*
X0256693Y0170940D01*
X0249764Y0157874D02*
X0259055Y0150551D01*
X0259055Y0148819D01*
X0282835Y0148819D01*
X0287854Y0155056D02*
X0321599Y0155056D01*
X0324567Y0155056D02*
X0324567Y0155056D01*
X0324567Y0153457D02*
X0324567Y0153457D01*
X0324567Y0151859D02*
X0324567Y0151859D01*
X0324567Y0151023D02*
X0324567Y0151023D01*
X0324567Y0146074D01*
X0322517Y0146074D01*
X0324567Y0147063D02*
X0324567Y0147063D01*
X0324567Y0148662D02*
X0324567Y0148662D01*
X0324567Y0150260D02*
X0324567Y0150260D01*
X0327607Y0147063D02*
X0331271Y0147063D01*
X0329991Y0148662D02*
X0329205Y0148662D01*
X0329134Y0153457D02*
X0330021Y0153457D01*
X0331342Y0155056D02*
X0327535Y0155056D01*
X0331713Y0164647D02*
X0302149Y0164647D01*
X0302155Y0166245D02*
X0329664Y0166245D01*
X0328066Y0167844D02*
X0300831Y0167844D01*
X0300589Y0167844D02*
X0300589Y0167844D01*
X0298979Y0166245D02*
X0298979Y0166245D01*
X0303177Y0171041D02*
X0276943Y0171041D01*
X0276943Y0171190D02*
X0280593Y0171190D01*
X0280593Y0175427D01*
X0280470Y0175885D01*
X0280233Y0176295D01*
X0279898Y0176631D01*
X0279488Y0176867D01*
X0279030Y0176990D01*
X0276943Y0176990D01*
X0276943Y0171190D01*
X0276943Y0170690D01*
X0276443Y0170690D01*
X0276443Y0164890D01*
X0274356Y0164890D01*
X0273898Y0165013D01*
X0273488Y0165250D01*
X0273153Y0165585D01*
X0272916Y0165995D01*
X0272793Y0166453D01*
X0272793Y0170690D01*
X0276443Y0170690D01*
X0276443Y0171190D01*
X0272793Y0171190D01*
X0272793Y0175427D01*
X0272916Y0175885D01*
X0273153Y0176295D01*
X0273488Y0176631D01*
X0273898Y0176867D01*
X0274356Y0176990D01*
X0276443Y0176990D01*
X0276443Y0171190D01*
X0276943Y0171190D01*
X0276693Y0170940D02*
X0275591Y0169838D01*
X0275591Y0161417D01*
X0276443Y0166245D02*
X0276943Y0166245D01*
X0276943Y0167844D02*
X0276443Y0167844D01*
X0276443Y0169442D02*
X0276943Y0169442D01*
X0276443Y0171041D02*
X0270774Y0171041D01*
X0270774Y0172639D02*
X0272793Y0172639D01*
X0272793Y0174238D02*
X0270774Y0174238D01*
X0270774Y0175836D02*
X0272903Y0175836D01*
X0270274Y0177435D02*
X0302969Y0177435D01*
X0303551Y0179033D02*
X0270274Y0179033D01*
X0270274Y0180632D02*
X0303551Y0180632D01*
X0303551Y0182230D02*
X0270274Y0182230D01*
X0270274Y0183829D02*
X0303551Y0183829D01*
X0303551Y0185427D02*
X0270274Y0185427D01*
X0270274Y0187026D02*
X0303551Y0187026D01*
X0303551Y0188624D02*
X0287375Y0188624D01*
X0287375Y0190223D02*
X0303551Y0190223D01*
X0303551Y0191821D02*
X0287375Y0191821D01*
X0287375Y0193420D02*
X0303506Y0193420D01*
X0304127Y0195018D02*
X0287375Y0195018D01*
X0287375Y0196617D02*
X0309663Y0196617D01*
X0309567Y0196830D02*
X0309567Y0201779D01*
X0309567Y0201779D01*
X0309567Y0201780D01*
X0309567Y0201780D01*
X0309567Y0206730D01*
X0309956Y0206730D01*
X0310726Y0206608D01*
X0311467Y0206367D01*
X0312161Y0206013D01*
X0312792Y0205555D01*
X0313343Y0205004D01*
X0313801Y0204374D01*
X0314154Y0203680D01*
X0314395Y0202939D01*
X0314517Y0202169D01*
X0314517Y0201780D01*
X0309567Y0201780D01*
X0309567Y0206730D01*
X0309177Y0206730D01*
X0308408Y0206608D01*
X0307667Y0206367D01*
X0306973Y0206013D01*
X0306342Y0205555D01*
X0305791Y0205004D01*
X0305333Y0204374D01*
X0304980Y0203680D01*
X0304739Y0202939D01*
X0304617Y0202169D01*
X0304617Y0201780D01*
X0309567Y0201780D01*
X0309567Y0201779D01*
X0304617Y0201779D01*
X0304617Y0201390D01*
X0304739Y0200620D01*
X0304980Y0199879D01*
X0305333Y0199185D01*
X0305791Y0198555D01*
X0306342Y0198004D01*
X0306973Y0197546D01*
X0307667Y0197192D01*
X0308408Y0196951D01*
X0309177Y0196830D01*
X0309567Y0196830D01*
X0309567Y0198215D02*
X0309567Y0198215D01*
X0309567Y0199814D02*
X0309567Y0199814D01*
X0309567Y0201412D02*
X0309567Y0201412D01*
X0309567Y0203011D02*
X0309567Y0203011D01*
X0309567Y0204609D02*
X0309567Y0204609D01*
X0309567Y0206208D02*
X0309567Y0206208D01*
X0311779Y0206208D02*
X0315317Y0206208D01*
X0315317Y0207806D02*
X0287375Y0207806D01*
X0287375Y0206208D02*
X0307355Y0206208D01*
X0305504Y0204609D02*
X0287375Y0204609D01*
X0287375Y0203011D02*
X0304762Y0203011D01*
X0304617Y0201412D02*
X0287375Y0201412D01*
X0287375Y0199814D02*
X0305013Y0199814D01*
X0306131Y0198215D02*
X0287375Y0198215D01*
X0287375Y0209405D02*
X0315317Y0209405D01*
X0315317Y0211003D02*
X0312047Y0211003D01*
X0313646Y0212602D02*
X0315317Y0212602D01*
X0315317Y0214201D02*
X0314698Y0214201D01*
X0314698Y0215799D02*
X0315317Y0215799D01*
X0315317Y0217398D02*
X0314698Y0217398D01*
X0315310Y0218996D02*
X0313607Y0218996D01*
X0313711Y0220595D02*
X0312008Y0220595D01*
X0317997Y0226438D02*
X0317997Y0226438D01*
X0317446Y0226989D02*
X0369675Y0226989D01*
X0369319Y0225390D02*
X0319044Y0225390D01*
X0320643Y0223792D02*
X0369351Y0223792D01*
X0370013Y0222193D02*
X0322061Y0222193D01*
X0322479Y0220595D02*
X0371371Y0220595D01*
X0370962Y0218996D02*
X0322479Y0218996D01*
X0322479Y0217398D02*
X0369844Y0217398D01*
X0369319Y0215799D02*
X0322479Y0215799D01*
X0322479Y0214201D02*
X0338470Y0214201D01*
X0336871Y0212602D02*
X0322479Y0212602D01*
X0322479Y0211003D02*
X0336167Y0211003D01*
X0336167Y0209405D02*
X0322479Y0209405D01*
X0322479Y0207806D02*
X0336463Y0207806D01*
X0337967Y0206208D02*
X0322479Y0206208D01*
X0322479Y0204609D02*
X0337967Y0204609D01*
X0335486Y0203011D02*
X0322479Y0203011D01*
X0322479Y0201412D02*
X0334820Y0201412D01*
X0334914Y0199814D02*
X0322371Y0199814D01*
X0321390Y0198215D02*
X0335834Y0198215D01*
X0336385Y0196617D02*
X0319792Y0196617D01*
X0318193Y0195018D02*
X0334786Y0195018D01*
X0333833Y0193420D02*
X0316595Y0193420D01*
X0314996Y0191821D02*
X0333833Y0191821D01*
X0333833Y0190223D02*
X0313398Y0190223D01*
X0310713Y0188624D02*
X0333833Y0188624D01*
X0333833Y0187026D02*
X0323413Y0187026D01*
X0323662Y0186777D02*
X0322604Y0187835D01*
X0321221Y0188408D01*
X0319724Y0188408D01*
X0318341Y0187835D01*
X0317283Y0186777D01*
X0316710Y0185394D01*
X0316710Y0183897D01*
X0317283Y0182515D01*
X0318341Y0181456D01*
X0319724Y0180883D01*
X0321221Y0180883D01*
X0322604Y0181456D01*
X0323662Y0182515D01*
X0324235Y0183897D01*
X0324235Y0185394D01*
X0323662Y0186777D01*
X0324221Y0185427D02*
X0333176Y0185427D01*
X0336614Y0185039D02*
X0336614Y0192913D01*
X0340551Y0196850D01*
X0344488Y0196850D01*
X0349843Y0190000D01*
X0340748Y0190000D02*
X0340551Y0179134D01*
X0337126Y0172717D01*
X0344488Y0177165D01*
X0350394Y0177165D01*
X0359291Y0172677D01*
X0364173Y0167323D02*
X0364173Y0160197D01*
X0363661Y0159685D01*
X0367109Y0156654D02*
X0383846Y0156654D01*
X0383846Y0155056D02*
X0377640Y0155056D01*
X0379577Y0153457D02*
X0383846Y0153457D01*
X0383846Y0151859D02*
X0380379Y0151859D01*
X0380681Y0150260D02*
X0383846Y0150260D01*
X0383846Y0148662D02*
X0380595Y0148662D01*
X0379933Y0147063D02*
X0383846Y0147063D01*
X0383846Y0145465D02*
X0378499Y0145465D01*
X0379168Y0143866D02*
X0383846Y0143866D01*
X0383846Y0142268D02*
X0380210Y0142268D01*
X0380681Y0140669D02*
X0383846Y0140669D01*
X0383846Y0139070D02*
X0380681Y0139070D01*
X0380102Y0137472D02*
X0383846Y0137472D01*
X0383846Y0135873D02*
X0378908Y0135873D01*
X0378759Y0134275D02*
X0383846Y0134275D01*
X0383846Y0132676D02*
X0380041Y0132676D01*
X0380681Y0131078D02*
X0383846Y0131078D01*
X0383846Y0129479D02*
X0380681Y0129479D01*
X0380271Y0127881D02*
X0383846Y0127881D01*
X0383846Y0126282D02*
X0379317Y0126282D01*
X0378350Y0124684D02*
X0383846Y0124684D01*
X0383846Y0123085D02*
X0379871Y0123085D01*
X0380533Y0121487D02*
X0383846Y0121487D01*
X0383846Y0119888D02*
X0380681Y0119888D01*
X0380441Y0118290D02*
X0383846Y0118290D01*
X0383846Y0116691D02*
X0379726Y0116691D01*
X0377998Y0115093D02*
X0383846Y0115093D01*
X0383846Y0113494D02*
X0379540Y0113494D01*
X0380364Y0111896D02*
X0383846Y0111896D01*
X0383846Y0110297D02*
X0380681Y0110297D01*
X0380610Y0108699D02*
X0383846Y0108699D01*
X0383846Y0107100D02*
X0379948Y0107100D01*
X0378536Y0105502D02*
X0383846Y0105502D01*
X0383846Y0103903D02*
X0379131Y0103903D01*
X0380195Y0102305D02*
X0383846Y0102305D01*
X0383846Y0100706D02*
X0380681Y0100706D01*
X0380681Y0099108D02*
X0383846Y0099108D01*
X0383846Y0097509D02*
X0380117Y0097509D01*
X0378945Y0095911D02*
X0383846Y0095911D01*
X0383846Y0094312D02*
X0378722Y0094312D01*
X0380025Y0092714D02*
X0383846Y0092714D01*
X0383846Y0091115D02*
X0380681Y0091115D01*
X0380681Y0089517D02*
X0383846Y0089517D01*
X0383846Y0087918D02*
X0380287Y0087918D01*
X0379354Y0086320D02*
X0383846Y0086320D01*
X0383846Y0084721D02*
X0378313Y0084721D01*
X0379856Y0083123D02*
X0383846Y0083123D01*
X0383846Y0081524D02*
X0380518Y0081524D01*
X0380681Y0079926D02*
X0383846Y0079926D01*
X0383846Y0078327D02*
X0380456Y0078327D01*
X0379763Y0076729D02*
X0383846Y0076729D01*
X0383846Y0075130D02*
X0378088Y0075130D01*
X0383846Y0073532D02*
X0315613Y0073532D01*
X0317043Y0075130D02*
X0371912Y0075130D01*
X0370237Y0076729D02*
X0361409Y0076729D01*
X0360985Y0076553D02*
X0362367Y0077126D01*
X0363426Y0078184D01*
X0363998Y0079567D01*
X0363998Y0081063D01*
X0363426Y0082446D01*
X0362367Y0083504D01*
X0360985Y0084077D01*
X0359488Y0084077D01*
X0358105Y0083504D01*
X0357047Y0082446D01*
X0356474Y0081063D01*
X0356474Y0079567D01*
X0357047Y0078184D01*
X0358105Y0077126D01*
X0359488Y0076553D01*
X0360985Y0076553D01*
X0359063Y0076729D02*
X0317966Y0076729D01*
X0318621Y0078327D02*
X0336198Y0078327D01*
X0335814Y0079926D02*
X0319049Y0079926D01*
X0319205Y0081524D02*
X0335814Y0081524D01*
X0335814Y0083123D02*
X0319205Y0083123D01*
X0318922Y0084721D02*
X0335814Y0084721D01*
X0335814Y0086320D02*
X0318494Y0086320D01*
X0317692Y0087918D02*
X0319956Y0087918D01*
X0317968Y0089517D02*
X0316738Y0089517D01*
X0316369Y0091115D02*
X0315140Y0091115D01*
X0316929Y0094488D02*
X0320866Y0090551D01*
X0358268Y0090551D01*
X0362205Y0094488D01*
X0362205Y0153543D01*
X0354331Y0161417D01*
X0354331Y0169291D01*
X0349291Y0172677D01*
X0342520Y0167323D02*
X0354331Y0155512D01*
X0356299Y0155512D01*
X0358268Y0149606D01*
X0358268Y0098425D01*
X0354331Y0094488D01*
X0322835Y0094488D01*
X0318898Y0098425D01*
X0278622Y0098425D01*
X0258031Y0087677D01*
X0251796Y0094312D02*
X0233519Y0094312D01*
X0233096Y0095911D02*
X0259300Y0095911D01*
X0260899Y0097509D02*
X0233096Y0097509D01*
X0233096Y0099108D02*
X0262497Y0099108D01*
X0264096Y0100706D02*
X0234561Y0100706D01*
X0235537Y0102305D02*
X0265695Y0102305D01*
X0265962Y0103903D02*
X0267293Y0103903D01*
X0267561Y0105502D02*
X0274651Y0105502D01*
X0277520Y0108307D02*
X0279173Y0107992D01*
X0277520Y0108307D02*
X0262756Y0108307D01*
X0255906Y0115157D01*
X0255906Y0145669D01*
X0259055Y0148819D01*
X0253124Y0140669D02*
X0242939Y0140669D01*
X0242939Y0139070D02*
X0253124Y0139070D01*
X0253124Y0137472D02*
X0242939Y0137472D01*
X0242939Y0135873D02*
X0253124Y0135873D01*
X0253124Y0134275D02*
X0242939Y0134275D01*
X0242939Y0132676D02*
X0253124Y0132676D01*
X0253124Y0131078D02*
X0242939Y0131078D01*
X0242939Y0129479D02*
X0253124Y0129479D01*
X0253124Y0127881D02*
X0242939Y0127881D01*
X0242939Y0126282D02*
X0253124Y0126282D01*
X0253124Y0124684D02*
X0242939Y0124684D01*
X0242939Y0123085D02*
X0253124Y0123085D01*
X0253124Y0121487D02*
X0242939Y0121487D01*
X0242939Y0119888D02*
X0253124Y0119888D01*
X0253124Y0118290D02*
X0242939Y0118290D01*
X0242939Y0116691D02*
X0253124Y0116691D01*
X0253124Y0115093D02*
X0242733Y0115093D01*
X0241443Y0113494D02*
X0253636Y0113494D01*
X0255234Y0111896D02*
X0239845Y0111896D01*
X0238246Y0110297D02*
X0256833Y0110297D01*
X0257375Y0108699D02*
X0238137Y0108699D01*
X0238137Y0107100D02*
X0257375Y0107100D01*
X0257951Y0105502D02*
X0237561Y0105502D01*
X0235962Y0103903D02*
X0259550Y0103903D01*
X0250198Y0092714D02*
X0248767Y0092714D01*
X0245485Y0092714D02*
X0237861Y0092714D01*
X0240251Y0091115D02*
X0243095Y0091115D01*
X0242172Y0089517D02*
X0241175Y0089517D01*
X0241502Y0087918D02*
X0241845Y0087918D01*
X0241972Y0086320D02*
X0241374Y0086320D01*
X0240712Y0084721D02*
X0242634Y0084721D01*
X0244322Y0083123D02*
X0239025Y0083123D01*
X0240012Y0081524D02*
X0230574Y0081524D01*
X0230928Y0079926D02*
X0237634Y0079926D01*
X0237185Y0073532D02*
X0217227Y0073532D01*
X0236220Y0087677D02*
X0230315Y0093583D01*
X0230315Y0100394D01*
X0232756Y0102835D01*
X0232756Y0108307D01*
X0232756Y0108740D01*
X0240157Y0116142D01*
X0227534Y0099108D02*
X0215245Y0099108D01*
X0213647Y0097509D02*
X0227534Y0097509D01*
X0227534Y0095911D02*
X0211827Y0095911D01*
X0263484Y0076496D02*
X0267697Y0080709D01*
X0269685Y0080709D01*
X0274390Y0076496D02*
X0277283Y0076496D01*
X0281496Y0076772D01*
X0268937Y0087677D02*
X0279685Y0094488D01*
X0316929Y0094488D01*
X0324803Y0104331D02*
X0326772Y0102362D01*
X0324803Y0104331D02*
X0324803Y0106142D01*
X0351620Y0105557D02*
X0353982Y0108263D01*
X0364986Y0108699D02*
X0369390Y0108699D01*
X0369319Y0110297D02*
X0364986Y0110297D01*
X0364986Y0111896D02*
X0369636Y0111896D01*
X0370460Y0113494D02*
X0364986Y0113494D01*
X0364986Y0115093D02*
X0372002Y0115093D01*
X0370274Y0116691D02*
X0364986Y0116691D01*
X0364986Y0118290D02*
X0369559Y0118290D01*
X0369319Y0119888D02*
X0364986Y0119888D01*
X0364986Y0121487D02*
X0369467Y0121487D01*
X0370129Y0123085D02*
X0364986Y0123085D01*
X0364986Y0124684D02*
X0371650Y0124684D01*
X0370683Y0126282D02*
X0364986Y0126282D01*
X0364986Y0127881D02*
X0369729Y0127881D01*
X0369319Y0129479D02*
X0364986Y0129479D01*
X0364986Y0131078D02*
X0369319Y0131078D01*
X0369959Y0132676D02*
X0364986Y0132676D01*
X0364986Y0134275D02*
X0371241Y0134275D01*
X0371092Y0135873D02*
X0364986Y0135873D01*
X0364986Y0137472D02*
X0369898Y0137472D01*
X0369319Y0139070D02*
X0364986Y0139070D01*
X0364986Y0140669D02*
X0369319Y0140669D01*
X0368799Y0142268D02*
X0364986Y0142268D01*
X0366299Y0147638D02*
X0367362Y0147638D01*
X0375000Y0140000D01*
X0369621Y0151859D02*
X0368557Y0151859D01*
X0370423Y0153457D02*
X0364986Y0153457D01*
X0364589Y0155056D02*
X0372360Y0155056D01*
X0372585Y0159851D02*
X0368243Y0159851D01*
X0368243Y0158253D02*
X0383846Y0158253D01*
X0383846Y0159851D02*
X0377415Y0159851D01*
X0379484Y0161450D02*
X0383846Y0161450D01*
X0383846Y0163048D02*
X0380341Y0163048D01*
X0380681Y0164647D02*
X0383846Y0164647D01*
X0383846Y0166245D02*
X0380633Y0166245D01*
X0379971Y0167844D02*
X0383846Y0167844D01*
X0383846Y0169442D02*
X0378592Y0169442D01*
X0379075Y0171041D02*
X0383846Y0171041D01*
X0383846Y0172639D02*
X0380171Y0172639D01*
X0380681Y0174238D02*
X0383846Y0174238D01*
X0383846Y0175836D02*
X0380681Y0175836D01*
X0380141Y0177435D02*
X0383846Y0177435D01*
X0383846Y0179033D02*
X0379001Y0179033D01*
X0378666Y0180632D02*
X0383846Y0180632D01*
X0383846Y0182230D02*
X0380002Y0182230D01*
X0380664Y0183829D02*
X0383846Y0183829D01*
X0383846Y0185427D02*
X0380681Y0185427D01*
X0380310Y0187026D02*
X0383846Y0187026D01*
X0383846Y0188624D02*
X0379410Y0188624D01*
X0378257Y0190223D02*
X0383846Y0190223D01*
X0383846Y0191821D02*
X0379833Y0191821D01*
X0380495Y0193420D02*
X0383846Y0193420D01*
X0383846Y0195018D02*
X0380681Y0195018D01*
X0380479Y0196617D02*
X0383846Y0196617D01*
X0383846Y0198215D02*
X0379817Y0198215D01*
X0378220Y0199814D02*
X0383846Y0199814D01*
X0383846Y0201412D02*
X0379447Y0201412D01*
X0380325Y0203011D02*
X0383846Y0203011D01*
X0383846Y0204609D02*
X0380681Y0204609D01*
X0380649Y0206208D02*
X0383846Y0206208D01*
X0383846Y0207806D02*
X0379987Y0207806D01*
X0378629Y0209405D02*
X0383846Y0209405D01*
X0383846Y0211003D02*
X0379038Y0211003D01*
X0380156Y0212602D02*
X0383846Y0212602D01*
X0383846Y0214201D02*
X0380681Y0214201D01*
X0380681Y0215799D02*
X0383846Y0215799D01*
X0383846Y0217398D02*
X0380156Y0217398D01*
X0379038Y0218996D02*
X0383846Y0218996D01*
X0383846Y0220595D02*
X0378629Y0220595D01*
X0379986Y0222193D02*
X0383846Y0222193D01*
X0383846Y0223792D02*
X0380649Y0223792D01*
X0380681Y0225390D02*
X0383846Y0225390D01*
X0383846Y0226989D02*
X0380325Y0226989D01*
X0379447Y0228587D02*
X0383846Y0228587D01*
X0383846Y0230186D02*
X0378220Y0230186D01*
X0379817Y0231784D02*
X0383846Y0231784D01*
X0383846Y0233383D02*
X0380479Y0233383D01*
X0380681Y0234981D02*
X0383846Y0234981D01*
X0383846Y0236580D02*
X0380495Y0236580D01*
X0379833Y0238178D02*
X0383846Y0238178D01*
X0383846Y0239777D02*
X0378258Y0239777D01*
X0383846Y0241375D02*
X0237886Y0241375D01*
X0239439Y0239777D02*
X0371742Y0239777D01*
X0370167Y0238178D02*
X0305725Y0238178D01*
X0305945Y0237958D02*
X0304887Y0239016D01*
X0303504Y0239589D01*
X0302008Y0239589D01*
X0300625Y0239016D01*
X0299566Y0237958D01*
X0298994Y0236575D01*
X0298994Y0235078D01*
X0299566Y0233696D01*
X0300625Y0232637D01*
X0302008Y0232065D01*
X0303504Y0232065D01*
X0304887Y0232637D01*
X0305945Y0233696D01*
X0306518Y0235078D01*
X0306518Y0236575D01*
X0305945Y0237958D01*
X0306516Y0236580D02*
X0369505Y0236580D01*
X0369319Y0234981D02*
X0306478Y0234981D01*
X0305632Y0233383D02*
X0369521Y0233383D01*
X0370183Y0231784D02*
X0292638Y0231784D01*
X0294453Y0230186D02*
X0371780Y0230186D01*
X0370553Y0228587D02*
X0294942Y0228587D01*
X0290240Y0233383D02*
X0299879Y0233383D01*
X0299034Y0234981D02*
X0287842Y0234981D01*
X0298996Y0236580D02*
X0240926Y0236580D01*
X0239802Y0238178D02*
X0299787Y0238178D01*
X0320926Y0223508D02*
X0320926Y0223508D01*
X0307086Y0211003D02*
X0287375Y0211003D01*
X0310713Y0187026D02*
X0317532Y0187026D01*
X0316724Y0185427D02*
X0310713Y0185427D01*
X0310713Y0183829D02*
X0316739Y0183829D01*
X0317567Y0182230D02*
X0310713Y0182230D01*
X0310713Y0180632D02*
X0327545Y0180632D01*
X0327545Y0179033D02*
X0310713Y0179033D01*
X0311296Y0177435D02*
X0328429Y0177435D01*
X0332126Y0180217D02*
X0336614Y0185039D01*
X0329260Y0183829D02*
X0324206Y0183829D01*
X0323378Y0182230D02*
X0327661Y0182230D01*
X0323767Y0175836D02*
X0312067Y0175836D01*
X0312263Y0174238D02*
X0322545Y0174238D01*
X0322545Y0172639D02*
X0311981Y0172639D01*
X0311088Y0171041D02*
X0322545Y0171041D01*
X0323922Y0169442D02*
X0308712Y0169442D01*
X0305553Y0169442D02*
X0280593Y0169442D01*
X0280593Y0172639D02*
X0302284Y0172639D01*
X0302001Y0174238D02*
X0280593Y0174238D01*
X0280483Y0175836D02*
X0302197Y0175836D01*
X0303353Y0151859D02*
X0298695Y0151859D01*
X0300293Y0150260D02*
X0301754Y0150260D01*
X0301348Y0148662D02*
X0300620Y0148662D01*
X0300620Y0147063D02*
X0301348Y0147063D01*
X0302092Y0145465D02*
X0299797Y0145465D01*
X0298199Y0143866D02*
X0303691Y0143866D01*
X0305748Y0143866D02*
X0305748Y0143866D01*
X0305748Y0145465D02*
X0305748Y0145465D01*
X0305748Y0147063D02*
X0305748Y0147063D01*
X0305748Y0148031D02*
X0296299Y0148031D01*
X0296220Y0148110D01*
X0296220Y0152510D01*
X0294398Y0152510D01*
X0292121Y0150233D01*
X0291728Y0151182D01*
X0290945Y0151964D01*
X0291051Y0151859D02*
X0293746Y0151859D01*
X0292148Y0150260D02*
X0292110Y0150260D01*
X0296220Y0150260D02*
X0296221Y0150260D01*
X0296220Y0148662D02*
X0296221Y0148662D01*
X0296221Y0148110D02*
X0296220Y0148110D01*
X0296220Y0147063D02*
X0296221Y0147063D01*
X0296220Y0145465D02*
X0296221Y0145465D01*
X0296220Y0143866D02*
X0296221Y0143866D01*
X0294242Y0143866D02*
X0291500Y0143866D01*
X0292151Y0145465D02*
X0292644Y0145465D01*
X0289901Y0142268D02*
X0310521Y0142268D01*
X0310521Y0143866D02*
X0307805Y0143866D01*
X0309404Y0145465D02*
X0311053Y0145465D01*
X0311140Y0140669D02*
X0288303Y0140669D01*
X0282835Y0128819D02*
X0280669Y0122717D01*
X0279173Y0117992D01*
X0277520Y0118307D01*
X0262756Y0118307D01*
X0282835Y0128819D02*
X0295512Y0128819D01*
X0296220Y0128110D01*
X0305748Y0148662D02*
X0305748Y0148662D01*
X0305748Y0150260D02*
X0305748Y0150260D01*
X0305748Y0151859D02*
X0305748Y0151859D01*
X0296221Y0151859D02*
X0296220Y0151859D01*
X0276943Y0172639D02*
X0276443Y0172639D01*
X0276443Y0174238D02*
X0276943Y0174238D01*
X0276943Y0175836D02*
X0276443Y0175836D01*
X0272793Y0169442D02*
X0270774Y0169442D01*
X0270774Y0167844D02*
X0272793Y0167844D01*
X0272849Y0166245D02*
X0270774Y0166245D01*
X0235194Y0183829D02*
X0232443Y0183829D01*
X0233530Y0182230D02*
X0233688Y0182230D01*
X0225194Y0183829D02*
X0215357Y0183829D01*
X0203392Y0198215D02*
X0202592Y0198215D01*
X0202592Y0199814D02*
X0203392Y0199814D01*
X0203392Y0201412D02*
X0202592Y0201412D01*
X0207192Y0204609D02*
X0207711Y0204609D01*
X0207711Y0206208D02*
X0207192Y0206208D01*
X0207167Y0207806D02*
X0207711Y0207806D01*
X0208511Y0209405D02*
X0197164Y0209405D01*
X0190620Y0209405D02*
X0175209Y0209405D01*
X0175209Y0211003D02*
X0208511Y0211003D01*
X0208511Y0212602D02*
X0175209Y0212602D01*
X0175209Y0214201D02*
X0208511Y0214201D01*
X0208511Y0215799D02*
X0175209Y0215799D01*
X0175209Y0217398D02*
X0208783Y0217398D01*
X0209995Y0218996D02*
X0175209Y0218996D01*
X0175209Y0220595D02*
X0211593Y0220595D01*
X0211184Y0221705D02*
X0211519Y0222040D01*
X0211756Y0222451D01*
X0211879Y0222909D01*
X0211879Y0226676D01*
X0203792Y0226676D01*
X0203792Y0221346D01*
X0210316Y0221346D01*
X0210774Y0221468D01*
X0211184Y0221705D01*
X0211607Y0222193D02*
X0212954Y0222193D01*
X0212954Y0223792D02*
X0211879Y0223792D01*
X0211879Y0225390D02*
X0212954Y0225390D01*
X0212954Y0226989D02*
X0203792Y0226989D01*
X0203792Y0226676D02*
X0203792Y0228276D01*
X0211879Y0228276D01*
X0211879Y0232044D01*
X0211756Y0232502D01*
X0211519Y0232912D01*
X0211184Y0233247D01*
X0210774Y0233484D01*
X0210316Y0233607D01*
X0203792Y0233607D01*
X0203792Y0228276D01*
X0202192Y0228276D01*
X0202192Y0226676D01*
X0203792Y0226676D01*
X0203792Y0225390D02*
X0202192Y0225390D01*
X0202192Y0226676D02*
X0202192Y0221346D01*
X0195669Y0221346D01*
X0195211Y0221468D01*
X0194800Y0221705D01*
X0194465Y0222040D01*
X0194228Y0222451D01*
X0194106Y0222909D01*
X0194106Y0226676D01*
X0202192Y0226676D01*
X0202192Y0226989D02*
X0183056Y0226989D01*
X0183111Y0226934D02*
X0182052Y0227993D01*
X0180670Y0228565D01*
X0179173Y0228565D01*
X0177790Y0227993D01*
X0176732Y0226934D01*
X0176159Y0225552D01*
X0176159Y0224055D01*
X0176732Y0222672D01*
X0177790Y0221614D01*
X0179173Y0221041D01*
X0180670Y0221041D01*
X0182052Y0221614D01*
X0183111Y0222672D01*
X0183683Y0224055D01*
X0183683Y0225552D01*
X0183111Y0226934D01*
X0183683Y0225390D02*
X0194106Y0225390D01*
X0194106Y0223792D02*
X0183574Y0223792D01*
X0182632Y0222193D02*
X0194377Y0222193D01*
X0194106Y0228276D02*
X0202192Y0228276D01*
X0202192Y0233607D01*
X0195669Y0233607D01*
X0195211Y0233484D01*
X0194800Y0233247D01*
X0194465Y0232912D01*
X0194228Y0232502D01*
X0194106Y0232044D01*
X0194106Y0228276D01*
X0194106Y0228587D02*
X0175209Y0228587D01*
X0175209Y0226989D02*
X0176786Y0226989D01*
X0176159Y0225390D02*
X0175209Y0225390D01*
X0175209Y0223792D02*
X0176268Y0223792D01*
X0177211Y0222193D02*
X0175209Y0222193D01*
X0175209Y0230186D02*
X0194106Y0230186D01*
X0194106Y0231784D02*
X0175209Y0231784D01*
X0175209Y0233383D02*
X0195034Y0233383D01*
X0202192Y0233383D02*
X0203792Y0233383D01*
X0203792Y0231784D02*
X0202192Y0231784D01*
X0202192Y0230186D02*
X0203792Y0230186D01*
X0203792Y0228587D02*
X0202192Y0228587D01*
X0202192Y0223792D02*
X0203792Y0223792D01*
X0203792Y0222193D02*
X0202192Y0222193D01*
X0211879Y0228587D02*
X0212951Y0228587D01*
X0213414Y0230186D02*
X0211879Y0230186D01*
X0211879Y0231784D02*
X0214054Y0231784D01*
X0214693Y0233383D02*
X0210950Y0233383D01*
X0215332Y0234981D02*
X0175209Y0234981D01*
X0175209Y0236580D02*
X0215972Y0236580D01*
X0216611Y0238178D02*
X0175209Y0238178D01*
X0175209Y0239777D02*
X0217251Y0239777D01*
X0218807Y0241375D02*
X0175209Y0241375D01*
X0175209Y0207806D02*
X0189511Y0207806D01*
X0189511Y0206208D02*
X0175209Y0206208D01*
X0175209Y0204609D02*
X0181575Y0204609D01*
X0180098Y0203011D02*
X0175209Y0203011D01*
X0175209Y0201412D02*
X0179436Y0201412D01*
X0179319Y0199814D02*
X0175209Y0199814D01*
X0175209Y0198215D02*
X0179590Y0198215D01*
X0180349Y0196617D02*
X0175209Y0196617D01*
X0175209Y0195018D02*
X0182181Y0195018D01*
X0180386Y0193420D02*
X0175209Y0193420D01*
X0175209Y0191821D02*
X0179605Y0191821D01*
X0179319Y0190223D02*
X0175209Y0190223D01*
X0175209Y0188624D02*
X0179421Y0188624D01*
X0180083Y0187026D02*
X0175209Y0187026D01*
X0175209Y0185427D02*
X0181538Y0185427D01*
X0180795Y0183829D02*
X0175209Y0183829D01*
X0188425Y0204609D02*
X0189511Y0204609D01*
X0313629Y0204609D02*
X0315317Y0204609D01*
X0315317Y0203011D02*
X0314372Y0203011D01*
X0338583Y0200787D02*
X0340748Y0202953D01*
X0340748Y0210000D01*
X0344625Y0212602D02*
X0345966Y0212602D01*
X0347564Y0214201D02*
X0343026Y0214201D01*
X0349843Y0210000D02*
X0350000Y0210000D01*
X0375000Y0185000D01*
X0375000Y0175000D02*
X0371850Y0175000D01*
X0364173Y0167323D01*
X0367029Y0166245D02*
X0369367Y0166245D01*
X0369319Y0164647D02*
X0366954Y0164647D01*
X0366954Y0163048D02*
X0369659Y0163048D01*
X0370516Y0161450D02*
X0368243Y0161450D01*
X0368627Y0167844D02*
X0370029Y0167844D01*
X0370226Y0169442D02*
X0371408Y0169442D01*
X0354291Y0180177D02*
X0360000Y0190000D01*
X0375000Y0195000D02*
X0360000Y0210000D01*
X0364581Y0209405D02*
X0371371Y0209405D01*
X0370962Y0211003D02*
X0364581Y0211003D01*
X0363877Y0212602D02*
X0369844Y0212602D01*
X0369319Y0214201D02*
X0362278Y0214201D01*
X0357722Y0214201D02*
X0352121Y0214201D01*
X0353719Y0212602D02*
X0356123Y0212602D01*
X0355419Y0211003D02*
X0354424Y0211003D01*
X0354528Y0209405D02*
X0355419Y0209405D01*
X0366127Y0207806D02*
X0370013Y0207806D01*
X0369351Y0206208D02*
X0367725Y0206208D01*
X0342520Y0167323D02*
X0332520Y0167323D01*
X0327126Y0172717D01*
X0342480Y0160866D02*
X0343661Y0159685D01*
X0364986Y0107100D02*
X0370052Y0107100D01*
X0371464Y0105502D02*
X0364986Y0105502D01*
X0364986Y0103903D02*
X0370869Y0103903D01*
X0369805Y0102305D02*
X0364986Y0102305D01*
X0364986Y0100706D02*
X0369319Y0100706D01*
X0369319Y0099108D02*
X0364986Y0099108D01*
X0364986Y0097509D02*
X0369883Y0097509D01*
X0371055Y0095911D02*
X0364986Y0095911D01*
X0364986Y0094312D02*
X0371278Y0094312D01*
X0369975Y0092714D02*
X0364363Y0092714D01*
X0362765Y0091115D02*
X0369319Y0091115D01*
X0369319Y0089517D02*
X0361166Y0089517D01*
X0359178Y0087918D02*
X0369713Y0087918D01*
X0370646Y0086320D02*
X0353950Y0086320D01*
X0353950Y0084721D02*
X0371687Y0084721D01*
X0370144Y0083123D02*
X0362749Y0083123D01*
X0363808Y0081524D02*
X0369482Y0081524D01*
X0369319Y0079926D02*
X0363998Y0079926D01*
X0363485Y0078327D02*
X0369544Y0078327D01*
X0357723Y0083123D02*
X0353950Y0083123D01*
X0353950Y0081524D02*
X0356665Y0081524D01*
X0356474Y0079926D02*
X0353950Y0079926D01*
X0353566Y0078327D02*
X0356987Y0078327D01*
D27*
X0360236Y0080315D03*
X0318898Y0120079D03*
X0312992Y0102362D03*
X0281496Y0076772D03*
X0269685Y0080709D03*
X0227165Y0079921D03*
X0275591Y0161417D03*
X0320472Y0184646D03*
X0338583Y0200787D03*
X0302756Y0235827D03*
X0216535Y0192913D03*
X0204724Y0192913D03*
X0204724Y0165354D03*
X0179921Y0224803D03*
X0338583Y0143701D03*
D28*
X0307132Y0174342D02*
X0307132Y0192868D01*
X0307087Y0192913D01*
X0311024Y0192913D01*
X0318898Y0200787D01*
X0318898Y0220472D01*
X0314961Y0224409D01*
X0291339Y0224409D01*
X0291339Y0228346D01*
X0285433Y0232283D01*
X0240157Y0232283D01*
X0236220Y0236220D01*
X0236220Y0222953D01*
X0235315Y0229921D01*
X0235315Y0215000D01*
X0240709Y0209606D01*
X0241417Y0199803D02*
X0225315Y0215906D01*
X0225315Y0229921D01*
X0216535Y0228346D02*
X0220472Y0238189D01*
X0236220Y0238189D01*
X0236220Y0236220D01*
X0216535Y0228346D02*
X0216535Y0220472D01*
X0212092Y0216029D01*
X0212092Y0203076D01*
X0220709Y0200512D02*
X0220709Y0209606D01*
X0220709Y0200512D02*
X0221417Y0199803D01*
X0202992Y0203076D02*
X0202992Y0227476D01*
X0241417Y0199803D02*
X0253819Y0195866D01*
X0266693Y0208740D01*
X0267717Y0209764D01*
X0267717Y0212598D01*
X0270898Y0215780D01*
X0309567Y0215780D01*
X0309567Y0201780D02*
X0304142Y0201780D01*
X0299213Y0196850D01*
X0299213Y0166491D01*
X0297198Y0164477D01*
X0278224Y0169409D01*
X0276693Y0170940D01*
X0266693Y0170940D02*
X0266693Y0208740D01*
X0252874Y0180197D02*
X0238819Y0180197D01*
X0228819Y0180197D02*
X0211732Y0180197D01*
X0252874Y0180197D02*
X0255906Y0177165D01*
X0255906Y0171728D01*
X0256693Y0170940D01*
M02*
