G75*
%MOIN*%
%OFA0B0*%
%FSLAX25Y25*%
%IPPOS*%
%LPD*%
%AMOC8*
5,1,8,0,0,1.08239X$1,22.5*
%
%ADD10C,0.00000*%
%ADD11C,0.01340*%
%ADD12C,0.06700*%
%ADD13OC8,0.06700*%
%ADD14OC8,0.07200*%
%ADD15C,0.07800*%
%ADD16C,0.07000*%
%ADD17C,0.20400*%
%ADD18OC8,0.05600*%
%ADD19C,0.01120*%
%ADD20R,0.09200X0.05200*%
%ADD21R,0.09061X0.14573*%
%ADD22C,0.06000*%
%ADD23OC8,0.06400*%
D10*
X0173228Y0070866D02*
X0173228Y0244094D01*
X0385827Y0244094D01*
X0385827Y0070866D01*
X0173228Y0070866D01*
D11*
X0295185Y0164047D02*
X0294515Y0163377D01*
X0294522Y0165596D01*
X0296098Y0167160D01*
X0298317Y0167153D01*
X0299881Y0165577D01*
X0299874Y0163358D01*
X0298298Y0161794D01*
X0296079Y0161801D01*
X0294515Y0163377D01*
X0295522Y0163789D01*
X0295527Y0165177D01*
X0296510Y0166153D01*
X0297898Y0166148D01*
X0298874Y0165165D01*
X0298869Y0163777D01*
X0297886Y0162801D01*
X0296498Y0162806D01*
X0295522Y0163789D01*
X0296528Y0164202D01*
X0296530Y0164757D01*
X0296923Y0165147D01*
X0297478Y0165145D01*
X0297868Y0164752D01*
X0297866Y0164197D01*
X0297473Y0163807D01*
X0296918Y0163809D01*
X0296528Y0164202D01*
D12*
X0307132Y0174342D03*
X0309567Y0201780D03*
X0334567Y0151024D03*
X0349488Y0129921D03*
X0303268Y0106535D03*
X0279173Y0107992D03*
X0249764Y0157874D03*
X0228819Y0180197D03*
X0201732Y0180197D03*
X0215236Y0116378D03*
D13*
X0215236Y0126378D03*
X0239764Y0157874D03*
X0238819Y0180197D03*
X0211732Y0180197D03*
X0279173Y0117992D03*
X0303268Y0116535D03*
X0324567Y0151024D03*
X0339488Y0129921D03*
X0309567Y0215780D03*
D14*
X0262756Y0138307D03*
X0262756Y0128307D03*
X0262756Y0118307D03*
X0262756Y0108307D03*
X0232756Y0108307D03*
X0232756Y0118307D03*
X0232756Y0128307D03*
X0232756Y0138307D03*
D15*
X0185000Y0130000D03*
X0185000Y0120000D03*
X0185000Y0110000D03*
X0185000Y0100000D03*
X0185000Y0090000D03*
X0185000Y0080000D03*
X0185000Y0150000D03*
X0185000Y0160000D03*
X0185000Y0170000D03*
X0185000Y0180000D03*
X0185000Y0190000D03*
X0185000Y0200000D03*
X0375000Y0195000D03*
X0375000Y0205000D03*
X0375000Y0215000D03*
X0375000Y0225000D03*
X0375000Y0235000D03*
X0375000Y0185000D03*
X0375000Y0175000D03*
X0375000Y0165000D03*
X0375000Y0150000D03*
X0375000Y0140000D03*
X0375000Y0130000D03*
X0375000Y0120000D03*
X0375000Y0110000D03*
X0375000Y0100000D03*
X0375000Y0090000D03*
X0375000Y0080000D03*
D16*
X0279843Y0087677D03*
X0268937Y0087677D03*
X0258031Y0087677D03*
X0247126Y0087677D03*
X0236220Y0087677D03*
X0241673Y0076496D03*
X0252579Y0076496D03*
X0263484Y0076496D03*
X0274390Y0076496D03*
D17*
X0307224Y0082087D03*
X0208839Y0082087D03*
D18*
X0205591Y0103701D03*
X0225591Y0103701D03*
X0224252Y0137165D03*
X0224567Y0155512D03*
X0204567Y0155512D03*
X0204252Y0137165D03*
X0221417Y0199803D03*
X0220709Y0209606D03*
X0240709Y0209606D03*
X0241417Y0199803D03*
X0282835Y0148819D03*
X0296220Y0148110D03*
X0305748Y0148031D03*
X0314921Y0143110D03*
X0305748Y0128031D03*
X0296220Y0128110D03*
X0282835Y0128819D03*
X0314921Y0123110D03*
X0324803Y0126142D03*
X0324803Y0106142D03*
X0346299Y0147638D03*
X0343661Y0159685D03*
X0349291Y0172677D03*
X0354291Y0180177D03*
X0359291Y0172677D03*
X0363661Y0159685D03*
X0366299Y0147638D03*
X0337126Y0172717D03*
X0332126Y0180217D03*
X0327126Y0172717D03*
X0340748Y0190000D03*
X0349843Y0190000D03*
X0360000Y0190000D03*
X0360000Y0210000D03*
X0349843Y0210000D03*
X0340748Y0210000D03*
D19*
X0225928Y0145890D02*
X0226488Y0145330D01*
X0225171Y0144021D01*
X0223318Y0144028D01*
X0222009Y0145345D01*
X0222016Y0147198D01*
X0223333Y0148507D01*
X0225186Y0148500D01*
X0226495Y0147183D01*
X0226488Y0145330D01*
X0225649Y0145681D01*
X0224826Y0144862D01*
X0223669Y0144867D01*
X0222850Y0145690D01*
X0222855Y0146847D01*
X0223678Y0147666D01*
X0224835Y0147661D01*
X0225654Y0146838D01*
X0225649Y0145681D01*
X0224811Y0146032D01*
X0224481Y0145704D01*
X0224020Y0145705D01*
X0223692Y0146035D01*
X0223693Y0146496D01*
X0224023Y0146824D01*
X0224484Y0146823D01*
X0224812Y0146493D01*
X0224811Y0146032D01*
X0205928Y0145960D02*
X0206488Y0145400D01*
X0205171Y0144091D01*
X0203318Y0144098D01*
X0202009Y0145415D01*
X0202016Y0147268D01*
X0203333Y0148577D01*
X0205186Y0148570D01*
X0206495Y0147253D01*
X0206488Y0145400D01*
X0205649Y0145751D01*
X0204826Y0144932D01*
X0203669Y0144937D01*
X0202850Y0145760D01*
X0202855Y0146917D01*
X0203678Y0147736D01*
X0204835Y0147731D01*
X0205654Y0146908D01*
X0205649Y0145751D01*
X0204811Y0146102D01*
X0204481Y0145774D01*
X0204020Y0145775D01*
X0203692Y0146105D01*
X0203693Y0146566D01*
X0204023Y0146894D01*
X0204484Y0146893D01*
X0204812Y0146563D01*
X0204811Y0146102D01*
D20*
X0335595Y0105084D03*
X0335595Y0095984D03*
X0335595Y0086884D03*
D21*
X0359996Y0095984D03*
D22*
X0235315Y0227121D02*
X0235315Y0232721D01*
X0225315Y0232721D02*
X0225315Y0227121D01*
D23*
X0196850Y0142047D03*
X0196850Y0102047D03*
M02*
