G75*
%MOIN*%
%OFA0B0*%
%FSLAX25Y25*%
%IPPOS*%
%LPD*%
%AMOC8*
5,1,8,0,0,1.08239X$1,22.5*
%
%ADD10C,0.00000*%
%ADD11C,0.00600*%
%ADD12C,0.00800*%
%ADD13C,0.00400*%
%ADD14C,0.00300*%
%ADD15R,0.03800X0.06600*%
D10*
X0173228Y0070866D02*
X0173228Y0244094D01*
X0385827Y0244094D01*
X0385827Y0070866D01*
X0173228Y0070866D01*
D11*
X0309720Y0223135D02*
X0308652Y0224202D01*
X0308652Y0226337D01*
X0309720Y0227405D01*
X0311855Y0227405D01*
X0312922Y0226337D01*
X0312922Y0224202D01*
X0311855Y0223135D01*
X0309720Y0223135D01*
X0315098Y0223135D02*
X0315098Y0226337D01*
X0316165Y0227405D01*
X0319368Y0227405D01*
X0319368Y0223135D01*
X0321530Y0223135D02*
X0323665Y0223135D01*
X0322597Y0223135D02*
X0322597Y0227405D01*
X0323665Y0227405D01*
X0325840Y0227405D02*
X0325840Y0223135D01*
X0329043Y0223135D01*
X0330110Y0224202D01*
X0330110Y0227405D01*
X0332286Y0227405D02*
X0335488Y0227405D01*
X0336556Y0226337D01*
X0336556Y0224202D01*
X0335488Y0223135D01*
X0332286Y0223135D01*
X0332286Y0229540D01*
X0329443Y0231236D02*
X0328376Y0231236D01*
X0327308Y0232303D01*
X0327308Y0237641D01*
X0330511Y0237641D01*
X0331578Y0236574D01*
X0331578Y0234438D01*
X0330511Y0233371D01*
X0327308Y0233371D01*
X0325133Y0233371D02*
X0325133Y0237641D01*
X0321930Y0237641D01*
X0320863Y0236574D01*
X0320863Y0233371D01*
X0318687Y0234438D02*
X0318687Y0236574D01*
X0317620Y0237641D01*
X0315485Y0237641D01*
X0314417Y0236574D01*
X0314417Y0235506D01*
X0318687Y0235506D01*
X0318687Y0234438D02*
X0317620Y0233371D01*
X0315485Y0233371D01*
X0312242Y0234438D02*
X0312242Y0236574D01*
X0311174Y0237641D01*
X0307972Y0237641D01*
X0307972Y0239776D02*
X0307972Y0233371D01*
X0311174Y0233371D01*
X0312242Y0234438D01*
X0322597Y0230608D02*
X0322597Y0229540D01*
X0333740Y0233371D02*
X0335875Y0233371D01*
X0334808Y0233371D02*
X0334808Y0237641D01*
X0335875Y0237641D01*
X0338051Y0237641D02*
X0341253Y0237641D01*
X0342321Y0236574D01*
X0341253Y0235506D01*
X0339118Y0235506D01*
X0338051Y0234438D01*
X0339118Y0233371D01*
X0342321Y0233371D01*
X0344496Y0235506D02*
X0348766Y0235506D01*
X0348766Y0234438D02*
X0348766Y0236574D01*
X0347699Y0237641D01*
X0345564Y0237641D01*
X0344496Y0236574D01*
X0344496Y0235506D01*
X0345564Y0233371D02*
X0347699Y0233371D01*
X0348766Y0234438D01*
X0350941Y0234438D02*
X0352009Y0233371D01*
X0355212Y0233371D01*
X0355212Y0239776D01*
X0352009Y0239776D01*
X0350941Y0238709D01*
X0350941Y0234438D01*
X0351615Y0229540D02*
X0350548Y0228473D01*
X0350548Y0226337D01*
X0351615Y0225270D01*
X0351615Y0227405D01*
X0353751Y0227405D01*
X0353751Y0225270D01*
X0351615Y0225270D01*
X0350548Y0224202D02*
X0351615Y0223135D01*
X0353751Y0223135D01*
X0354818Y0224202D01*
X0354818Y0228473D01*
X0353751Y0229540D01*
X0351615Y0229540D01*
X0348373Y0227405D02*
X0346237Y0229540D01*
X0344102Y0227405D01*
X0344102Y0223135D01*
X0341927Y0223135D02*
X0341927Y0227405D01*
X0341927Y0225270D02*
X0339792Y0227405D01*
X0338724Y0227405D01*
X0344102Y0226337D02*
X0348373Y0226337D01*
X0348373Y0227405D02*
X0348373Y0223135D01*
X0334808Y0239776D02*
X0334808Y0240844D01*
X0299351Y0236574D02*
X0299351Y0234438D01*
X0298283Y0233371D01*
X0296148Y0233371D01*
X0295081Y0234438D01*
X0295081Y0236574D01*
X0296148Y0237641D01*
X0298283Y0237641D01*
X0299351Y0236574D01*
X0292905Y0236574D02*
X0290770Y0236574D01*
X0291838Y0238709D02*
X0290770Y0239776D01*
X0291838Y0238709D02*
X0291838Y0233371D01*
X0282163Y0234438D02*
X0281095Y0233371D01*
X0278960Y0233371D01*
X0277893Y0234438D01*
X0277893Y0235506D01*
X0278960Y0236574D01*
X0281095Y0236574D01*
X0282163Y0237641D01*
X0282163Y0238709D01*
X0281095Y0239776D01*
X0278960Y0239776D01*
X0277893Y0238709D01*
X0275717Y0237641D02*
X0272515Y0237641D01*
X0271447Y0236574D01*
X0271447Y0234438D01*
X0272515Y0233371D01*
X0275717Y0233371D01*
X0275717Y0231236D02*
X0275717Y0237641D01*
X0269272Y0234438D02*
X0268204Y0235506D01*
X0265002Y0235506D01*
X0265002Y0236574D02*
X0265002Y0233371D01*
X0268204Y0233371D01*
X0269272Y0234438D01*
X0268204Y0237641D02*
X0266069Y0237641D01*
X0265002Y0236574D01*
X0262826Y0237641D02*
X0261759Y0237641D01*
X0261759Y0233371D01*
X0262826Y0233371D02*
X0260691Y0233371D01*
X0258529Y0233371D02*
X0258529Y0237641D01*
X0255327Y0237641D01*
X0254259Y0236574D01*
X0254259Y0233371D01*
X0261759Y0239776D02*
X0261759Y0240844D01*
D12*
X0215892Y0222276D02*
X0215892Y0208276D01*
X0190092Y0208276D01*
X0190092Y0222276D01*
X0215892Y0222276D01*
X0246638Y0182402D02*
X0286748Y0182402D01*
X0331982Y0103063D02*
X0331982Y0089063D01*
X0357782Y0089063D01*
X0357782Y0103063D01*
X0331982Y0103063D01*
D13*
X0332167Y0110063D02*
X0334035Y0110063D01*
X0333101Y0110063D02*
X0333101Y0112865D01*
X0334035Y0111931D01*
X0340679Y0111968D02*
X0340679Y0112435D01*
X0341146Y0112902D01*
X0342080Y0112902D01*
X0342547Y0112435D01*
X0340679Y0111968D02*
X0342547Y0110100D01*
X0340679Y0110100D01*
X0349779Y0110530D02*
X0350246Y0110063D01*
X0351180Y0110063D01*
X0351647Y0110530D01*
X0350713Y0111464D02*
X0350246Y0111464D01*
X0349779Y0110997D01*
X0349779Y0110530D01*
X0350246Y0111464D02*
X0349779Y0111931D01*
X0349779Y0112398D01*
X0350246Y0112865D01*
X0351180Y0112865D01*
X0351647Y0112398D01*
X0353727Y0085865D02*
X0355128Y0084464D01*
X0353260Y0084464D01*
X0353727Y0083063D02*
X0353727Y0085865D01*
X0216385Y0198476D02*
X0214517Y0198476D01*
X0215451Y0198476D02*
X0215451Y0201278D01*
X0216385Y0200344D01*
X0207873Y0200774D02*
X0207406Y0201241D01*
X0206472Y0201241D01*
X0206005Y0200774D01*
X0206005Y0200307D01*
X0207873Y0198439D01*
X0206005Y0198439D01*
X0198773Y0198943D02*
X0198306Y0198476D01*
X0197372Y0198476D01*
X0196905Y0198943D01*
X0196905Y0199410D01*
X0197372Y0199877D01*
X0197839Y0199877D01*
X0197372Y0199877D02*
X0196905Y0200344D01*
X0196905Y0200811D01*
X0197372Y0201278D01*
X0198306Y0201278D01*
X0198773Y0200811D01*
X0193891Y0225476D02*
X0193891Y0228278D01*
X0195292Y0226877D01*
X0193424Y0226877D01*
D14*
X0194179Y0213128D02*
X0194179Y0211677D01*
X0193211Y0212161D01*
X0192728Y0212161D01*
X0192244Y0211677D01*
X0192244Y0210709D01*
X0192728Y0210226D01*
X0193695Y0210226D01*
X0194179Y0210709D01*
X0195190Y0210709D02*
X0195190Y0212644D01*
X0197125Y0210709D01*
X0196642Y0210226D01*
X0195674Y0210226D01*
X0195190Y0210709D01*
X0197125Y0210709D02*
X0197125Y0212644D01*
X0196642Y0213128D01*
X0195674Y0213128D01*
X0195190Y0212644D01*
X0194179Y0213128D02*
X0192244Y0213128D01*
X0198137Y0213128D02*
X0198137Y0210226D01*
X0200072Y0210226D02*
X0200072Y0213128D01*
X0199104Y0212161D01*
X0198137Y0213128D01*
X0201083Y0212644D02*
X0201083Y0212161D01*
X0201567Y0211677D01*
X0202535Y0211677D01*
X0203018Y0212161D01*
X0203018Y0212644D01*
X0202535Y0213128D01*
X0201567Y0213128D01*
X0201083Y0212644D01*
X0201567Y0211677D02*
X0201083Y0211193D01*
X0201083Y0210709D01*
X0201567Y0210226D01*
X0202535Y0210226D01*
X0203018Y0210709D01*
X0203018Y0211193D01*
X0202535Y0211677D01*
X0204030Y0212644D02*
X0204030Y0213128D01*
X0205965Y0213128D01*
X0206976Y0212161D02*
X0206976Y0210226D01*
X0205965Y0210226D02*
X0205965Y0210709D01*
X0204030Y0212644D01*
X0206976Y0212161D02*
X0207944Y0213128D01*
X0208911Y0212161D01*
X0208911Y0210226D01*
X0209923Y0210709D02*
X0209923Y0213128D01*
X0208911Y0211677D02*
X0206976Y0211677D01*
X0209923Y0210709D02*
X0210407Y0210226D01*
X0211374Y0210226D01*
X0211858Y0210709D01*
X0211858Y0213128D01*
X0254756Y0186643D02*
X0256691Y0186643D01*
X0256691Y0185192D01*
X0255723Y0185676D01*
X0255239Y0185676D01*
X0254756Y0185192D01*
X0254756Y0184224D01*
X0255239Y0183741D01*
X0256207Y0183741D01*
X0256691Y0184224D01*
X0257702Y0184224D02*
X0258186Y0183741D01*
X0259153Y0183741D01*
X0259637Y0184224D01*
X0257702Y0186159D01*
X0257702Y0184224D01*
X0259637Y0184224D02*
X0259637Y0186159D01*
X0259153Y0186643D01*
X0258186Y0186643D01*
X0257702Y0186159D01*
X0260649Y0186643D02*
X0260649Y0183741D01*
X0262584Y0183741D02*
X0262584Y0186643D01*
X0261616Y0185676D01*
X0260649Y0186643D01*
X0263595Y0186159D02*
X0263595Y0184224D01*
X0264079Y0183741D01*
X0265046Y0183741D01*
X0265530Y0184224D01*
X0265046Y0185192D02*
X0263595Y0185192D01*
X0263595Y0186159D02*
X0264079Y0186643D01*
X0265046Y0186643D01*
X0265530Y0186159D01*
X0265530Y0185676D01*
X0265046Y0185192D01*
X0266542Y0186159D02*
X0268477Y0184224D01*
X0268477Y0183741D01*
X0269488Y0183741D02*
X0269488Y0185676D01*
X0270456Y0186643D01*
X0271423Y0185676D01*
X0271423Y0183741D01*
X0272435Y0184224D02*
X0272435Y0186643D01*
X0271423Y0185192D02*
X0269488Y0185192D01*
X0268477Y0186643D02*
X0266542Y0186643D01*
X0266542Y0186159D01*
X0272435Y0184224D02*
X0272918Y0183741D01*
X0273886Y0183741D01*
X0274370Y0184224D01*
X0274370Y0186643D01*
X0339180Y0093241D02*
X0340147Y0093241D01*
X0340631Y0092758D01*
X0341643Y0092758D02*
X0342126Y0093241D01*
X0343094Y0093241D01*
X0343578Y0092758D01*
X0343578Y0092274D01*
X0343094Y0091790D01*
X0341643Y0091790D01*
X0341643Y0090823D02*
X0341643Y0092758D01*
X0341643Y0090823D02*
X0342126Y0090339D01*
X0343094Y0090339D01*
X0343578Y0090823D01*
X0344589Y0090823D02*
X0344589Y0092758D01*
X0346524Y0090823D01*
X0346040Y0090339D01*
X0345073Y0090339D01*
X0344589Y0090823D01*
X0344589Y0092758D02*
X0345073Y0093241D01*
X0346040Y0093241D01*
X0346524Y0092758D01*
X0346524Y0090823D01*
X0347536Y0090823D02*
X0348019Y0090339D01*
X0348987Y0090339D01*
X0349471Y0090823D01*
X0348503Y0091790D02*
X0348019Y0091790D01*
X0347536Y0091306D01*
X0347536Y0090823D01*
X0348019Y0091790D02*
X0347536Y0092274D01*
X0347536Y0092758D01*
X0348019Y0093241D01*
X0348987Y0093241D01*
X0349471Y0092758D01*
X0350482Y0093241D02*
X0352417Y0093241D01*
X0351450Y0093241D02*
X0351450Y0090339D01*
X0353429Y0090339D02*
X0355364Y0090339D01*
X0355364Y0093241D01*
X0340631Y0090339D02*
X0338696Y0092274D01*
X0338696Y0092758D01*
X0339180Y0093241D01*
X0338696Y0090339D02*
X0340631Y0090339D01*
D15*
X0276693Y0179440D03*
X0266693Y0179440D03*
X0256693Y0179440D03*
M02*
