G75*
%MOIN*%
%OFA0B0*%
%FSLAX25Y25*%
%IPPOS*%
%LPD*%
%AMOC8*
5,1,8,0,0,1.08239X$1,22.5*
%
%ADD10C,0.00000*%
%ADD11C,0.01260*%
%ADD12C,0.06300*%
%ADD13OC8,0.06300*%
%ADD14OC8,0.06800*%
%ADD15C,0.07400*%
%ADD16C,0.06600*%
%ADD17C,0.20000*%
%ADD18OC8,0.05200*%
%ADD19C,0.01040*%
%ADD20R,0.08800X0.04800*%
%ADD21R,0.08661X0.14173*%
%ADD22C,0.05600*%
%ADD23OC8,0.06000*%
%ADD24C,0.01600*%
%ADD25C,0.03562*%
D10*
X0173228Y0070866D02*
X0173228Y0244094D01*
X0385827Y0244094D01*
X0385827Y0070866D01*
X0173228Y0070866D01*
D11*
X0295305Y0164072D02*
X0294675Y0163442D01*
X0294683Y0165530D01*
X0296163Y0167000D01*
X0298251Y0166992D01*
X0299721Y0165512D01*
X0299713Y0163424D01*
X0298233Y0161954D01*
X0296145Y0161962D01*
X0294675Y0163442D01*
X0295622Y0163830D01*
X0295626Y0165135D01*
X0296551Y0166053D01*
X0297856Y0166049D01*
X0298774Y0165124D01*
X0298770Y0163819D01*
X0297845Y0162901D01*
X0296540Y0162905D01*
X0295622Y0163830D01*
X0296568Y0164218D01*
X0296570Y0164740D01*
X0296939Y0165107D01*
X0297461Y0165105D01*
X0297828Y0164736D01*
X0297826Y0164214D01*
X0297457Y0163847D01*
X0296935Y0163849D01*
X0296568Y0164218D01*
D12*
X0307132Y0174342D03*
X0309567Y0201780D03*
X0334567Y0151024D03*
X0349488Y0129921D03*
X0303268Y0106535D03*
X0279173Y0107992D03*
X0249764Y0157874D03*
X0228819Y0180197D03*
X0201732Y0180197D03*
X0215236Y0116378D03*
D13*
X0215236Y0126378D03*
X0239764Y0157874D03*
X0238819Y0180197D03*
X0211732Y0180197D03*
X0279173Y0117992D03*
X0303268Y0116535D03*
X0324567Y0151024D03*
X0339488Y0129921D03*
X0309567Y0215780D03*
D14*
X0262756Y0138307D03*
X0262756Y0128307D03*
X0262756Y0118307D03*
X0262756Y0108307D03*
X0232756Y0108307D03*
X0232756Y0118307D03*
X0232756Y0128307D03*
X0232756Y0138307D03*
D15*
X0185000Y0130000D03*
X0185000Y0120000D03*
X0185000Y0110000D03*
X0185000Y0100000D03*
X0185000Y0090000D03*
X0185000Y0080000D03*
X0185000Y0150000D03*
X0185000Y0160000D03*
X0185000Y0170000D03*
X0185000Y0180000D03*
X0185000Y0190000D03*
X0185000Y0200000D03*
X0375000Y0195000D03*
X0375000Y0205000D03*
X0375000Y0215000D03*
X0375000Y0225000D03*
X0375000Y0235000D03*
X0375000Y0185000D03*
X0375000Y0175000D03*
X0375000Y0165000D03*
X0375000Y0150000D03*
X0375000Y0140000D03*
X0375000Y0130000D03*
X0375000Y0120000D03*
X0375000Y0110000D03*
X0375000Y0100000D03*
X0375000Y0090000D03*
X0375000Y0080000D03*
D16*
X0279843Y0087677D03*
X0268937Y0087677D03*
X0258031Y0087677D03*
X0247126Y0087677D03*
X0236220Y0087677D03*
X0241673Y0076496D03*
X0252579Y0076496D03*
X0263484Y0076496D03*
X0274390Y0076496D03*
D17*
X0307224Y0082087D03*
X0208839Y0082087D03*
D18*
X0205591Y0103701D03*
X0225591Y0103701D03*
X0224252Y0137165D03*
X0224567Y0155512D03*
X0204567Y0155512D03*
X0204252Y0137165D03*
X0221417Y0199803D03*
X0220709Y0209606D03*
X0240709Y0209606D03*
X0241417Y0199803D03*
X0282835Y0148819D03*
X0296220Y0148110D03*
X0305748Y0148031D03*
X0314921Y0143110D03*
X0305748Y0128031D03*
X0296220Y0128110D03*
X0282835Y0128819D03*
X0314921Y0123110D03*
X0324803Y0126142D03*
X0324803Y0106142D03*
X0346299Y0147638D03*
X0343661Y0159685D03*
X0349291Y0172677D03*
X0354291Y0180177D03*
X0359291Y0172677D03*
X0363661Y0159685D03*
X0366299Y0147638D03*
X0337126Y0172717D03*
X0332126Y0180217D03*
X0327126Y0172717D03*
X0340748Y0190000D03*
X0349843Y0190000D03*
X0360000Y0190000D03*
X0360000Y0210000D03*
X0349843Y0210000D03*
X0340748Y0210000D03*
D19*
X0225808Y0145916D02*
X0226328Y0145396D01*
X0225105Y0144182D01*
X0223384Y0144188D01*
X0222170Y0145411D01*
X0222176Y0147132D01*
X0223399Y0148346D01*
X0225120Y0148340D01*
X0226334Y0147117D01*
X0226328Y0145396D01*
X0225550Y0145722D01*
X0224785Y0144963D01*
X0223710Y0144966D01*
X0222951Y0145731D01*
X0222954Y0146806D01*
X0223719Y0147565D01*
X0224794Y0147562D01*
X0225553Y0146797D01*
X0225550Y0145722D01*
X0224771Y0146048D01*
X0224465Y0145744D01*
X0224036Y0145745D01*
X0223732Y0146051D01*
X0223733Y0146480D01*
X0224039Y0146784D01*
X0224468Y0146783D01*
X0224772Y0146477D01*
X0224771Y0146048D01*
X0205808Y0145986D02*
X0206328Y0145466D01*
X0205105Y0144252D01*
X0203384Y0144258D01*
X0202170Y0145481D01*
X0202176Y0147202D01*
X0203399Y0148416D01*
X0205120Y0148410D01*
X0206334Y0147187D01*
X0206328Y0145466D01*
X0205550Y0145792D01*
X0204785Y0145033D01*
X0203710Y0145036D01*
X0202951Y0145801D01*
X0202954Y0146876D01*
X0203719Y0147635D01*
X0204794Y0147632D01*
X0205553Y0146867D01*
X0205550Y0145792D01*
X0204771Y0146118D01*
X0204465Y0145814D01*
X0204036Y0145815D01*
X0203732Y0146121D01*
X0203733Y0146550D01*
X0204039Y0146854D01*
X0204468Y0146853D01*
X0204772Y0146547D01*
X0204771Y0146118D01*
D20*
X0335595Y0105084D03*
X0335595Y0095984D03*
X0335595Y0086884D03*
D21*
X0359996Y0095984D03*
D22*
X0235315Y0227121D02*
X0235315Y0232721D01*
X0225315Y0232721D02*
X0225315Y0227121D01*
D23*
X0196850Y0142047D03*
X0196850Y0102047D03*
D24*
X0200677Y0106379D02*
X0199240Y0107816D01*
X0194461Y0107816D01*
X0191082Y0104437D01*
X0191082Y0102220D01*
X0190484Y0103664D01*
X0189148Y0105000D01*
X0190484Y0106336D01*
X0191468Y0108713D01*
X0191468Y0111287D01*
X0190484Y0113664D01*
X0189148Y0115000D01*
X0190484Y0116336D01*
X0191468Y0118713D01*
X0191468Y0121287D01*
X0190484Y0123664D01*
X0189148Y0125000D01*
X0190484Y0126336D01*
X0191468Y0128713D01*
X0191468Y0131287D01*
X0190484Y0133664D01*
X0188664Y0135484D01*
X0186287Y0136468D01*
X0183713Y0136468D01*
X0181336Y0135484D01*
X0179516Y0133664D01*
X0178531Y0131287D01*
X0178531Y0128713D01*
X0179516Y0126336D01*
X0180852Y0125000D01*
X0179516Y0123664D01*
X0178531Y0121287D01*
X0178531Y0118713D01*
X0179516Y0116336D01*
X0180852Y0115000D01*
X0179516Y0113664D01*
X0178531Y0111287D01*
X0178531Y0108713D01*
X0179516Y0106336D01*
X0180852Y0105000D01*
X0179516Y0103664D01*
X0178531Y0101287D01*
X0178531Y0098713D01*
X0179516Y0096336D01*
X0180852Y0095000D01*
X0179516Y0093664D01*
X0178531Y0091287D01*
X0178531Y0088713D01*
X0179516Y0086336D01*
X0180852Y0085000D01*
X0179516Y0083664D01*
X0178531Y0081287D01*
X0178531Y0078713D01*
X0179516Y0076336D01*
X0181336Y0074516D01*
X0183464Y0073635D01*
X0175997Y0073635D01*
X0175997Y0222389D01*
X0176064Y0222226D01*
X0177344Y0220946D01*
X0179016Y0220254D01*
X0180826Y0220254D01*
X0182498Y0220946D01*
X0183778Y0222226D01*
X0184471Y0223898D01*
X0184471Y0225708D01*
X0183778Y0227380D01*
X0182498Y0228660D01*
X0180826Y0229353D01*
X0179016Y0229353D01*
X0177344Y0228660D01*
X0176064Y0227380D01*
X0175997Y0227217D01*
X0175997Y0241326D01*
X0373369Y0241326D01*
X0371336Y0240484D01*
X0369516Y0238664D01*
X0368531Y0236287D01*
X0368531Y0233713D01*
X0369516Y0231336D01*
X0370852Y0230000D01*
X0369516Y0228664D01*
X0368531Y0226287D01*
X0368531Y0223713D01*
X0369516Y0221336D01*
X0370852Y0220000D01*
X0369516Y0218664D01*
X0368531Y0216287D01*
X0368531Y0213713D01*
X0369516Y0211336D01*
X0370852Y0210000D01*
X0369516Y0208664D01*
X0368531Y0206287D01*
X0368531Y0203713D01*
X0369516Y0201336D01*
X0370852Y0200000D01*
X0369516Y0198664D01*
X0368531Y0196287D01*
X0368531Y0193713D01*
X0369516Y0191336D01*
X0370852Y0190000D01*
X0369516Y0188664D01*
X0368531Y0186287D01*
X0368531Y0183713D01*
X0369516Y0181336D01*
X0370852Y0180000D01*
X0369516Y0178664D01*
X0368531Y0176287D01*
X0368531Y0173713D01*
X0369516Y0171336D01*
X0370852Y0170000D01*
X0369516Y0168664D01*
X0368531Y0166287D01*
X0368531Y0163713D01*
X0369516Y0161336D01*
X0371336Y0159516D01*
X0373713Y0158531D01*
X0376287Y0158531D01*
X0378664Y0159516D01*
X0380484Y0161336D01*
X0381468Y0163713D01*
X0381468Y0166287D01*
X0380484Y0168664D01*
X0379148Y0170000D01*
X0380484Y0171336D01*
X0381468Y0173713D01*
X0381468Y0176287D01*
X0380484Y0178664D01*
X0379148Y0180000D01*
X0380484Y0181336D01*
X0381468Y0183713D01*
X0381468Y0186287D01*
X0380484Y0188664D01*
X0379148Y0190000D01*
X0380484Y0191336D01*
X0381468Y0193713D01*
X0381468Y0196287D01*
X0380484Y0198664D01*
X0379148Y0200000D01*
X0380484Y0201336D01*
X0381468Y0203713D01*
X0381468Y0206287D01*
X0380484Y0208664D01*
X0379148Y0210000D01*
X0380484Y0211336D01*
X0381468Y0213713D01*
X0381468Y0216287D01*
X0380484Y0218664D01*
X0379148Y0220000D01*
X0380484Y0221336D01*
X0381468Y0223713D01*
X0381468Y0226287D01*
X0380484Y0228664D01*
X0379148Y0230000D01*
X0380484Y0231336D01*
X0381468Y0233713D01*
X0381468Y0236287D01*
X0380484Y0238664D01*
X0378664Y0240484D01*
X0376631Y0241326D01*
X0383058Y0241326D01*
X0383058Y0073635D01*
X0376536Y0073635D01*
X0378664Y0074516D01*
X0380484Y0076336D01*
X0381468Y0078713D01*
X0381468Y0081287D01*
X0380484Y0083664D01*
X0379148Y0085000D01*
X0380484Y0086336D01*
X0381468Y0088713D01*
X0381468Y0091287D01*
X0380484Y0093664D01*
X0379148Y0095000D01*
X0380484Y0096336D01*
X0381468Y0098713D01*
X0381468Y0101287D01*
X0380484Y0103664D01*
X0379148Y0105000D01*
X0380484Y0106336D01*
X0381468Y0108713D01*
X0381468Y0111287D01*
X0380484Y0113664D01*
X0379148Y0115000D01*
X0380484Y0116336D01*
X0381468Y0118713D01*
X0381468Y0121287D01*
X0380484Y0123664D01*
X0379148Y0125000D01*
X0380484Y0126336D01*
X0381468Y0128713D01*
X0381468Y0131287D01*
X0380484Y0133664D01*
X0379148Y0135000D01*
X0380484Y0136336D01*
X0381468Y0138713D01*
X0381468Y0141287D01*
X0380484Y0143664D01*
X0379148Y0145000D01*
X0380484Y0146336D01*
X0381468Y0148713D01*
X0381468Y0151287D01*
X0380484Y0153664D01*
X0378664Y0155484D01*
X0376287Y0156468D01*
X0373713Y0156468D01*
X0371336Y0155484D01*
X0369516Y0153664D01*
X0369033Y0152497D01*
X0368523Y0153006D01*
X0364076Y0153006D01*
X0360931Y0149861D01*
X0360931Y0145414D01*
X0364076Y0142269D01*
X0368523Y0142269D01*
X0369232Y0142979D01*
X0368531Y0141287D01*
X0368531Y0138713D01*
X0369516Y0136336D01*
X0370852Y0135000D01*
X0369516Y0133664D01*
X0368531Y0131287D01*
X0368531Y0128713D01*
X0369516Y0126336D01*
X0370852Y0125000D01*
X0369516Y0123664D01*
X0368531Y0121287D01*
X0368531Y0118713D01*
X0369516Y0116336D01*
X0370852Y0115000D01*
X0369516Y0113664D01*
X0368531Y0111287D01*
X0368531Y0108713D01*
X0369516Y0106336D01*
X0370852Y0105000D01*
X0369516Y0103664D01*
X0368531Y0101287D01*
X0368531Y0098713D01*
X0369516Y0096336D01*
X0370852Y0095000D01*
X0369516Y0093664D01*
X0368531Y0091287D01*
X0368531Y0088713D01*
X0369516Y0086336D01*
X0370852Y0085000D01*
X0369516Y0083664D01*
X0368531Y0081287D01*
X0368531Y0078713D01*
X0369516Y0076336D01*
X0371336Y0074516D01*
X0373464Y0073635D01*
X0316830Y0073635D01*
X0317442Y0074247D01*
X0319123Y0077158D01*
X0319993Y0080406D01*
X0319993Y0083768D01*
X0319268Y0086472D01*
X0322420Y0083951D01*
X0322782Y0083589D01*
X0322969Y0083511D01*
X0323128Y0083384D01*
X0323620Y0083242D01*
X0324093Y0083046D01*
X0324297Y0083046D01*
X0324492Y0082989D01*
X0325001Y0083046D01*
X0327894Y0083046D01*
X0328193Y0082922D01*
X0328301Y0082922D01*
X0328403Y0082887D01*
X0328851Y0082913D01*
X0329627Y0082137D01*
X0330645Y0081716D01*
X0340546Y0081716D01*
X0341563Y0082137D01*
X0342342Y0082916D01*
X0342764Y0083934D01*
X0342764Y0089835D01*
X0342342Y0090852D01*
X0341761Y0091434D01*
X0342342Y0092016D01*
X0342764Y0093034D01*
X0342764Y0098935D01*
X0342342Y0099952D01*
X0341761Y0100534D01*
X0342342Y0101116D01*
X0342764Y0102134D01*
X0342764Y0108035D01*
X0342342Y0109052D01*
X0341563Y0109831D01*
X0340546Y0110253D01*
X0338743Y0110253D01*
X0337509Y0124971D01*
X0339488Y0124971D01*
X0339488Y0129921D01*
X0339488Y0129921D01*
X0339488Y0124971D01*
X0341539Y0124971D01*
X0344080Y0127513D01*
X0344471Y0126569D01*
X0346136Y0124904D01*
X0348311Y0124003D01*
X0350665Y0124003D01*
X0352841Y0124904D01*
X0354506Y0126569D01*
X0355407Y0128744D01*
X0355407Y0131099D01*
X0354506Y0133274D01*
X0352841Y0134939D01*
X0350665Y0135840D01*
X0348311Y0135840D01*
X0346136Y0134939D01*
X0344471Y0133274D01*
X0344080Y0132330D01*
X0341539Y0134871D01*
X0339488Y0134871D01*
X0337438Y0134871D01*
X0336738Y0134171D01*
X0336534Y0136605D01*
X0339080Y0139151D01*
X0339488Y0139151D01*
X0341160Y0139844D01*
X0342440Y0141124D01*
X0343132Y0142796D01*
X0343132Y0143213D01*
X0344076Y0142269D01*
X0348523Y0142269D01*
X0351668Y0145414D01*
X0351668Y0149861D01*
X0348523Y0153006D01*
X0344076Y0153006D01*
X0340931Y0149861D01*
X0340931Y0147653D01*
X0339775Y0148131D01*
X0340485Y0149846D01*
X0340485Y0152201D01*
X0339584Y0154376D01*
X0337919Y0156041D01*
X0335744Y0156942D01*
X0333390Y0156942D01*
X0331214Y0156041D01*
X0329549Y0154376D01*
X0329159Y0153432D01*
X0326617Y0155974D01*
X0324567Y0155974D01*
X0324567Y0151024D01*
X0324567Y0151024D01*
X0324567Y0155974D01*
X0322517Y0155974D01*
X0319617Y0153074D01*
X0319617Y0151024D01*
X0324567Y0151024D01*
X0324567Y0151024D01*
X0319617Y0151024D01*
X0319617Y0148973D01*
X0322517Y0146074D01*
X0324567Y0146074D01*
X0326617Y0146074D01*
X0329159Y0148615D01*
X0329549Y0147671D01*
X0331214Y0146006D01*
X0333390Y0145105D01*
X0334240Y0145105D01*
X0334033Y0144606D01*
X0334033Y0144198D01*
X0330709Y0140874D01*
X0330572Y0140803D01*
X0330210Y0140375D01*
X0329814Y0139979D01*
X0329755Y0139837D01*
X0329656Y0139719D01*
X0329485Y0139185D01*
X0329271Y0138667D01*
X0329271Y0138513D01*
X0329224Y0138367D01*
X0329271Y0137808D01*
X0329271Y0137248D01*
X0329330Y0137105D01*
X0331581Y0110253D01*
X0330645Y0110253D01*
X0329627Y0109831D01*
X0329166Y0109371D01*
X0327027Y0111510D01*
X0322579Y0111510D01*
X0322466Y0111397D01*
X0322466Y0117213D01*
X0322755Y0117502D01*
X0323447Y0119174D01*
X0323447Y0120984D01*
X0323133Y0121742D01*
X0324803Y0121742D01*
X0324803Y0126142D01*
X0324803Y0130542D01*
X0322981Y0130542D01*
X0320403Y0127964D01*
X0320403Y0126142D01*
X0324803Y0126142D01*
X0324803Y0126142D01*
X0324803Y0126142D01*
X0324803Y0130542D01*
X0326626Y0130542D01*
X0329203Y0127964D01*
X0329203Y0126142D01*
X0324803Y0126142D01*
X0320403Y0126142D01*
X0320403Y0124380D01*
X0320290Y0124427D01*
X0320290Y0125334D01*
X0317145Y0128479D01*
X0312698Y0128479D01*
X0311117Y0126898D01*
X0311117Y0130255D01*
X0307972Y0133400D01*
X0303524Y0133400D01*
X0301024Y0130899D01*
X0298444Y0133479D01*
X0293997Y0133479D01*
X0290852Y0130334D01*
X0290852Y0125887D01*
X0293997Y0122742D01*
X0298444Y0122742D01*
X0300945Y0125242D01*
X0303524Y0122663D01*
X0307972Y0122663D01*
X0309553Y0124244D01*
X0309553Y0120887D01*
X0312698Y0117742D01*
X0314941Y0117742D01*
X0315041Y0117502D01*
X0315329Y0117213D01*
X0315329Y0106319D01*
X0313897Y0106912D01*
X0312087Y0106912D01*
X0310415Y0106219D01*
X0309135Y0104939D01*
X0308443Y0103267D01*
X0308443Y0102859D01*
X0306396Y0100813D01*
X0304917Y0100813D01*
X0306620Y0101518D01*
X0308285Y0103183D01*
X0309186Y0105358D01*
X0309186Y0107713D01*
X0308285Y0109888D01*
X0306638Y0111535D01*
X0309186Y0114084D01*
X0309186Y0118987D01*
X0305719Y0122454D01*
X0300816Y0122454D01*
X0297349Y0118987D01*
X0297349Y0114084D01*
X0299898Y0111535D01*
X0298250Y0109888D01*
X0297349Y0107713D01*
X0297349Y0105358D01*
X0298250Y0103183D01*
X0299915Y0101518D01*
X0301618Y0100813D01*
X0298109Y0100813D01*
X0296798Y0100269D01*
X0295794Y0099265D01*
X0286345Y0089817D01*
X0285911Y0088769D01*
X0285911Y0088884D01*
X0284987Y0091115D01*
X0287643Y0091115D01*
X0286221Y0089517D02*
X0285649Y0089517D01*
X0284987Y0091115D02*
X0283280Y0092822D01*
X0281050Y0093746D01*
X0278635Y0093746D01*
X0276405Y0092822D01*
X0274698Y0091115D01*
X0274390Y0090371D01*
X0274082Y0091115D01*
X0272375Y0092822D01*
X0270144Y0093746D01*
X0267730Y0093746D01*
X0265499Y0092822D01*
X0263792Y0091115D01*
X0263484Y0090371D01*
X0263176Y0091115D01*
X0261469Y0092822D01*
X0259239Y0093746D01*
X0256824Y0093746D01*
X0254594Y0092822D01*
X0252887Y0091115D01*
X0252579Y0090371D01*
X0252271Y0091115D01*
X0250564Y0092822D01*
X0248333Y0093746D01*
X0245919Y0093746D01*
X0243688Y0092822D01*
X0241981Y0091115D01*
X0241673Y0090371D01*
X0241365Y0091115D01*
X0239658Y0092822D01*
X0237428Y0093746D01*
X0235013Y0093746D01*
X0232783Y0092822D01*
X0231076Y0091115D01*
X0217867Y0091115D01*
X0219056Y0089927D02*
X0216679Y0092304D01*
X0213767Y0093985D01*
X0210520Y0094855D01*
X0207158Y0094855D01*
X0203910Y0093985D01*
X0200999Y0092304D01*
X0198621Y0089927D01*
X0196940Y0087015D01*
X0196070Y0083768D01*
X0196070Y0080406D01*
X0196940Y0077158D01*
X0198621Y0074247D01*
X0199233Y0073635D01*
X0186536Y0073635D01*
X0188664Y0074516D01*
X0190484Y0076336D01*
X0191468Y0078713D01*
X0191468Y0081287D01*
X0190484Y0083664D01*
X0189148Y0085000D01*
X0190484Y0086336D01*
X0191468Y0088713D01*
X0191468Y0091287D01*
X0190484Y0093664D01*
X0189148Y0095000D01*
X0190484Y0096336D01*
X0191468Y0098713D01*
X0191468Y0099271D01*
X0194461Y0096279D01*
X0199240Y0096279D01*
X0202330Y0099369D01*
X0203367Y0098332D01*
X0207814Y0098332D01*
X0210959Y0101477D01*
X0210959Y0105924D01*
X0207814Y0109069D01*
X0203367Y0109069D01*
X0200677Y0106379D01*
X0201398Y0107100D02*
X0199955Y0107100D01*
X0202996Y0108699D02*
X0191462Y0108699D01*
X0191468Y0110297D02*
X0226587Y0110297D01*
X0226587Y0110862D02*
X0226587Y0109069D01*
X0223367Y0109069D01*
X0220222Y0105924D01*
X0220222Y0101477D01*
X0223367Y0098332D01*
X0227814Y0098332D01*
X0230959Y0101477D01*
X0230959Y0102139D01*
X0235311Y0102139D01*
X0238924Y0105752D01*
X0238924Y0110862D01*
X0236479Y0113307D01*
X0238924Y0115752D01*
X0238924Y0120862D01*
X0236479Y0123307D01*
X0238924Y0125752D01*
X0238924Y0130862D01*
X0236479Y0133307D01*
X0238924Y0135752D01*
X0238924Y0140862D01*
X0235311Y0144476D01*
X0230201Y0144476D01*
X0227367Y0141642D01*
X0227292Y0141717D01*
X0229613Y0144022D01*
X0229628Y0148469D01*
X0227380Y0150733D01*
X0229935Y0153288D01*
X0229935Y0157736D01*
X0226791Y0160880D01*
X0222343Y0160880D01*
X0219198Y0157736D01*
X0219198Y0153288D01*
X0221444Y0151042D01*
X0218891Y0148507D01*
X0218876Y0144059D01*
X0221207Y0141712D01*
X0218883Y0139389D01*
X0218883Y0134942D01*
X0222028Y0131797D01*
X0226476Y0131797D01*
X0228509Y0133830D01*
X0229032Y0133307D01*
X0226587Y0130862D01*
X0226587Y0125752D01*
X0229032Y0123307D01*
X0226587Y0120862D01*
X0226587Y0115752D01*
X0229032Y0113307D01*
X0226587Y0110862D01*
X0227621Y0111896D02*
X0219124Y0111896D01*
X0218589Y0111360D02*
X0220254Y0113025D01*
X0221155Y0115201D01*
X0221155Y0117555D01*
X0220254Y0119731D01*
X0218606Y0121378D01*
X0221155Y0123926D01*
X0221155Y0128829D01*
X0217688Y0132296D01*
X0212785Y0132296D01*
X0209318Y0128829D01*
X0209318Y0123926D01*
X0211866Y0121378D01*
X0210219Y0119731D01*
X0209318Y0117555D01*
X0209318Y0115201D01*
X0210219Y0113025D01*
X0211884Y0111360D01*
X0214059Y0110459D01*
X0216413Y0110459D01*
X0218589Y0111360D01*
X0220448Y0113494D02*
X0228845Y0113494D01*
X0227247Y0115093D02*
X0221110Y0115093D01*
X0221155Y0116691D02*
X0226587Y0116691D01*
X0226587Y0118290D02*
X0220850Y0118290D01*
X0220096Y0119888D02*
X0226587Y0119888D01*
X0227212Y0121487D02*
X0218715Y0121487D01*
X0220314Y0123085D02*
X0228811Y0123085D01*
X0227656Y0124684D02*
X0221155Y0124684D01*
X0221155Y0126282D02*
X0226587Y0126282D01*
X0226587Y0127881D02*
X0221155Y0127881D01*
X0220505Y0129479D02*
X0226587Y0129479D01*
X0226803Y0131078D02*
X0218906Y0131078D01*
X0221149Y0132676D02*
X0190893Y0132676D01*
X0191468Y0131078D02*
X0211566Y0131078D01*
X0209968Y0129479D02*
X0191468Y0129479D01*
X0191124Y0127881D02*
X0209318Y0127881D01*
X0209318Y0126282D02*
X0190430Y0126282D01*
X0189464Y0124684D02*
X0209318Y0124684D01*
X0210159Y0123085D02*
X0190723Y0123085D01*
X0191386Y0121487D02*
X0211757Y0121487D01*
X0210377Y0119888D02*
X0191468Y0119888D01*
X0191293Y0118290D02*
X0209622Y0118290D01*
X0209318Y0116691D02*
X0190631Y0116691D01*
X0189241Y0115093D02*
X0209362Y0115093D01*
X0210025Y0113494D02*
X0190554Y0113494D01*
X0191216Y0111896D02*
X0211348Y0111896D01*
X0208185Y0108699D02*
X0222996Y0108699D01*
X0221398Y0107100D02*
X0209783Y0107100D01*
X0210959Y0105502D02*
X0220222Y0105502D01*
X0220222Y0103903D02*
X0210959Y0103903D01*
X0210959Y0102305D02*
X0220222Y0102305D01*
X0220993Y0100706D02*
X0210188Y0100706D01*
X0208590Y0099108D02*
X0222591Y0099108D01*
X0228590Y0099108D02*
X0295636Y0099108D01*
X0294037Y0097509D02*
X0200470Y0097509D01*
X0202069Y0099108D02*
X0202591Y0099108D01*
X0205131Y0094312D02*
X0189836Y0094312D01*
X0190059Y0095911D02*
X0292439Y0095911D01*
X0290840Y0094312D02*
X0212546Y0094312D01*
X0215969Y0092714D02*
X0232675Y0092714D01*
X0231076Y0091115D02*
X0230152Y0088884D01*
X0230152Y0086470D01*
X0231076Y0084240D01*
X0232783Y0082533D01*
X0235013Y0081609D01*
X0237428Y0081609D01*
X0239658Y0082533D01*
X0241365Y0084240D01*
X0241673Y0084984D01*
X0241981Y0084240D01*
X0243688Y0082533D01*
X0245919Y0081609D01*
X0248333Y0081609D01*
X0250564Y0082533D01*
X0252271Y0084240D01*
X0252579Y0084984D01*
X0252887Y0084240D01*
X0254594Y0082533D01*
X0256824Y0081609D01*
X0259239Y0081609D01*
X0261469Y0082533D01*
X0263176Y0084240D01*
X0263484Y0084984D01*
X0263792Y0084240D01*
X0265499Y0082533D01*
X0265514Y0082527D01*
X0265407Y0082268D01*
X0264691Y0082565D01*
X0262277Y0082565D01*
X0260047Y0081641D01*
X0258340Y0079934D01*
X0258031Y0079190D01*
X0257723Y0079934D01*
X0256016Y0081641D01*
X0253786Y0082565D01*
X0251372Y0082565D01*
X0249141Y0081641D01*
X0247434Y0079934D01*
X0247126Y0079190D01*
X0246818Y0079934D01*
X0245111Y0081641D01*
X0242880Y0082565D01*
X0240466Y0082565D01*
X0238236Y0081641D01*
X0236529Y0079934D01*
X0235605Y0077703D01*
X0235605Y0075289D01*
X0236290Y0073635D01*
X0218444Y0073635D01*
X0219056Y0074247D01*
X0220737Y0077158D01*
X0221607Y0080406D01*
X0221607Y0083768D01*
X0220737Y0087015D01*
X0219056Y0089927D01*
X0219293Y0089517D02*
X0230414Y0089517D01*
X0230152Y0087918D02*
X0220216Y0087918D01*
X0220923Y0086320D02*
X0230214Y0086320D01*
X0230876Y0084721D02*
X0221352Y0084721D01*
X0221607Y0083123D02*
X0223933Y0083123D01*
X0223308Y0082498D02*
X0222616Y0080826D01*
X0222616Y0079016D01*
X0223308Y0077344D01*
X0224588Y0076064D01*
X0226260Y0075372D01*
X0228070Y0075372D01*
X0229742Y0076064D01*
X0231022Y0077344D01*
X0231715Y0079016D01*
X0231715Y0080826D01*
X0231022Y0082498D01*
X0229742Y0083778D01*
X0228070Y0084471D01*
X0226260Y0084471D01*
X0224588Y0083778D01*
X0223308Y0082498D01*
X0222905Y0081524D02*
X0221607Y0081524D01*
X0221478Y0079926D02*
X0222616Y0079926D01*
X0222901Y0078327D02*
X0221050Y0078327D01*
X0220489Y0076729D02*
X0223924Y0076729D01*
X0219566Y0075130D02*
X0235671Y0075130D01*
X0235605Y0076729D02*
X0230407Y0076729D01*
X0231429Y0078327D02*
X0235863Y0078327D01*
X0236525Y0079926D02*
X0231715Y0079926D01*
X0231426Y0081524D02*
X0238119Y0081524D01*
X0240248Y0083123D02*
X0243098Y0083123D01*
X0241782Y0084721D02*
X0241565Y0084721D01*
X0245227Y0081524D02*
X0249025Y0081524D01*
X0247431Y0079926D02*
X0246821Y0079926D01*
X0251154Y0083123D02*
X0254004Y0083123D01*
X0252687Y0084721D02*
X0252470Y0084721D01*
X0256133Y0081524D02*
X0259930Y0081524D01*
X0258336Y0079926D02*
X0257727Y0079926D01*
X0262059Y0083123D02*
X0264909Y0083123D01*
X0263593Y0084721D02*
X0263376Y0084721D01*
X0263176Y0091115D02*
X0263793Y0091115D01*
X0265391Y0092714D02*
X0261577Y0092714D01*
X0254486Y0092714D02*
X0250672Y0092714D01*
X0252270Y0091115D02*
X0252887Y0091115D01*
X0243580Y0092714D02*
X0239766Y0092714D01*
X0241365Y0091115D02*
X0241982Y0091115D01*
X0232193Y0083123D02*
X0230398Y0083123D01*
X0230188Y0100706D02*
X0297852Y0100706D01*
X0299128Y0102305D02*
X0280908Y0102305D01*
X0280350Y0102074D02*
X0282526Y0102975D01*
X0284191Y0104640D01*
X0285092Y0106815D01*
X0285092Y0109169D01*
X0284191Y0111345D01*
X0282543Y0112992D01*
X0285092Y0115541D01*
X0285092Y0120444D01*
X0282085Y0123450D01*
X0285058Y0123450D01*
X0288203Y0126595D01*
X0288203Y0131043D01*
X0285058Y0134187D01*
X0280611Y0134187D01*
X0277466Y0131043D01*
X0277466Y0126595D01*
X0280151Y0123911D01*
X0276722Y0123911D01*
X0273255Y0120444D01*
X0273255Y0115541D01*
X0275803Y0112992D01*
X0274156Y0111345D01*
X0273255Y0109169D01*
X0273255Y0106815D01*
X0274156Y0104640D01*
X0275821Y0102975D01*
X0277996Y0102074D01*
X0280350Y0102074D01*
X0283454Y0103903D02*
X0297952Y0103903D01*
X0297349Y0105502D02*
X0284548Y0105502D01*
X0285092Y0107100D02*
X0297349Y0107100D01*
X0297758Y0108699D02*
X0285092Y0108699D01*
X0284625Y0110297D02*
X0298660Y0110297D01*
X0299537Y0111896D02*
X0283640Y0111896D01*
X0283045Y0113494D02*
X0297939Y0113494D01*
X0297349Y0115093D02*
X0284644Y0115093D01*
X0285092Y0116691D02*
X0297349Y0116691D01*
X0297349Y0118290D02*
X0285092Y0118290D01*
X0285092Y0119888D02*
X0298251Y0119888D01*
X0299849Y0121487D02*
X0284048Y0121487D01*
X0282450Y0123085D02*
X0293653Y0123085D01*
X0292055Y0124684D02*
X0286292Y0124684D01*
X0287890Y0126282D02*
X0290852Y0126282D01*
X0290852Y0127881D02*
X0288203Y0127881D01*
X0288203Y0129479D02*
X0290852Y0129479D01*
X0291596Y0131078D02*
X0288168Y0131078D01*
X0286569Y0132676D02*
X0293194Y0132676D01*
X0299246Y0132676D02*
X0302801Y0132676D01*
X0301202Y0131078D02*
X0300845Y0131078D01*
X0300386Y0124684D02*
X0301503Y0124684D01*
X0303102Y0123085D02*
X0298788Y0123085D01*
X0306686Y0121487D02*
X0309553Y0121487D01*
X0309553Y0123085D02*
X0308394Y0123085D01*
X0308285Y0119888D02*
X0310551Y0119888D01*
X0309186Y0118290D02*
X0312149Y0118290D01*
X0309186Y0116691D02*
X0315329Y0116691D01*
X0315329Y0115093D02*
X0309186Y0115093D01*
X0308597Y0113494D02*
X0315329Y0113494D01*
X0315329Y0111896D02*
X0306998Y0111896D01*
X0307876Y0110297D02*
X0315329Y0110297D01*
X0315329Y0108699D02*
X0308778Y0108699D01*
X0309186Y0107100D02*
X0315329Y0107100D01*
X0318898Y0104331D02*
X0318898Y0120079D01*
X0323081Y0118290D02*
X0330907Y0118290D01*
X0330773Y0119888D02*
X0323447Y0119888D01*
X0323239Y0121487D02*
X0330639Y0121487D01*
X0330505Y0123085D02*
X0327969Y0123085D01*
X0329203Y0124319D02*
X0326626Y0121742D01*
X0324803Y0121742D01*
X0324803Y0126142D01*
X0324803Y0126142D01*
X0324803Y0126142D01*
X0329203Y0126142D01*
X0329203Y0124319D01*
X0329203Y0124684D02*
X0330371Y0124684D01*
X0330237Y0126282D02*
X0329203Y0126282D01*
X0329203Y0127881D02*
X0330103Y0127881D01*
X0329969Y0129479D02*
X0327688Y0129479D01*
X0329835Y0131078D02*
X0310294Y0131078D01*
X0311117Y0129479D02*
X0321918Y0129479D01*
X0320403Y0127881D02*
X0317743Y0127881D01*
X0319341Y0126282D02*
X0320403Y0126282D01*
X0320403Y0124684D02*
X0320290Y0124684D01*
X0324803Y0124684D02*
X0324803Y0124684D01*
X0324803Y0126282D02*
X0324803Y0126282D01*
X0324803Y0127881D02*
X0324803Y0127881D01*
X0324803Y0129479D02*
X0324803Y0129479D01*
X0329701Y0132676D02*
X0308695Y0132676D01*
X0311117Y0127881D02*
X0312100Y0127881D01*
X0313099Y0138710D02*
X0310521Y0141288D01*
X0310521Y0143110D01*
X0314921Y0143110D01*
X0314921Y0143110D01*
X0314921Y0143110D01*
X0314921Y0138710D01*
X0313099Y0138710D01*
X0312738Y0139070D02*
X0268924Y0139070D01*
X0268924Y0137472D02*
X0329271Y0137472D01*
X0329433Y0135873D02*
X0268924Y0135873D01*
X0268924Y0135752D02*
X0268924Y0140862D01*
X0265311Y0144476D01*
X0260201Y0144476D01*
X0256587Y0140862D01*
X0256587Y0135752D01*
X0259032Y0133307D01*
X0256587Y0130862D01*
X0256587Y0125752D01*
X0259032Y0123307D01*
X0256587Y0120862D01*
X0256587Y0115752D01*
X0259032Y0113307D01*
X0256587Y0110862D01*
X0256587Y0105752D01*
X0260201Y0102139D01*
X0265311Y0102139D01*
X0268924Y0105752D01*
X0268924Y0110862D01*
X0266479Y0113307D01*
X0268924Y0115752D01*
X0268924Y0120862D01*
X0266479Y0123307D01*
X0268924Y0125752D01*
X0268924Y0130862D01*
X0266479Y0133307D01*
X0268924Y0135752D01*
X0267447Y0134275D02*
X0329567Y0134275D01*
X0329438Y0139070D02*
X0317104Y0139070D01*
X0316744Y0138710D02*
X0319321Y0141288D01*
X0319321Y0143110D01*
X0314921Y0143110D01*
X0310521Y0143110D01*
X0310521Y0144933D01*
X0313099Y0147510D01*
X0314921Y0147510D01*
X0314921Y0143110D01*
X0314921Y0138710D01*
X0316744Y0138710D01*
X0314921Y0139070D02*
X0314921Y0139070D01*
X0314921Y0140669D02*
X0314921Y0140669D01*
X0314921Y0142268D02*
X0314921Y0142268D01*
X0314921Y0143110D02*
X0314921Y0143110D01*
X0314921Y0143110D01*
X0314921Y0147510D01*
X0316744Y0147510D01*
X0319321Y0144933D01*
X0319321Y0143110D01*
X0314921Y0143110D01*
X0314921Y0143866D02*
X0314921Y0143866D01*
X0314921Y0145465D02*
X0314921Y0145465D01*
X0314921Y0147063D02*
X0314921Y0147063D01*
X0312652Y0147063D02*
X0310148Y0147063D01*
X0310148Y0146209D02*
X0310148Y0148031D01*
X0305748Y0148031D01*
X0305748Y0143631D01*
X0305748Y0148031D01*
X0305748Y0148031D01*
X0301348Y0148031D01*
X0301348Y0146209D01*
X0303925Y0143631D01*
X0305748Y0143631D01*
X0307571Y0143631D01*
X0310148Y0146209D01*
X0309404Y0145465D02*
X0311053Y0145465D01*
X0310521Y0143866D02*
X0307805Y0143866D01*
X0305748Y0143866D02*
X0305748Y0143866D01*
X0305748Y0145465D02*
X0305748Y0145465D01*
X0305748Y0147063D02*
X0305748Y0147063D01*
X0305748Y0148031D02*
X0305748Y0148032D01*
X0305748Y0152431D01*
X0303925Y0152431D01*
X0301348Y0149854D01*
X0301348Y0148032D01*
X0305748Y0148032D01*
X0305748Y0148032D01*
X0305748Y0152431D01*
X0307571Y0152431D01*
X0310148Y0149854D01*
X0310148Y0148032D01*
X0305748Y0148032D01*
X0305748Y0148031D01*
X0305748Y0148662D02*
X0305748Y0148662D01*
X0305748Y0150260D02*
X0305748Y0150260D01*
X0305748Y0151859D02*
X0305748Y0151859D01*
X0303353Y0151859D02*
X0298695Y0151859D01*
X0298043Y0152510D02*
X0296221Y0152510D01*
X0296221Y0148110D01*
X0296221Y0148110D01*
X0300620Y0148110D01*
X0300620Y0146288D01*
X0298043Y0143710D01*
X0296221Y0143710D01*
X0296221Y0148110D01*
X0296220Y0148110D01*
X0291820Y0148110D01*
X0291820Y0146288D01*
X0294398Y0143710D01*
X0296220Y0143710D01*
X0296220Y0148110D01*
X0296220Y0148110D01*
X0291820Y0148110D01*
X0291820Y0149933D01*
X0294398Y0152510D01*
X0296220Y0152510D01*
X0296220Y0148110D01*
X0296221Y0148110D01*
X0300620Y0148110D01*
X0300620Y0149933D01*
X0298043Y0152510D01*
X0296221Y0151859D02*
X0296220Y0151859D01*
X0296220Y0150260D02*
X0296221Y0150260D01*
X0296220Y0148662D02*
X0296221Y0148662D01*
X0296220Y0147063D02*
X0296221Y0147063D01*
X0296220Y0145465D02*
X0296221Y0145465D01*
X0296220Y0143866D02*
X0296221Y0143866D01*
X0298199Y0143866D02*
X0303691Y0143866D01*
X0302092Y0145465D02*
X0299797Y0145465D01*
X0300620Y0147063D02*
X0301348Y0147063D01*
X0301348Y0148662D02*
X0300620Y0148662D01*
X0300293Y0150260D02*
X0301754Y0150260D01*
X0308143Y0151859D02*
X0319617Y0151859D01*
X0319617Y0150260D02*
X0309742Y0150260D01*
X0310148Y0148662D02*
X0319929Y0148662D01*
X0321527Y0147063D02*
X0317191Y0147063D01*
X0318789Y0145465D02*
X0332522Y0145465D01*
X0333701Y0143866D02*
X0319321Y0143866D01*
X0319321Y0142268D02*
X0332103Y0142268D01*
X0330459Y0140669D02*
X0318703Y0140669D01*
X0311140Y0140669D02*
X0268924Y0140669D01*
X0267519Y0142268D02*
X0310521Y0142268D01*
X0320000Y0153457D02*
X0285789Y0153457D01*
X0285058Y0154187D02*
X0280611Y0154187D01*
X0277466Y0151043D01*
X0277466Y0146595D01*
X0280611Y0143450D01*
X0285058Y0143450D01*
X0288203Y0146595D01*
X0288203Y0151043D01*
X0285058Y0154187D01*
X0287387Y0151859D02*
X0293746Y0151859D01*
X0292148Y0150260D02*
X0288203Y0150260D01*
X0288203Y0148662D02*
X0291820Y0148662D01*
X0291820Y0147063D02*
X0288203Y0147063D01*
X0287072Y0145465D02*
X0292644Y0145465D01*
X0294242Y0143866D02*
X0285474Y0143866D01*
X0280195Y0143866D02*
X0265921Y0143866D01*
X0259591Y0143866D02*
X0235921Y0143866D01*
X0237519Y0142268D02*
X0257993Y0142268D01*
X0256587Y0140669D02*
X0238924Y0140669D01*
X0238924Y0139070D02*
X0256587Y0139070D01*
X0256587Y0137472D02*
X0238924Y0137472D01*
X0238924Y0135873D02*
X0256587Y0135873D01*
X0258064Y0134275D02*
X0237447Y0134275D01*
X0237110Y0132676D02*
X0258402Y0132676D01*
X0256803Y0131078D02*
X0238709Y0131078D01*
X0238924Y0129479D02*
X0256587Y0129479D01*
X0256587Y0127881D02*
X0238924Y0127881D01*
X0238924Y0126282D02*
X0256587Y0126282D01*
X0257656Y0124684D02*
X0237856Y0124684D01*
X0236701Y0123085D02*
X0258811Y0123085D01*
X0257212Y0121487D02*
X0238300Y0121487D01*
X0238924Y0119888D02*
X0256587Y0119888D01*
X0256587Y0118290D02*
X0238924Y0118290D01*
X0238924Y0116691D02*
X0256587Y0116691D01*
X0257247Y0115093D02*
X0238265Y0115093D01*
X0236667Y0113494D02*
X0258845Y0113494D01*
X0257621Y0111896D02*
X0237891Y0111896D01*
X0238924Y0110297D02*
X0256587Y0110297D01*
X0256587Y0108699D02*
X0238924Y0108699D01*
X0238924Y0107100D02*
X0256587Y0107100D01*
X0256838Y0105502D02*
X0238674Y0105502D01*
X0237076Y0103903D02*
X0258436Y0103903D01*
X0260035Y0102305D02*
X0235477Y0102305D01*
X0265477Y0102305D02*
X0277438Y0102305D01*
X0274892Y0103903D02*
X0267076Y0103903D01*
X0268674Y0105502D02*
X0273799Y0105502D01*
X0273255Y0107100D02*
X0268924Y0107100D01*
X0268924Y0108699D02*
X0273255Y0108699D01*
X0273722Y0110297D02*
X0268924Y0110297D01*
X0267891Y0111896D02*
X0274707Y0111896D01*
X0275301Y0113494D02*
X0266667Y0113494D01*
X0268265Y0115093D02*
X0273703Y0115093D01*
X0273255Y0116691D02*
X0268924Y0116691D01*
X0268924Y0118290D02*
X0273255Y0118290D01*
X0273255Y0119888D02*
X0268924Y0119888D01*
X0268300Y0121487D02*
X0274298Y0121487D01*
X0275896Y0123085D02*
X0266701Y0123085D01*
X0267856Y0124684D02*
X0279377Y0124684D01*
X0277779Y0126282D02*
X0268924Y0126282D01*
X0268924Y0127881D02*
X0277466Y0127881D01*
X0277466Y0129479D02*
X0268924Y0129479D01*
X0268709Y0131078D02*
X0277501Y0131078D01*
X0279100Y0132676D02*
X0267110Y0132676D01*
X0278597Y0145465D02*
X0229618Y0145465D01*
X0229623Y0147063D02*
X0277466Y0147063D01*
X0277466Y0148662D02*
X0229437Y0148662D01*
X0227850Y0150260D02*
X0277466Y0150260D01*
X0278282Y0151859D02*
X0228506Y0151859D01*
X0229935Y0153457D02*
X0235811Y0153457D01*
X0237312Y0151956D02*
X0242215Y0151956D01*
X0244764Y0154504D01*
X0246411Y0152857D01*
X0248587Y0151956D01*
X0250941Y0151956D01*
X0253116Y0152857D01*
X0254781Y0154521D01*
X0255682Y0156697D01*
X0255682Y0159051D01*
X0254781Y0161227D01*
X0253116Y0162891D01*
X0250941Y0163793D01*
X0248587Y0163793D01*
X0246411Y0162891D01*
X0244764Y0161244D01*
X0242215Y0163793D01*
X0237312Y0163793D01*
X0233845Y0160326D01*
X0233845Y0155422D01*
X0237312Y0151956D01*
X0234212Y0155056D02*
X0229935Y0155056D01*
X0229935Y0156654D02*
X0233845Y0156654D01*
X0233845Y0158253D02*
X0229418Y0158253D01*
X0227820Y0159851D02*
X0233845Y0159851D01*
X0234969Y0161450D02*
X0190312Y0161450D01*
X0190365Y0161288D02*
X0190097Y0162111D01*
X0189704Y0162883D01*
X0189195Y0163583D01*
X0188583Y0164195D01*
X0188331Y0164378D01*
X0188664Y0164516D01*
X0190484Y0166336D01*
X0191468Y0168713D01*
X0191468Y0171287D01*
X0190484Y0173664D01*
X0189148Y0175000D01*
X0190484Y0176336D01*
X0191468Y0178713D01*
X0191468Y0181287D01*
X0190484Y0183664D01*
X0189148Y0185000D01*
X0190484Y0186336D01*
X0191468Y0188713D01*
X0191468Y0191287D01*
X0190484Y0193664D01*
X0189148Y0195000D01*
X0190484Y0196336D01*
X0191468Y0198713D01*
X0191468Y0201287D01*
X0190484Y0203664D01*
X0188664Y0205484D01*
X0186287Y0206468D01*
X0183713Y0206468D01*
X0181336Y0205484D01*
X0179516Y0203664D01*
X0178531Y0201287D01*
X0178531Y0198713D01*
X0179516Y0196336D01*
X0180852Y0195000D01*
X0179516Y0193664D01*
X0178531Y0191287D01*
X0178531Y0188713D01*
X0179516Y0186336D01*
X0180852Y0185000D01*
X0179516Y0183664D01*
X0178531Y0181287D01*
X0178531Y0178713D01*
X0179516Y0176336D01*
X0180852Y0175000D01*
X0179516Y0173664D01*
X0178531Y0171287D01*
X0178531Y0168713D01*
X0179516Y0166336D01*
X0181336Y0164516D01*
X0181669Y0164378D01*
X0181417Y0164195D01*
X0180805Y0163583D01*
X0180296Y0162883D01*
X0179903Y0162111D01*
X0179635Y0161288D01*
X0179500Y0160433D01*
X0179500Y0160200D01*
X0184800Y0160200D01*
X0184800Y0159800D01*
X0179500Y0159800D01*
X0179500Y0159567D01*
X0179635Y0158712D01*
X0179903Y0157889D01*
X0180296Y0157117D01*
X0180805Y0156417D01*
X0181417Y0155805D01*
X0181669Y0155622D01*
X0181336Y0155484D01*
X0179516Y0153664D01*
X0178531Y0151287D01*
X0178531Y0148713D01*
X0179516Y0146336D01*
X0181336Y0144516D01*
X0183713Y0143531D01*
X0186287Y0143531D01*
X0188664Y0144516D01*
X0190484Y0146336D01*
X0191468Y0148713D01*
X0191468Y0151287D01*
X0190484Y0153664D01*
X0188664Y0155484D01*
X0188331Y0155622D01*
X0188583Y0155805D01*
X0189195Y0156417D01*
X0189704Y0157117D01*
X0190097Y0157889D01*
X0190365Y0158712D01*
X0190500Y0159567D01*
X0190500Y0159800D01*
X0185200Y0159800D01*
X0185200Y0160200D01*
X0190500Y0160200D01*
X0190500Y0160433D01*
X0190365Y0161288D01*
X0189584Y0163048D02*
X0236568Y0163048D01*
X0242960Y0163048D02*
X0246789Y0163048D01*
X0244969Y0161450D02*
X0244558Y0161450D01*
X0243717Y0153457D02*
X0245811Y0153457D01*
X0253717Y0153457D02*
X0279881Y0153457D01*
X0275591Y0161417D02*
X0271654Y0165354D01*
X0204724Y0165354D01*
X0216535Y0177165D01*
X0216535Y0185039D01*
X0208661Y0192913D01*
X0204724Y0192913D01*
X0202910Y0186115D02*
X0200555Y0186115D01*
X0198380Y0185214D01*
X0196715Y0183549D01*
X0195814Y0181374D01*
X0195814Y0179020D01*
X0196715Y0176844D01*
X0198380Y0175179D01*
X0200555Y0174278D01*
X0202910Y0174278D01*
X0205085Y0175179D01*
X0206732Y0176827D01*
X0209281Y0174278D01*
X0214184Y0174278D01*
X0217651Y0177745D01*
X0217651Y0182648D01*
X0214184Y0186115D01*
X0209281Y0186115D01*
X0206732Y0183567D01*
X0205085Y0185214D01*
X0202910Y0186115D01*
X0204571Y0185427D02*
X0208593Y0185427D01*
X0206994Y0183829D02*
X0206470Y0183829D01*
X0198894Y0185427D02*
X0189575Y0185427D01*
X0190319Y0183829D02*
X0196994Y0183829D01*
X0196168Y0182230D02*
X0191078Y0182230D01*
X0191468Y0180632D02*
X0195814Y0180632D01*
X0195814Y0179033D02*
X0191468Y0179033D01*
X0190939Y0177435D02*
X0196470Y0177435D01*
X0197723Y0175836D02*
X0189984Y0175836D01*
X0189910Y0174238D02*
X0301214Y0174238D01*
X0301214Y0173165D02*
X0301214Y0175519D01*
X0302115Y0177694D01*
X0303780Y0179359D01*
X0305955Y0180260D01*
X0308310Y0180260D01*
X0310485Y0179359D01*
X0312150Y0177694D01*
X0313051Y0175519D01*
X0313051Y0173165D01*
X0312150Y0170989D01*
X0310485Y0169324D01*
X0308310Y0168423D01*
X0305955Y0168423D01*
X0303780Y0169324D01*
X0302115Y0170989D01*
X0301214Y0173165D01*
X0301431Y0172639D02*
X0190908Y0172639D01*
X0191468Y0171041D02*
X0302094Y0171041D01*
X0303662Y0169442D02*
X0191468Y0169442D01*
X0191108Y0167844D02*
X0293564Y0167844D01*
X0293710Y0167989D02*
X0292256Y0166545D01*
X0292241Y0162444D01*
X0293686Y0160989D01*
X0295131Y0159534D01*
X0299231Y0159520D01*
X0300686Y0160965D01*
X0302141Y0162409D01*
X0302155Y0166510D01*
X0300711Y0167965D01*
X0297198Y0164477D01*
X0297198Y0164477D01*
X0293686Y0160989D01*
X0297198Y0164477D01*
X0293710Y0167989D01*
X0297198Y0164477D01*
X0297198Y0164477D01*
X0300711Y0167965D01*
X0299266Y0169420D01*
X0295165Y0169434D01*
X0293710Y0167989D01*
X0293855Y0167844D02*
X0293855Y0167844D01*
X0295442Y0166245D02*
X0295443Y0166245D01*
X0297030Y0164647D02*
X0297030Y0164647D01*
X0297198Y0164477D02*
X0297198Y0164477D01*
X0297198Y0164477D01*
X0300686Y0160965D01*
X0297198Y0164477D01*
X0297369Y0164647D02*
X0297369Y0164647D01*
X0298617Y0163048D02*
X0298617Y0163048D01*
X0300205Y0161450D02*
X0300205Y0161450D01*
X0301175Y0161450D02*
X0338293Y0161450D01*
X0338293Y0161909D02*
X0338293Y0157461D01*
X0341438Y0154317D01*
X0345885Y0154317D01*
X0349030Y0157461D01*
X0349030Y0161909D01*
X0345885Y0165054D01*
X0341438Y0165054D01*
X0338293Y0161909D01*
X0339432Y0163048D02*
X0302143Y0163048D01*
X0302149Y0164647D02*
X0341031Y0164647D01*
X0339350Y0167348D02*
X0342494Y0170493D01*
X0342494Y0174940D01*
X0339350Y0178085D01*
X0337494Y0178085D01*
X0337494Y0182440D01*
X0334350Y0185585D01*
X0329902Y0185585D01*
X0326757Y0182440D01*
X0326757Y0178085D01*
X0324902Y0178085D01*
X0321757Y0174940D01*
X0321757Y0170493D01*
X0324902Y0167348D01*
X0329350Y0167348D01*
X0332126Y0170124D01*
X0334902Y0167348D01*
X0339350Y0167348D01*
X0339845Y0167844D02*
X0346533Y0167844D01*
X0347068Y0167309D02*
X0351515Y0167309D01*
X0354291Y0170085D01*
X0357068Y0167309D01*
X0361515Y0167309D01*
X0364660Y0170453D01*
X0364660Y0174901D01*
X0361515Y0178046D01*
X0359660Y0178046D01*
X0359660Y0182401D01*
X0356515Y0185546D01*
X0352980Y0185546D01*
X0354921Y0187487D01*
X0357776Y0184631D01*
X0362224Y0184631D01*
X0365368Y0187776D01*
X0365368Y0192224D01*
X0362224Y0195368D01*
X0357776Y0195368D01*
X0354921Y0192513D01*
X0352066Y0195368D01*
X0347619Y0195368D01*
X0345295Y0193045D01*
X0342972Y0195368D01*
X0338524Y0195368D01*
X0335380Y0192224D01*
X0335380Y0187776D01*
X0338524Y0184631D01*
X0342972Y0184631D01*
X0345295Y0186955D01*
X0347619Y0184631D01*
X0351153Y0184631D01*
X0348923Y0182401D01*
X0348923Y0178046D01*
X0347068Y0178046D01*
X0343923Y0174901D01*
X0343923Y0170453D01*
X0347068Y0167309D01*
X0344934Y0169442D02*
X0341444Y0169442D01*
X0342494Y0171041D02*
X0343923Y0171041D01*
X0343923Y0172639D02*
X0342494Y0172639D01*
X0342494Y0174238D02*
X0343923Y0174238D01*
X0344858Y0175836D02*
X0341598Y0175836D01*
X0340000Y0177435D02*
X0346457Y0177435D01*
X0348923Y0179033D02*
X0337494Y0179033D01*
X0337494Y0180632D02*
X0348923Y0180632D01*
X0348923Y0182230D02*
X0337494Y0182230D01*
X0336106Y0183829D02*
X0350351Y0183829D01*
X0346823Y0185427D02*
X0343768Y0185427D01*
X0337729Y0185427D02*
X0334507Y0185427D01*
X0336130Y0187026D02*
X0324411Y0187026D01*
X0324329Y0187223D02*
X0323050Y0188503D01*
X0321377Y0189195D01*
X0319567Y0189195D01*
X0317895Y0188503D01*
X0316615Y0187223D01*
X0315923Y0185551D01*
X0315923Y0183741D01*
X0316615Y0182069D01*
X0317895Y0180789D01*
X0319567Y0180096D01*
X0321377Y0180096D01*
X0323050Y0180789D01*
X0324329Y0182069D01*
X0325022Y0183741D01*
X0325022Y0185551D01*
X0324329Y0187223D01*
X0325022Y0185427D02*
X0329745Y0185427D01*
X0328146Y0183829D02*
X0325022Y0183829D01*
X0324396Y0182230D02*
X0326757Y0182230D01*
X0326757Y0180632D02*
X0322671Y0180632D01*
X0324252Y0177435D02*
X0312257Y0177435D01*
X0312920Y0175836D02*
X0322653Y0175836D01*
X0321757Y0174238D02*
X0313051Y0174238D01*
X0312833Y0172639D02*
X0321757Y0172639D01*
X0321757Y0171041D02*
X0312171Y0171041D01*
X0310603Y0169442D02*
X0322808Y0169442D01*
X0324407Y0167844D02*
X0300831Y0167844D01*
X0300589Y0167844D02*
X0300589Y0167844D01*
X0302155Y0166245D02*
X0368531Y0166245D01*
X0368531Y0164647D02*
X0366292Y0164647D01*
X0365885Y0165054D02*
X0361438Y0165054D01*
X0358293Y0161909D01*
X0358293Y0157461D01*
X0361438Y0154317D01*
X0365885Y0154317D01*
X0369030Y0157461D01*
X0369030Y0161909D01*
X0365885Y0165054D01*
X0367890Y0163048D02*
X0368807Y0163048D01*
X0369030Y0161450D02*
X0369469Y0161450D01*
X0369030Y0159851D02*
X0371001Y0159851D01*
X0369030Y0158253D02*
X0383058Y0158253D01*
X0383058Y0159851D02*
X0378999Y0159851D01*
X0380531Y0161450D02*
X0383058Y0161450D01*
X0383058Y0163048D02*
X0381193Y0163048D01*
X0381468Y0164647D02*
X0383058Y0164647D01*
X0383058Y0166245D02*
X0381468Y0166245D01*
X0380824Y0167844D02*
X0383058Y0167844D01*
X0383058Y0169442D02*
X0379706Y0169442D01*
X0380189Y0171041D02*
X0383058Y0171041D01*
X0383058Y0172639D02*
X0381024Y0172639D01*
X0381468Y0174238D02*
X0383058Y0174238D01*
X0383058Y0175836D02*
X0381468Y0175836D01*
X0380993Y0177435D02*
X0383058Y0177435D01*
X0383058Y0179033D02*
X0380115Y0179033D01*
X0379780Y0180632D02*
X0383058Y0180632D01*
X0383058Y0182230D02*
X0380854Y0182230D01*
X0381468Y0183829D02*
X0383058Y0183829D01*
X0383058Y0185427D02*
X0381468Y0185427D01*
X0381162Y0187026D02*
X0383058Y0187026D01*
X0383058Y0188624D02*
X0380500Y0188624D01*
X0379371Y0190223D02*
X0383058Y0190223D01*
X0383058Y0191821D02*
X0380685Y0191821D01*
X0381347Y0193420D02*
X0383058Y0193420D01*
X0383058Y0195018D02*
X0381468Y0195018D01*
X0381332Y0196617D02*
X0383058Y0196617D01*
X0383058Y0198215D02*
X0380670Y0198215D01*
X0379334Y0199814D02*
X0383058Y0199814D01*
X0383058Y0201412D02*
X0380515Y0201412D01*
X0381178Y0203011D02*
X0383058Y0203011D01*
X0383058Y0204609D02*
X0381468Y0204609D01*
X0381468Y0206208D02*
X0383058Y0206208D01*
X0383058Y0207806D02*
X0380839Y0207806D01*
X0379743Y0209405D02*
X0383058Y0209405D01*
X0383058Y0211003D02*
X0380151Y0211003D01*
X0381008Y0212602D02*
X0383058Y0212602D01*
X0383058Y0214201D02*
X0381468Y0214201D01*
X0381468Y0215799D02*
X0383058Y0215799D01*
X0383058Y0217398D02*
X0381008Y0217398D01*
X0380152Y0218996D02*
X0383058Y0218996D01*
X0383058Y0220595D02*
X0379742Y0220595D01*
X0380839Y0222193D02*
X0383058Y0222193D01*
X0383058Y0223792D02*
X0381468Y0223792D01*
X0381468Y0225390D02*
X0383058Y0225390D01*
X0383058Y0226989D02*
X0381178Y0226989D01*
X0380516Y0228587D02*
X0383058Y0228587D01*
X0383058Y0230186D02*
X0379333Y0230186D01*
X0380669Y0231784D02*
X0383058Y0231784D01*
X0383058Y0233383D02*
X0381332Y0233383D01*
X0381468Y0234981D02*
X0383058Y0234981D01*
X0383058Y0236580D02*
X0381347Y0236580D01*
X0380685Y0238178D02*
X0383058Y0238178D01*
X0383058Y0239777D02*
X0379371Y0239777D01*
X0370629Y0239777D02*
X0305109Y0239777D01*
X0305333Y0239684D02*
X0303661Y0240376D01*
X0301851Y0240376D01*
X0300179Y0239684D01*
X0298899Y0238404D01*
X0298206Y0236732D01*
X0298206Y0234922D01*
X0298899Y0233250D01*
X0300179Y0231970D01*
X0301851Y0231277D01*
X0303661Y0231277D01*
X0305333Y0231970D01*
X0306613Y0233250D01*
X0307305Y0234922D01*
X0307305Y0236732D01*
X0306613Y0238404D01*
X0305333Y0239684D01*
X0306706Y0238178D02*
X0369315Y0238178D01*
X0368653Y0236580D02*
X0307305Y0236580D01*
X0307305Y0234981D02*
X0368531Y0234981D01*
X0368668Y0233383D02*
X0306668Y0233383D01*
X0304885Y0231784D02*
X0369331Y0231784D01*
X0370667Y0230186D02*
X0240883Y0230186D01*
X0240883Y0231784D02*
X0300627Y0231784D01*
X0298844Y0233383D02*
X0240883Y0233383D01*
X0240883Y0233829D02*
X0240036Y0235876D01*
X0238469Y0237442D01*
X0236423Y0238290D01*
X0234207Y0238290D01*
X0232161Y0237442D01*
X0230594Y0235876D01*
X0230315Y0235201D01*
X0230036Y0235876D01*
X0228469Y0237442D01*
X0226423Y0238290D01*
X0224207Y0238290D01*
X0222161Y0237442D01*
X0220594Y0235876D01*
X0219746Y0233829D01*
X0219746Y0226014D01*
X0220594Y0223967D01*
X0222161Y0222401D01*
X0224207Y0221553D01*
X0226423Y0221553D01*
X0228469Y0222401D01*
X0230036Y0223967D01*
X0230315Y0224641D01*
X0230594Y0223967D01*
X0232161Y0222401D01*
X0234207Y0221553D01*
X0236423Y0221553D01*
X0238469Y0222401D01*
X0240036Y0223967D01*
X0240883Y0226014D01*
X0240883Y0233829D01*
X0240406Y0234981D02*
X0298206Y0234981D01*
X0298206Y0236580D02*
X0239332Y0236580D01*
X0236692Y0238178D02*
X0298805Y0238178D01*
X0300403Y0239777D02*
X0175997Y0239777D01*
X0175997Y0238178D02*
X0223938Y0238178D01*
X0226692Y0238178D02*
X0233938Y0238178D01*
X0231298Y0236580D02*
X0229332Y0236580D01*
X0221298Y0236580D02*
X0175997Y0236580D01*
X0175997Y0234981D02*
X0220224Y0234981D01*
X0219746Y0233383D02*
X0175997Y0233383D01*
X0175997Y0231784D02*
X0219746Y0231784D01*
X0219746Y0230186D02*
X0175997Y0230186D01*
X0175997Y0228587D02*
X0177271Y0228587D01*
X0182571Y0228587D02*
X0219746Y0228587D01*
X0219746Y0226989D02*
X0183940Y0226989D01*
X0184471Y0225390D02*
X0220005Y0225390D01*
X0220770Y0223792D02*
X0184427Y0223792D01*
X0183745Y0222193D02*
X0222661Y0222193D01*
X0227968Y0222193D02*
X0232661Y0222193D01*
X0230770Y0223792D02*
X0229860Y0223792D01*
X0237968Y0222193D02*
X0369161Y0222193D01*
X0368531Y0223792D02*
X0239860Y0223792D01*
X0240625Y0225390D02*
X0368531Y0225390D01*
X0368822Y0226989D02*
X0240883Y0226989D01*
X0240883Y0228587D02*
X0369484Y0228587D01*
X0370258Y0220595D02*
X0313122Y0220595D01*
X0312018Y0221698D02*
X0315485Y0218231D01*
X0315485Y0213328D01*
X0312018Y0209861D01*
X0307115Y0209861D01*
X0303648Y0213328D01*
X0303648Y0218231D01*
X0307115Y0221698D01*
X0312018Y0221698D01*
X0314720Y0218996D02*
X0369848Y0218996D01*
X0368992Y0217398D02*
X0315485Y0217398D01*
X0315485Y0215799D02*
X0368531Y0215799D01*
X0368531Y0214201D02*
X0363392Y0214201D01*
X0362224Y0215368D02*
X0357776Y0215368D01*
X0354921Y0212513D01*
X0352066Y0215368D01*
X0347619Y0215368D01*
X0345295Y0213045D01*
X0342972Y0215368D01*
X0338524Y0215368D01*
X0335380Y0212224D01*
X0335380Y0207776D01*
X0337819Y0205337D01*
X0337678Y0205337D01*
X0336006Y0204644D01*
X0335717Y0204356D01*
X0329999Y0204356D01*
X0328687Y0203813D01*
X0321357Y0196482D01*
X0245688Y0196482D01*
X0246786Y0197579D01*
X0246786Y0202027D01*
X0243754Y0205059D01*
X0246077Y0207383D01*
X0246077Y0211830D01*
X0242932Y0214975D01*
X0238485Y0214975D01*
X0235340Y0211830D01*
X0235340Y0207383D01*
X0238372Y0204350D01*
X0236049Y0202027D01*
X0236049Y0197579D01*
X0237146Y0196482D01*
X0225688Y0196482D01*
X0226786Y0197579D01*
X0226786Y0202027D01*
X0223754Y0205059D01*
X0226077Y0207383D01*
X0226077Y0211830D01*
X0222932Y0214975D01*
X0218485Y0214975D01*
X0215340Y0211830D01*
X0215340Y0207383D01*
X0218372Y0204350D01*
X0216049Y0202027D01*
X0216049Y0197579D01*
X0216165Y0197463D01*
X0215630Y0197463D01*
X0213958Y0196770D01*
X0212678Y0195491D01*
X0211986Y0193818D01*
X0211986Y0192008D01*
X0212678Y0190336D01*
X0213958Y0189056D01*
X0215630Y0188364D01*
X0217440Y0188364D01*
X0219113Y0189056D01*
X0219401Y0189345D01*
X0323544Y0189345D01*
X0324856Y0189888D01*
X0325860Y0190892D01*
X0332187Y0197219D01*
X0335717Y0197219D01*
X0336006Y0196930D01*
X0337678Y0196238D01*
X0339488Y0196238D01*
X0341160Y0196930D01*
X0342440Y0198210D01*
X0343132Y0199882D01*
X0343132Y0201692D01*
X0342440Y0203365D01*
X0341173Y0204631D01*
X0342972Y0204631D01*
X0345295Y0206955D01*
X0347619Y0204631D01*
X0352066Y0204631D01*
X0354921Y0207487D01*
X0357776Y0204631D01*
X0362224Y0204631D01*
X0365368Y0207776D01*
X0365368Y0212224D01*
X0362224Y0215368D01*
X0364990Y0212602D02*
X0368992Y0212602D01*
X0369849Y0211003D02*
X0365368Y0211003D01*
X0365368Y0209405D02*
X0370257Y0209405D01*
X0369161Y0207806D02*
X0365368Y0207806D01*
X0363800Y0206208D02*
X0368531Y0206208D01*
X0368531Y0204609D02*
X0341195Y0204609D01*
X0342586Y0203011D02*
X0368822Y0203011D01*
X0369485Y0201412D02*
X0343132Y0201412D01*
X0343104Y0199814D02*
X0370666Y0199814D01*
X0369330Y0198215D02*
X0342442Y0198215D01*
X0340403Y0196617D02*
X0368668Y0196617D01*
X0368531Y0195018D02*
X0362574Y0195018D01*
X0364172Y0193420D02*
X0368653Y0193420D01*
X0369315Y0191821D02*
X0365368Y0191821D01*
X0365368Y0190223D02*
X0370629Y0190223D01*
X0369500Y0188624D02*
X0365368Y0188624D01*
X0364618Y0187026D02*
X0368838Y0187026D01*
X0368531Y0185427D02*
X0363020Y0185427D01*
X0359660Y0182230D02*
X0369146Y0182230D01*
X0368531Y0183829D02*
X0358232Y0183829D01*
X0356980Y0185427D02*
X0356633Y0185427D01*
X0355382Y0187026D02*
X0354461Y0187026D01*
X0354015Y0193420D02*
X0355828Y0193420D01*
X0357426Y0195018D02*
X0352416Y0195018D01*
X0347269Y0195018D02*
X0343322Y0195018D01*
X0344920Y0193420D02*
X0345670Y0193420D01*
X0338174Y0195018D02*
X0329986Y0195018D01*
X0328388Y0193420D02*
X0336576Y0193420D01*
X0335380Y0191821D02*
X0326789Y0191821D01*
X0325191Y0190223D02*
X0335380Y0190223D01*
X0335380Y0188624D02*
X0322756Y0188624D01*
X0322835Y0192913D02*
X0216535Y0192913D01*
X0215001Y0188624D02*
X0191432Y0188624D01*
X0191468Y0190223D02*
X0212792Y0190223D01*
X0212063Y0191821D02*
X0191247Y0191821D01*
X0190585Y0193420D02*
X0211986Y0193420D01*
X0212483Y0195018D02*
X0189166Y0195018D01*
X0190600Y0196617D02*
X0213805Y0196617D01*
X0216049Y0198215D02*
X0191262Y0198215D01*
X0191468Y0199814D02*
X0216049Y0199814D01*
X0216049Y0201412D02*
X0191416Y0201412D01*
X0190754Y0203011D02*
X0217033Y0203011D01*
X0218113Y0204609D02*
X0189538Y0204609D01*
X0186916Y0206208D02*
X0216515Y0206208D01*
X0215340Y0207806D02*
X0175997Y0207806D01*
X0175997Y0206208D02*
X0183084Y0206208D01*
X0180462Y0204609D02*
X0175997Y0204609D01*
X0175997Y0203011D02*
X0179246Y0203011D01*
X0178584Y0201412D02*
X0175997Y0201412D01*
X0175997Y0199814D02*
X0178531Y0199814D01*
X0178738Y0198215D02*
X0175997Y0198215D01*
X0175997Y0196617D02*
X0179400Y0196617D01*
X0180834Y0195018D02*
X0175997Y0195018D01*
X0175997Y0193420D02*
X0179415Y0193420D01*
X0178753Y0191821D02*
X0175997Y0191821D01*
X0175997Y0190223D02*
X0178531Y0190223D01*
X0178568Y0188624D02*
X0175997Y0188624D01*
X0175997Y0187026D02*
X0179230Y0187026D01*
X0180425Y0185427D02*
X0175997Y0185427D01*
X0175997Y0183829D02*
X0179681Y0183829D01*
X0178922Y0182230D02*
X0175997Y0182230D01*
X0175997Y0180632D02*
X0178531Y0180632D01*
X0178531Y0179033D02*
X0175997Y0179033D01*
X0175997Y0177435D02*
X0179061Y0177435D01*
X0180016Y0175836D02*
X0175997Y0175836D01*
X0175997Y0174238D02*
X0180090Y0174238D01*
X0179092Y0172639D02*
X0175997Y0172639D01*
X0175997Y0171041D02*
X0178531Y0171041D01*
X0178531Y0169442D02*
X0175997Y0169442D01*
X0175997Y0167844D02*
X0178892Y0167844D01*
X0179607Y0166245D02*
X0175997Y0166245D01*
X0175997Y0164647D02*
X0181205Y0164647D01*
X0180416Y0163048D02*
X0175997Y0163048D01*
X0175997Y0161450D02*
X0179688Y0161450D01*
X0179785Y0158253D02*
X0175997Y0158253D01*
X0175997Y0159851D02*
X0184800Y0159851D01*
X0185200Y0159851D02*
X0201314Y0159851D01*
X0202343Y0160880D02*
X0199198Y0157736D01*
X0199198Y0153288D01*
X0202094Y0150392D01*
X0199858Y0148172D01*
X0199855Y0147200D01*
X0199240Y0147816D01*
X0194461Y0147816D01*
X0191082Y0144437D01*
X0191082Y0139658D01*
X0194461Y0136279D01*
X0199240Y0136279D01*
X0199852Y0136891D01*
X0199852Y0135343D01*
X0202429Y0132765D01*
X0204252Y0132765D01*
X0206074Y0132765D01*
X0208652Y0135343D01*
X0208652Y0137165D01*
X0204252Y0137165D01*
X0204252Y0132765D01*
X0204252Y0137165D01*
X0204252Y0137165D01*
X0204252Y0137165D01*
X0208652Y0137165D01*
X0208652Y0138988D01*
X0206074Y0141565D01*
X0204252Y0141565D01*
X0204252Y0137165D01*
X0204252Y0137165D01*
X0204252Y0141565D01*
X0202619Y0141565D01*
X0202619Y0141940D01*
X0204237Y0141934D01*
X0206059Y0141928D01*
X0208646Y0144496D01*
X0208652Y0146319D01*
X0208658Y0148141D01*
X0206670Y0150143D01*
X0206791Y0150143D01*
X0209935Y0153288D01*
X0209935Y0157736D01*
X0206791Y0160880D01*
X0202343Y0160880D01*
X0199716Y0158253D02*
X0190215Y0158253D01*
X0189367Y0156654D02*
X0199198Y0156654D01*
X0199198Y0155056D02*
X0189092Y0155056D01*
X0190569Y0153457D02*
X0199198Y0153457D01*
X0200628Y0151859D02*
X0191232Y0151859D01*
X0191468Y0150260D02*
X0201961Y0150260D01*
X0200351Y0148662D02*
X0191447Y0148662D01*
X0190785Y0147063D02*
X0193708Y0147063D01*
X0192110Y0145465D02*
X0189612Y0145465D01*
X0191082Y0143866D02*
X0187094Y0143866D01*
X0182906Y0143866D02*
X0175997Y0143866D01*
X0175997Y0142268D02*
X0191082Y0142268D01*
X0191082Y0140669D02*
X0175997Y0140669D01*
X0175997Y0139070D02*
X0191669Y0139070D01*
X0193268Y0137472D02*
X0175997Y0137472D01*
X0175997Y0135873D02*
X0182277Y0135873D01*
X0180127Y0134275D02*
X0175997Y0134275D01*
X0175997Y0132676D02*
X0179107Y0132676D01*
X0178531Y0131078D02*
X0175997Y0131078D01*
X0175997Y0129479D02*
X0178531Y0129479D01*
X0178876Y0127881D02*
X0175997Y0127881D01*
X0175997Y0126282D02*
X0179570Y0126282D01*
X0180536Y0124684D02*
X0175997Y0124684D01*
X0175997Y0123085D02*
X0179277Y0123085D01*
X0178614Y0121487D02*
X0175997Y0121487D01*
X0175997Y0119888D02*
X0178531Y0119888D01*
X0178707Y0118290D02*
X0175997Y0118290D01*
X0175997Y0116691D02*
X0179369Y0116691D01*
X0180759Y0115093D02*
X0175997Y0115093D01*
X0175997Y0113494D02*
X0179446Y0113494D01*
X0178784Y0111896D02*
X0175997Y0111896D01*
X0175997Y0110297D02*
X0178531Y0110297D01*
X0178538Y0108699D02*
X0175997Y0108699D01*
X0175997Y0107100D02*
X0179200Y0107100D01*
X0180350Y0105502D02*
X0175997Y0105502D01*
X0175997Y0103903D02*
X0179755Y0103903D01*
X0178953Y0102305D02*
X0175997Y0102305D01*
X0175997Y0100706D02*
X0178531Y0100706D01*
X0178531Y0099108D02*
X0175997Y0099108D01*
X0175997Y0097509D02*
X0179030Y0097509D01*
X0179941Y0095911D02*
X0175997Y0095911D01*
X0175997Y0094312D02*
X0180164Y0094312D01*
X0179123Y0092714D02*
X0175997Y0092714D01*
X0175997Y0091115D02*
X0178531Y0091115D01*
X0178531Y0089517D02*
X0175997Y0089517D01*
X0175997Y0087918D02*
X0178861Y0087918D01*
X0179533Y0086320D02*
X0175997Y0086320D01*
X0175997Y0084721D02*
X0180573Y0084721D01*
X0179292Y0083123D02*
X0175997Y0083123D01*
X0175997Y0081524D02*
X0178630Y0081524D01*
X0178531Y0079926D02*
X0175997Y0079926D01*
X0175997Y0078327D02*
X0178691Y0078327D01*
X0179354Y0076729D02*
X0175997Y0076729D01*
X0175997Y0075130D02*
X0180722Y0075130D01*
X0189278Y0075130D02*
X0198111Y0075130D01*
X0197188Y0076729D02*
X0190646Y0076729D01*
X0191308Y0078327D02*
X0196627Y0078327D01*
X0196199Y0079926D02*
X0191468Y0079926D01*
X0191370Y0081524D02*
X0196070Y0081524D01*
X0196070Y0083123D02*
X0190708Y0083123D01*
X0189427Y0084721D02*
X0196326Y0084721D01*
X0196754Y0086320D02*
X0190467Y0086320D01*
X0191139Y0087918D02*
X0197462Y0087918D01*
X0198385Y0089517D02*
X0191468Y0089517D01*
X0191468Y0091115D02*
X0199810Y0091115D01*
X0201708Y0092714D02*
X0190877Y0092714D01*
X0190970Y0097509D02*
X0193231Y0097509D01*
X0191632Y0099108D02*
X0191468Y0099108D01*
X0191082Y0102305D02*
X0191047Y0102305D01*
X0191082Y0103903D02*
X0190245Y0103903D01*
X0189650Y0105502D02*
X0192147Y0105502D01*
X0190800Y0107100D02*
X0193746Y0107100D01*
X0189873Y0134275D02*
X0200920Y0134275D01*
X0199852Y0135873D02*
X0187723Y0135873D01*
X0180388Y0145465D02*
X0175997Y0145465D01*
X0175997Y0147063D02*
X0179215Y0147063D01*
X0178553Y0148662D02*
X0175997Y0148662D01*
X0175997Y0150260D02*
X0178531Y0150260D01*
X0178768Y0151859D02*
X0175997Y0151859D01*
X0175997Y0153457D02*
X0179431Y0153457D01*
X0180908Y0155056D02*
X0175997Y0155056D01*
X0175997Y0156654D02*
X0180633Y0156654D01*
X0188795Y0164647D02*
X0292249Y0164647D01*
X0292255Y0166245D02*
X0190393Y0166245D01*
X0205742Y0175836D02*
X0207723Y0175836D01*
X0215742Y0175836D02*
X0224809Y0175836D01*
X0225466Y0175179D02*
X0223801Y0176844D01*
X0222900Y0179020D01*
X0222900Y0181374D01*
X0223801Y0183549D01*
X0225466Y0185214D01*
X0227642Y0186115D01*
X0229996Y0186115D01*
X0232171Y0185214D01*
X0233819Y0183567D01*
X0236367Y0186115D01*
X0241270Y0186115D01*
X0244737Y0182648D01*
X0244737Y0177745D01*
X0241270Y0174278D01*
X0236367Y0174278D01*
X0233819Y0176827D01*
X0232171Y0175179D01*
X0229996Y0174278D01*
X0227642Y0174278D01*
X0225466Y0175179D01*
X0223557Y0177435D02*
X0217340Y0177435D01*
X0217651Y0179033D02*
X0222900Y0179033D01*
X0222900Y0180632D02*
X0217651Y0180632D01*
X0217651Y0182230D02*
X0223255Y0182230D01*
X0224081Y0183829D02*
X0216470Y0183829D01*
X0214872Y0185427D02*
X0225981Y0185427D01*
X0231657Y0185427D02*
X0235679Y0185427D01*
X0234081Y0183829D02*
X0233557Y0183829D01*
X0232828Y0175836D02*
X0234809Y0175836D01*
X0242828Y0175836D02*
X0301345Y0175836D01*
X0302007Y0177435D02*
X0244427Y0177435D01*
X0244737Y0179033D02*
X0303454Y0179033D01*
X0310811Y0179033D02*
X0326757Y0179033D01*
X0318274Y0180632D02*
X0244737Y0180632D01*
X0244737Y0182230D02*
X0316548Y0182230D01*
X0315923Y0183829D02*
X0243557Y0183829D01*
X0241958Y0185427D02*
X0315923Y0185427D01*
X0316534Y0187026D02*
X0190770Y0187026D01*
X0175997Y0209405D02*
X0215340Y0209405D01*
X0215340Y0211003D02*
X0175997Y0211003D01*
X0175997Y0212602D02*
X0216112Y0212602D01*
X0217711Y0214201D02*
X0175997Y0214201D01*
X0175997Y0215799D02*
X0303648Y0215799D01*
X0303648Y0214201D02*
X0243707Y0214201D01*
X0245305Y0212602D02*
X0304374Y0212602D01*
X0305973Y0211003D02*
X0246077Y0211003D01*
X0246077Y0209405D02*
X0335380Y0209405D01*
X0335380Y0211003D02*
X0313161Y0211003D01*
X0314759Y0212602D02*
X0335758Y0212602D01*
X0337356Y0214201D02*
X0315485Y0214201D01*
X0311467Y0206367D02*
X0310726Y0206608D01*
X0309956Y0206730D01*
X0309567Y0206730D01*
X0309567Y0201780D01*
X0309567Y0201780D01*
X0309567Y0206730D01*
X0309177Y0206730D01*
X0308408Y0206608D01*
X0307667Y0206367D01*
X0306973Y0206013D01*
X0306342Y0205555D01*
X0305791Y0205004D01*
X0305333Y0204374D01*
X0304980Y0203680D01*
X0304739Y0202939D01*
X0304617Y0202169D01*
X0304617Y0201780D01*
X0309567Y0201780D01*
X0314517Y0201780D01*
X0314517Y0202169D01*
X0314395Y0202939D01*
X0314154Y0203680D01*
X0313801Y0204374D01*
X0313343Y0205004D01*
X0312792Y0205555D01*
X0312161Y0206013D01*
X0311467Y0206367D01*
X0311779Y0206208D02*
X0336948Y0206208D01*
X0335971Y0204609D02*
X0313629Y0204609D01*
X0314372Y0203011D02*
X0327886Y0203011D01*
X0326287Y0201412D02*
X0314517Y0201412D01*
X0314517Y0201390D02*
X0314517Y0201779D01*
X0309567Y0201779D01*
X0309567Y0196830D01*
X0309956Y0196830D01*
X0310726Y0196951D01*
X0311467Y0197192D01*
X0312161Y0197546D01*
X0312792Y0198004D01*
X0313343Y0198555D01*
X0313801Y0199185D01*
X0314154Y0199879D01*
X0314395Y0200620D01*
X0314517Y0201390D01*
X0314121Y0199814D02*
X0324689Y0199814D01*
X0323090Y0198215D02*
X0313003Y0198215D01*
X0309567Y0198215D02*
X0309567Y0198215D01*
X0309567Y0196830D02*
X0309567Y0201779D01*
X0309567Y0201779D01*
X0309567Y0201780D01*
X0309567Y0201779D01*
X0304617Y0201779D01*
X0304617Y0201390D01*
X0304739Y0200620D01*
X0304980Y0199879D01*
X0305333Y0199185D01*
X0305791Y0198555D01*
X0306342Y0198004D01*
X0306973Y0197546D01*
X0307667Y0197192D01*
X0308408Y0196951D01*
X0309177Y0196830D01*
X0309567Y0196830D01*
X0309567Y0199814D02*
X0309567Y0199814D01*
X0309567Y0201412D02*
X0309567Y0201412D01*
X0309567Y0203011D02*
X0309567Y0203011D01*
X0309567Y0204609D02*
X0309567Y0204609D01*
X0309567Y0206208D02*
X0309567Y0206208D01*
X0307355Y0206208D02*
X0244903Y0206208D01*
X0244203Y0204609D02*
X0305504Y0204609D01*
X0304762Y0203011D02*
X0245802Y0203011D01*
X0246786Y0201412D02*
X0304617Y0201412D01*
X0305013Y0199814D02*
X0246786Y0199814D01*
X0246786Y0198215D02*
X0306131Y0198215D01*
X0318189Y0188624D02*
X0218069Y0188624D01*
X0225823Y0196617D02*
X0237011Y0196617D01*
X0236049Y0198215D02*
X0226786Y0198215D01*
X0226786Y0199814D02*
X0236049Y0199814D01*
X0236049Y0201412D02*
X0226786Y0201412D01*
X0225802Y0203011D02*
X0237033Y0203011D01*
X0238113Y0204609D02*
X0224203Y0204609D01*
X0224903Y0206208D02*
X0236515Y0206208D01*
X0235340Y0207806D02*
X0226077Y0207806D01*
X0226077Y0209405D02*
X0235340Y0209405D01*
X0235340Y0211003D02*
X0226077Y0211003D01*
X0225305Y0212602D02*
X0236112Y0212602D01*
X0237711Y0214201D02*
X0223707Y0214201D01*
X0246077Y0207806D02*
X0335380Y0207806D01*
X0338583Y0200787D02*
X0330709Y0200787D01*
X0322835Y0192913D01*
X0321492Y0196617D02*
X0245823Y0196617D01*
X0252738Y0163048D02*
X0292243Y0163048D01*
X0293229Y0161450D02*
X0254558Y0161450D01*
X0255351Y0159851D02*
X0294816Y0159851D01*
X0294150Y0161450D02*
X0294150Y0161450D01*
X0295759Y0163048D02*
X0295760Y0163048D01*
X0298979Y0166245D02*
X0298979Y0166245D01*
X0299565Y0159851D02*
X0338293Y0159851D01*
X0338293Y0158253D02*
X0255682Y0158253D01*
X0255665Y0156654D02*
X0332694Y0156654D01*
X0330229Y0155056D02*
X0327535Y0155056D01*
X0329134Y0153457D02*
X0329169Y0153457D01*
X0324567Y0153457D02*
X0324567Y0153457D01*
X0324567Y0151859D02*
X0324567Y0151859D01*
X0324567Y0151023D02*
X0324567Y0146074D01*
X0324567Y0151023D01*
X0324567Y0151023D01*
X0324567Y0150260D02*
X0324567Y0150260D01*
X0324567Y0148662D02*
X0324567Y0148662D01*
X0324567Y0147063D02*
X0324567Y0147063D01*
X0327607Y0147063D02*
X0330157Y0147063D01*
X0324567Y0155056D02*
X0324567Y0155056D01*
X0321599Y0155056D02*
X0255002Y0155056D01*
X0229591Y0143866D02*
X0229456Y0143866D01*
X0227993Y0142268D02*
X0227846Y0142268D01*
X0220655Y0142268D02*
X0206401Y0142268D01*
X0206971Y0140669D02*
X0220163Y0140669D01*
X0218883Y0139070D02*
X0208569Y0139070D01*
X0208652Y0137472D02*
X0218883Y0137472D01*
X0218883Y0135873D02*
X0208652Y0135873D01*
X0207584Y0134275D02*
X0219550Y0134275D01*
X0227355Y0132676D02*
X0228402Y0132676D01*
X0219068Y0143866D02*
X0208011Y0143866D01*
X0208649Y0145465D02*
X0218881Y0145465D01*
X0218886Y0147063D02*
X0208655Y0147063D01*
X0208652Y0146319D02*
X0204252Y0146334D01*
X0204237Y0141934D01*
X0204252Y0146334D01*
X0204252Y0146334D01*
X0204252Y0146334D01*
X0208652Y0146319D01*
X0208142Y0148662D02*
X0219047Y0148662D01*
X0220657Y0150260D02*
X0206907Y0150260D01*
X0208506Y0151859D02*
X0220628Y0151859D01*
X0219198Y0153457D02*
X0209935Y0153457D01*
X0209935Y0155056D02*
X0219198Y0155056D01*
X0219198Y0156654D02*
X0209935Y0156654D01*
X0209418Y0158253D02*
X0219716Y0158253D01*
X0221314Y0159851D02*
X0207820Y0159851D01*
X0204249Y0145465D02*
X0204249Y0145465D01*
X0204243Y0143866D02*
X0204243Y0143866D01*
X0204238Y0142268D02*
X0204238Y0142268D01*
X0204252Y0140669D02*
X0204252Y0140669D01*
X0204252Y0139070D02*
X0204252Y0139070D01*
X0204252Y0137472D02*
X0204252Y0137472D01*
X0204252Y0135873D02*
X0204252Y0135873D01*
X0204252Y0134275D02*
X0204252Y0134275D01*
X0269685Y0080709D02*
X0271654Y0082677D01*
X0289370Y0082677D01*
X0289370Y0087795D01*
X0298819Y0097244D01*
X0307874Y0097244D01*
X0312992Y0102362D01*
X0308706Y0103903D02*
X0308584Y0103903D01*
X0309186Y0105502D02*
X0309698Y0105502D01*
X0307888Y0102305D02*
X0307407Y0102305D01*
X0301181Y0094488D02*
X0293307Y0086614D01*
X0293307Y0076772D01*
X0281496Y0076772D01*
X0274698Y0091115D02*
X0274081Y0091115D01*
X0272483Y0092714D02*
X0276297Y0092714D01*
X0283388Y0092714D02*
X0289242Y0092714D01*
X0301181Y0094488D02*
X0314961Y0094488D01*
X0324803Y0086614D01*
X0328779Y0086614D01*
X0328902Y0086491D01*
X0335595Y0086884D01*
X0342764Y0086320D02*
X0354655Y0086320D01*
X0355115Y0086129D02*
X0354097Y0086551D01*
X0353318Y0087329D01*
X0352897Y0088347D01*
X0352897Y0103622D01*
X0353318Y0104639D01*
X0354097Y0105418D01*
X0355115Y0105839D01*
X0364877Y0105839D01*
X0365895Y0105418D01*
X0366674Y0104639D01*
X0367095Y0103622D01*
X0367095Y0088347D01*
X0366674Y0087329D01*
X0365895Y0086551D01*
X0364877Y0086129D01*
X0355115Y0086129D01*
X0353074Y0087918D02*
X0342764Y0087918D01*
X0342764Y0089517D02*
X0352897Y0089517D01*
X0352897Y0091115D02*
X0342080Y0091115D01*
X0342631Y0092714D02*
X0352897Y0092714D01*
X0352897Y0094312D02*
X0342764Y0094312D01*
X0342764Y0095911D02*
X0352897Y0095911D01*
X0352897Y0097509D02*
X0342764Y0097509D01*
X0342692Y0099108D02*
X0352897Y0099108D01*
X0352897Y0100706D02*
X0341932Y0100706D01*
X0342764Y0102305D02*
X0352897Y0102305D01*
X0353014Y0103903D02*
X0342764Y0103903D01*
X0342764Y0105502D02*
X0354300Y0105502D01*
X0365693Y0105502D02*
X0370350Y0105502D01*
X0369755Y0103903D02*
X0366979Y0103903D01*
X0367095Y0102305D02*
X0368953Y0102305D01*
X0368531Y0100706D02*
X0367095Y0100706D01*
X0367095Y0099108D02*
X0368531Y0099108D01*
X0369030Y0097509D02*
X0367095Y0097509D01*
X0367095Y0095911D02*
X0369941Y0095911D01*
X0370164Y0094312D02*
X0367095Y0094312D01*
X0367095Y0092714D02*
X0369123Y0092714D01*
X0368531Y0091115D02*
X0367095Y0091115D01*
X0367095Y0089517D02*
X0368531Y0089517D01*
X0368861Y0087918D02*
X0366918Y0087918D01*
X0365337Y0086320D02*
X0369533Y0086320D01*
X0370573Y0084721D02*
X0361488Y0084721D01*
X0361141Y0084865D02*
X0362813Y0084172D01*
X0364093Y0082892D01*
X0364786Y0081220D01*
X0364786Y0079410D01*
X0364093Y0077738D01*
X0362813Y0076458D01*
X0361141Y0075765D01*
X0359331Y0075765D01*
X0357659Y0076458D01*
X0356379Y0077738D01*
X0355687Y0079410D01*
X0355687Y0081220D01*
X0356379Y0082892D01*
X0357659Y0084172D01*
X0359331Y0084865D01*
X0361141Y0084865D01*
X0358985Y0084721D02*
X0342764Y0084721D01*
X0342428Y0083123D02*
X0356610Y0083123D01*
X0355813Y0081524D02*
X0319993Y0081524D01*
X0319993Y0083123D02*
X0323908Y0083123D01*
X0321457Y0084721D02*
X0319737Y0084721D01*
X0319459Y0086320D02*
X0319309Y0086320D01*
X0319864Y0079926D02*
X0355687Y0079926D01*
X0356135Y0078327D02*
X0319436Y0078327D01*
X0318875Y0076729D02*
X0357389Y0076729D01*
X0363084Y0076729D02*
X0369354Y0076729D01*
X0368691Y0078327D02*
X0364337Y0078327D01*
X0364786Y0079926D02*
X0368531Y0079926D01*
X0368630Y0081524D02*
X0364660Y0081524D01*
X0363863Y0083123D02*
X0369292Y0083123D01*
X0370722Y0075130D02*
X0317952Y0075130D01*
X0327638Y0095591D02*
X0318898Y0104331D01*
X0322466Y0111896D02*
X0331443Y0111896D01*
X0331309Y0113494D02*
X0322466Y0113494D01*
X0322466Y0115093D02*
X0331175Y0115093D01*
X0331041Y0116691D02*
X0322466Y0116691D01*
X0324803Y0123085D02*
X0324803Y0123085D01*
X0328240Y0110297D02*
X0331577Y0110297D01*
X0335595Y0105084D02*
X0332839Y0137957D01*
X0338583Y0143701D01*
X0341985Y0140669D02*
X0368531Y0140669D01*
X0368531Y0139070D02*
X0338999Y0139070D01*
X0337400Y0137472D02*
X0369046Y0137472D01*
X0369979Y0135873D02*
X0336595Y0135873D01*
X0336729Y0134275D02*
X0336842Y0134275D01*
X0339488Y0134275D02*
X0339488Y0134275D01*
X0339488Y0134871D02*
X0339488Y0129921D01*
X0339488Y0134871D01*
X0339488Y0132676D02*
X0339488Y0132676D01*
X0339488Y0131078D02*
X0339488Y0131078D01*
X0339488Y0129921D02*
X0339488Y0129921D01*
X0339488Y0129479D02*
X0339488Y0129479D01*
X0339488Y0127881D02*
X0339488Y0127881D01*
X0339488Y0126282D02*
X0339488Y0126282D01*
X0337533Y0124684D02*
X0346667Y0124684D01*
X0344757Y0126282D02*
X0342850Y0126282D01*
X0337667Y0123085D02*
X0369277Y0123085D01*
X0368614Y0121487D02*
X0337801Y0121487D01*
X0337935Y0119888D02*
X0368531Y0119888D01*
X0368707Y0118290D02*
X0338069Y0118290D01*
X0338203Y0116691D02*
X0369369Y0116691D01*
X0370759Y0115093D02*
X0338337Y0115093D01*
X0338471Y0113494D02*
X0369446Y0113494D01*
X0368784Y0111896D02*
X0338605Y0111896D01*
X0338739Y0110297D02*
X0368531Y0110297D01*
X0368538Y0108699D02*
X0342489Y0108699D01*
X0342764Y0107100D02*
X0369200Y0107100D01*
X0379650Y0105502D02*
X0383058Y0105502D01*
X0383058Y0107100D02*
X0380800Y0107100D01*
X0381462Y0108699D02*
X0383058Y0108699D01*
X0383058Y0110297D02*
X0381468Y0110297D01*
X0381216Y0111896D02*
X0383058Y0111896D01*
X0383058Y0113494D02*
X0380554Y0113494D01*
X0379241Y0115093D02*
X0383058Y0115093D01*
X0383058Y0116691D02*
X0380631Y0116691D01*
X0381293Y0118290D02*
X0383058Y0118290D01*
X0383058Y0119888D02*
X0381468Y0119888D01*
X0381386Y0121487D02*
X0383058Y0121487D01*
X0383058Y0123085D02*
X0380723Y0123085D01*
X0379464Y0124684D02*
X0383058Y0124684D01*
X0383058Y0126282D02*
X0380430Y0126282D01*
X0381124Y0127881D02*
X0383058Y0127881D01*
X0383058Y0129479D02*
X0381468Y0129479D01*
X0381468Y0131078D02*
X0383058Y0131078D01*
X0383058Y0132676D02*
X0380893Y0132676D01*
X0379873Y0134275D02*
X0383058Y0134275D01*
X0383058Y0135873D02*
X0380021Y0135873D01*
X0380954Y0137472D02*
X0383058Y0137472D01*
X0383058Y0139070D02*
X0381468Y0139070D01*
X0381468Y0140669D02*
X0383058Y0140669D01*
X0383058Y0142268D02*
X0381062Y0142268D01*
X0380282Y0143866D02*
X0383058Y0143866D01*
X0383058Y0145465D02*
X0379612Y0145465D01*
X0380785Y0147063D02*
X0383058Y0147063D01*
X0383058Y0148662D02*
X0381447Y0148662D01*
X0381468Y0150260D02*
X0383058Y0150260D01*
X0383058Y0151859D02*
X0381232Y0151859D01*
X0380569Y0153457D02*
X0383058Y0153457D01*
X0383058Y0155056D02*
X0379092Y0155056D01*
X0383058Y0156654D02*
X0368223Y0156654D01*
X0366624Y0155056D02*
X0370908Y0155056D01*
X0369431Y0153457D02*
X0339965Y0153457D01*
X0340485Y0151859D02*
X0342928Y0151859D01*
X0341329Y0150260D02*
X0340485Y0150260D01*
X0340931Y0148662D02*
X0339995Y0148662D01*
X0340699Y0155056D02*
X0338905Y0155056D01*
X0339100Y0156654D02*
X0336440Y0156654D01*
X0346624Y0155056D02*
X0360699Y0155056D01*
X0359100Y0156654D02*
X0348223Y0156654D01*
X0349030Y0158253D02*
X0358293Y0158253D01*
X0358293Y0159851D02*
X0349030Y0159851D01*
X0349030Y0161450D02*
X0358293Y0161450D01*
X0359432Y0163048D02*
X0347890Y0163048D01*
X0346292Y0164647D02*
X0361031Y0164647D01*
X0362050Y0167844D02*
X0369176Y0167844D01*
X0370294Y0169442D02*
X0363649Y0169442D01*
X0364660Y0171041D02*
X0369811Y0171041D01*
X0368976Y0172639D02*
X0364660Y0172639D01*
X0364660Y0174238D02*
X0368531Y0174238D01*
X0368531Y0175836D02*
X0363724Y0175836D01*
X0362126Y0177435D02*
X0369007Y0177435D01*
X0369885Y0179033D02*
X0359660Y0179033D01*
X0359660Y0180632D02*
X0370220Y0180632D01*
X0356533Y0167844D02*
X0352050Y0167844D01*
X0353649Y0169442D02*
X0354934Y0169442D01*
X0349671Y0151859D02*
X0362928Y0151859D01*
X0361329Y0150260D02*
X0351269Y0150260D01*
X0351668Y0148662D02*
X0360931Y0148662D01*
X0360931Y0147063D02*
X0351668Y0147063D01*
X0351668Y0145465D02*
X0360931Y0145465D01*
X0362479Y0143866D02*
X0350120Y0143866D01*
X0342913Y0142268D02*
X0368938Y0142268D01*
X0370127Y0134275D02*
X0353505Y0134275D01*
X0354753Y0132676D02*
X0369107Y0132676D01*
X0368531Y0131078D02*
X0355407Y0131078D01*
X0355407Y0129479D02*
X0368531Y0129479D01*
X0368876Y0127881D02*
X0355049Y0127881D01*
X0354219Y0126282D02*
X0369570Y0126282D01*
X0370536Y0124684D02*
X0352310Y0124684D01*
X0344223Y0132676D02*
X0343733Y0132676D01*
X0342135Y0134275D02*
X0345472Y0134275D01*
X0334407Y0167844D02*
X0329845Y0167844D01*
X0331444Y0169442D02*
X0332808Y0169442D01*
X0331585Y0196617D02*
X0336762Y0196617D01*
X0344548Y0206208D02*
X0346042Y0206208D01*
X0353643Y0206208D02*
X0356200Y0206208D01*
X0355010Y0212602D02*
X0354833Y0212602D01*
X0353234Y0214201D02*
X0356608Y0214201D01*
X0346451Y0214201D02*
X0344140Y0214201D01*
X0306012Y0220595D02*
X0181650Y0220595D01*
X0178193Y0220595D02*
X0175997Y0220595D01*
X0175997Y0222193D02*
X0176097Y0222193D01*
X0175997Y0218996D02*
X0304413Y0218996D01*
X0303648Y0217398D02*
X0175997Y0217398D01*
X0327638Y0095591D02*
X0335595Y0095984D01*
X0379836Y0094312D02*
X0383058Y0094312D01*
X0383058Y0092714D02*
X0380877Y0092714D01*
X0381468Y0091115D02*
X0383058Y0091115D01*
X0383058Y0089517D02*
X0381468Y0089517D01*
X0381139Y0087918D02*
X0383058Y0087918D01*
X0383058Y0086320D02*
X0380467Y0086320D01*
X0379427Y0084721D02*
X0383058Y0084721D01*
X0383058Y0083123D02*
X0380708Y0083123D01*
X0381370Y0081524D02*
X0383058Y0081524D01*
X0383058Y0079926D02*
X0381468Y0079926D01*
X0381308Y0078327D02*
X0383058Y0078327D01*
X0383058Y0076729D02*
X0380646Y0076729D01*
X0379278Y0075130D02*
X0383058Y0075130D01*
X0383058Y0095911D02*
X0380059Y0095911D01*
X0380970Y0097509D02*
X0383058Y0097509D01*
X0383058Y0099108D02*
X0381468Y0099108D01*
X0381468Y0100706D02*
X0383058Y0100706D01*
X0383058Y0102305D02*
X0381047Y0102305D01*
X0380245Y0103903D02*
X0383058Y0103903D01*
D25*
X0360236Y0080315D03*
X0318898Y0120079D03*
X0312992Y0102362D03*
X0281496Y0076772D03*
X0269685Y0080709D03*
X0227165Y0079921D03*
X0275591Y0161417D03*
X0320472Y0184646D03*
X0338583Y0200787D03*
X0302756Y0235827D03*
X0216535Y0192913D03*
X0204724Y0192913D03*
X0204724Y0165354D03*
X0179921Y0224803D03*
X0338583Y0143701D03*
M02*
