%
M48
M72
T01C0.02362
T02C0.03200
T03C0.03600
T04C0.04000
T05C0.12800
%
T01
X227165Y79921
X269685Y80709
X281496Y76772
X312992Y102362
X318898Y120079
X338583Y143701
X320472Y184646
X338583Y200787
X302756Y235827
X275591Y161417
X216535Y192913
X204724Y192913
X204724Y165354
X179921Y224803
X360236Y80315
T02
X324803Y106142
X314921Y123110
X305748Y128031
X296220Y128110
X303268Y116535
X303268Y106535
X324803Y126142
X339488Y129921
X349488Y129921
X346299Y147638
X343661Y159685
X334567Y151024
X324567Y151024
X314921Y143110
X305748Y148031
X296220Y148110
X282835Y148819
X297198Y164477
X307132Y174342
X327126Y172717
X332126Y180217
X337126Y172717
X349291Y172677
X354291Y180177
X359291Y172677
X363661Y159685
X366299Y147638
X360000Y190000
X349843Y190000
X340748Y190000
X340748Y210000
X349843Y210000
X360000Y210000
X309567Y215780
X309567Y201780
X249764Y157874
X239764Y157874
X224567Y155512
X224252Y146264
X224252Y137165
X232756Y138307
X232756Y128307
X232756Y118307
X232756Y108307
X225591Y103701
X215236Y116378
X215236Y126378
X204252Y137165
X196850Y142047
X204252Y146334
X204567Y155512
X201732Y180197
X211732Y180197
X228819Y180197
X238819Y180197
X241417Y199803
X240709Y209606
X221417Y199803
X220709Y209606
X262756Y138307
X262756Y128307
X262756Y118307
X262756Y108307
X279173Y107992
X279173Y117992
X282835Y128819
X205591Y103701
X196850Y102047
T03
X225315Y229921
X235315Y229921
T04
X185000Y80000
X185000Y90000
X185000Y100000
X185000Y110000
X185000Y120000
X185000Y130000
X185000Y150000
X185000Y160000
X185000Y170000
X185000Y180000
X185000Y190000
X185000Y200000
X236220Y87677
X247126Y87677
X258031Y87677
X268937Y87677
X279843Y87677
X274390Y76496
X263484Y76496
X252579Y76496
X241673Y76496
X375000Y80000
X375000Y90000
X375000Y100000
X375000Y110000
X375000Y120000
X375000Y130000
X375000Y140000
X375000Y150000
X375000Y165000
X375000Y175000
X375000Y185000
X375000Y195000
X375000Y205000
X375000Y215000
X375000Y225000
X375000Y235000
T05
X307224Y82087
X208839Y82087
M30
